%
M48
M72
T01C0.0240
T02C0.0320
T03C0.0400
T04C0.0440
T05C0.0470
T06C0.0590
T07C0.1260
T08C0.1300
%
T01
X2600Y5100
X2600Y6100
X2600Y7100
X2600Y8600
X2100Y10100
X1100Y11100
X5100Y7100
X6100Y5100
X8100Y3600
X13100Y5100
X14100Y7100
X15600Y8600
X17100Y9600
X15600Y12100
X15600Y14100
X16600Y14600
X19600Y18600
X12600Y15600
X11600Y17600
X9600Y18100
X5600Y18600
X5600Y11600
X8600Y10600
X8600Y10100
X9600Y10600
X11100Y10600
X15100Y3600
X1100Y5600
T02
X1600Y3994
X1600Y2994
X4100Y2600
X4100Y1600
X4100Y3600
X4100Y4600
X4100Y5600
X4100Y6600
X4100Y7600
X4100Y8600
X4100Y9600
X4100Y10600
X4100Y11600
X4100Y12600
X4100Y13600
X4100Y14600
X7100Y14600
X7100Y13600
X7100Y12600
X7100Y11600
X7100Y10600
X7100Y9600
X7100Y8600
X7100Y7600
X7100Y6600
X7100Y5600
X7100Y4600
X7100Y3600
X7100Y2600
X7100Y1600
X9100Y1600
X9100Y2600
X9100Y3600
X9100Y4600
X9100Y5600
X9100Y6600
X9100Y7600
X9100Y8600
X9100Y11100
X12100Y11100
X13600Y11100
X13600Y12600
X13600Y14100
X13600Y15600
X13600Y17100
X12100Y20100
X11100Y20100
X11600Y22600
X11600Y23600
X11600Y25100
X11600Y26100
X11600Y27100
X11600Y29100
X11600Y30100
X11600Y31100
X8600Y31100
X8600Y30100
X8600Y29100
X8600Y27100
X8600Y26100
X8600Y25100
X8100Y23100
X8100Y22100
X17600Y17100
X18600Y17100
X18600Y15600
X17600Y15600
X17600Y14100
X18600Y14100
X18600Y12600
X17600Y12600
X17600Y11100
X18600Y11100
X17600Y9100
X16600Y9100
X16600Y7600
X17600Y7600
X17600Y6100
X16600Y6100
X16600Y4600
X16600Y3100
X16600Y1600
X13600Y1600
X13600Y3100
X13600Y4600
X13600Y6100
X13600Y7600
X13600Y9100
X12100Y8600
X12100Y7600
X12100Y6600
X12100Y5600
X12100Y4600
X12100Y3600
X12100Y2600
X12100Y1600
X20600Y6100
X20600Y7600
X20600Y9100
X22600Y11100
X22600Y12600
X22600Y14100
X22600Y15600
X22600Y17100
X25600Y11313
X26600Y11313
X26600Y8313
X25600Y8313
X25600Y5313
X26600Y5313
X1600Y8600
X1600Y9600
T03
X1100Y13100
X1100Y14100
X1100Y15100
X2100Y15100
X2100Y14100
X2100Y13100
X1100Y17100
X1100Y18100
X7100Y18100
X7100Y17100
X8710Y15380
X10490Y15380
X10490Y12820
X8710Y12820
X18206Y4100
X18206Y3100
T04
X22100Y22600
X22100Y23600
X22100Y24600
X22100Y29100
X22100Y30100
X22100Y31100
X4600Y27100
X3600Y27100
X2600Y27100
T05
X4116Y31100
X6084Y31100
X25600Y29297
X25600Y27328
X25592Y24781
X25592Y22813
X25592Y20844
X25592Y18281
X25592Y16313
X25592Y14344
T06
X20600Y19600
X14600Y19600
T07
X1494Y1494
X26706Y1494
X26706Y32100
X1600Y32100
T08
X3600Y21200
X15200Y23600
X15200Y30100
M30
