G75*
%MOIN*%
%OFA0B0*%
%FSLAX24Y24*%
%IPPOS*%
%LPD*%
%AMOC8*
5,1,8,0,0,1.08239X$1,22.5*
%
%ADD10C,0.0060*%
%ADD11C,0.0030*%
%ADD12C,0.0020*%
%ADD13R,0.0150X0.0200*%
%ADD14C,0.0040*%
%ADD15C,0.0160*%
%ADD16C,0.0050*%
%ADD17C,0.0100*%
%ADD18C,0.0070*%
%ADD19R,0.0250X0.0300*%
%ADD20R,0.1100X0.0500*%
%ADD21C,0.0080*%
%ADD22R,0.0300X0.0250*%
%ADD23R,0.0500X0.1100*%
%ADD24C,0.0300*%
%ADD25R,0.0200X0.0300*%
%ADD26R,0.0400X0.0300*%
%ADD27R,0.0340X0.0240*%
%ADD28R,0.0300X0.2200*%
%ADD29R,0.0350X0.0500*%
%ADD30R,0.0150X0.0400*%
D10*
X001100Y002544D02*
X002100Y002544D01*
X002117Y002546D01*
X002134Y002550D01*
X002150Y002557D01*
X002164Y002567D01*
X002177Y002580D01*
X002187Y002594D01*
X002194Y002610D01*
X002198Y002627D01*
X002200Y002644D01*
X002200Y004344D01*
X002198Y004361D01*
X002194Y004378D01*
X002187Y004394D01*
X002177Y004408D01*
X002164Y004421D01*
X002150Y004431D01*
X002134Y004438D01*
X002117Y004442D01*
X002100Y004444D01*
X001100Y004444D01*
X001083Y004442D01*
X001066Y004438D01*
X001050Y004431D01*
X001036Y004421D01*
X001023Y004408D01*
X001013Y004394D01*
X001006Y004378D01*
X001002Y004361D01*
X001000Y004344D01*
X001000Y002644D01*
X001002Y002627D01*
X001006Y002610D01*
X001013Y002594D01*
X001023Y002580D01*
X001036Y002567D01*
X001050Y002557D01*
X001066Y002550D01*
X001083Y002546D01*
X001100Y002544D01*
X001600Y003344D02*
X001600Y003394D01*
X001600Y003594D02*
X001600Y003644D01*
X003100Y004100D02*
X008350Y004100D01*
X008350Y008100D01*
X003100Y008100D01*
X002200Y008250D02*
X002200Y009950D01*
X002198Y009967D01*
X002194Y009984D01*
X002187Y010000D01*
X002177Y010014D01*
X002164Y010027D01*
X002150Y010037D01*
X002134Y010044D01*
X002117Y010048D01*
X002100Y010050D01*
X001100Y010050D01*
X001083Y010048D01*
X001066Y010044D01*
X001050Y010037D01*
X001036Y010027D01*
X001023Y010014D01*
X001013Y010000D01*
X001006Y009984D01*
X001002Y009967D01*
X001000Y009950D01*
X001000Y008250D01*
X001002Y008233D01*
X001006Y008216D01*
X001013Y008200D01*
X001023Y008186D01*
X001036Y008173D01*
X001050Y008163D01*
X001066Y008156D01*
X001083Y008152D01*
X001100Y008150D01*
X002100Y008150D01*
X002117Y008152D01*
X002134Y008156D01*
X002150Y008163D01*
X002164Y008173D01*
X002177Y008186D01*
X002187Y008200D01*
X002194Y008216D01*
X002198Y008233D01*
X002200Y008250D01*
X001600Y008950D02*
X001600Y009000D01*
X001600Y009200D02*
X001600Y009250D01*
X002850Y007100D02*
X003100Y007100D01*
X003100Y005100D02*
X002850Y005100D01*
X004500Y000800D02*
X006700Y000800D01*
X006700Y015400D01*
X005850Y015400D01*
X005848Y015370D01*
X005843Y015340D01*
X005834Y015311D01*
X005821Y015284D01*
X005806Y015258D01*
X005787Y015234D01*
X005766Y015213D01*
X005742Y015194D01*
X005716Y015179D01*
X005689Y015166D01*
X005660Y015157D01*
X005630Y015152D01*
X005600Y015150D01*
X005570Y015152D01*
X005540Y015157D01*
X005511Y015166D01*
X005484Y015179D01*
X005458Y015194D01*
X005434Y015213D01*
X005413Y015234D01*
X005394Y015258D01*
X005379Y015284D01*
X005366Y015311D01*
X005357Y015340D01*
X005352Y015370D01*
X005350Y015400D01*
X004500Y015400D01*
X004500Y000800D01*
X008650Y000800D02*
X009950Y000800D01*
X011250Y000800D01*
X012550Y000800D01*
X012550Y009400D01*
X011250Y009400D01*
X009950Y009400D01*
X008650Y009400D01*
X008650Y000800D01*
X009850Y001300D02*
X009850Y001900D01*
X011350Y001900D01*
X011350Y001300D01*
X009850Y001300D01*
X009950Y001000D02*
X009950Y000800D01*
X009950Y001000D02*
X011250Y001000D01*
X011250Y000800D01*
X011350Y002300D02*
X011350Y002900D01*
X009850Y002900D01*
X009850Y002300D01*
X011350Y002300D01*
X011350Y003300D02*
X011350Y003900D01*
X009850Y003900D01*
X009850Y003300D01*
X011350Y003300D01*
X011350Y004300D02*
X011350Y004900D01*
X009850Y004900D01*
X009850Y004300D01*
X011350Y004300D01*
X011350Y005300D02*
X011350Y005900D01*
X009850Y005900D01*
X009850Y005300D01*
X011350Y005300D01*
X011350Y006300D02*
X011350Y006900D01*
X009850Y006900D01*
X009850Y006300D01*
X011350Y006300D01*
X011350Y007300D02*
X011350Y007900D01*
X009850Y007900D01*
X009850Y007300D01*
X011350Y007300D01*
X011350Y008300D02*
X011350Y008900D01*
X009850Y008900D01*
X009850Y008300D01*
X011350Y008300D01*
X011250Y009200D02*
X011250Y009400D01*
X011250Y009200D02*
X009950Y009200D01*
X009950Y009400D01*
X009850Y010700D02*
X009900Y010750D01*
X011300Y010750D01*
X011350Y010700D01*
X011500Y010700D01*
X011517Y010702D01*
X011534Y010706D01*
X011550Y010713D01*
X011564Y010723D01*
X011577Y010736D01*
X011587Y010750D01*
X011594Y010766D01*
X011598Y010783D01*
X011600Y010800D01*
X011600Y011400D01*
X011598Y011417D01*
X011594Y011434D01*
X011587Y011450D01*
X011577Y011464D01*
X011564Y011477D01*
X011550Y011487D01*
X011534Y011494D01*
X011517Y011498D01*
X011500Y011500D01*
X011350Y011500D01*
X011300Y011450D01*
X009900Y011450D01*
X009850Y011500D01*
X009700Y011500D01*
X009683Y011498D01*
X009666Y011494D01*
X009650Y011487D01*
X009636Y011477D01*
X009623Y011464D01*
X009613Y011450D01*
X009606Y011434D01*
X009602Y011417D01*
X009600Y011400D01*
X009600Y010800D01*
X009602Y010783D01*
X009606Y010766D01*
X009613Y010750D01*
X009623Y010736D01*
X009636Y010723D01*
X009650Y010713D01*
X009666Y010706D01*
X009683Y010702D01*
X009700Y010700D01*
X009850Y010700D01*
X009900Y012800D02*
X009300Y012800D01*
X009300Y012900D01*
X009200Y012900D01*
X009900Y012900D02*
X010000Y012900D01*
X009900Y012900D02*
X009900Y012800D01*
X010800Y013250D02*
X010800Y013600D01*
X010800Y014550D01*
X010800Y014950D01*
X010000Y015300D02*
X009900Y015300D01*
X009900Y015400D01*
X009300Y015400D01*
X009300Y015300D01*
X009200Y015300D01*
X008400Y014950D02*
X008400Y014600D01*
X008400Y013600D01*
X008400Y013250D01*
X009500Y014100D02*
X009502Y014120D01*
X009508Y014138D01*
X009517Y014156D01*
X009529Y014171D01*
X009544Y014183D01*
X009562Y014192D01*
X009580Y014198D01*
X009600Y014200D01*
X009620Y014198D01*
X009638Y014192D01*
X009656Y014183D01*
X009671Y014171D01*
X009683Y014156D01*
X009692Y014138D01*
X009698Y014120D01*
X009700Y014100D01*
X009698Y014080D01*
X009692Y014062D01*
X009683Y014044D01*
X009671Y014029D01*
X009656Y014017D01*
X009638Y014008D01*
X009620Y014002D01*
X009600Y014000D01*
X009580Y014002D01*
X009562Y014008D01*
X009544Y014017D01*
X009529Y014029D01*
X009517Y014044D01*
X009508Y014062D01*
X009502Y014080D01*
X009500Y014100D01*
X008900Y014100D02*
X008902Y014152D01*
X008908Y014204D01*
X008918Y014256D01*
X008931Y014306D01*
X008948Y014356D01*
X008969Y014404D01*
X008994Y014450D01*
X009022Y014494D01*
X009053Y014536D01*
X009087Y014576D01*
X009124Y014613D01*
X009164Y014647D01*
X009206Y014678D01*
X009250Y014706D01*
X009296Y014731D01*
X009344Y014752D01*
X009394Y014769D01*
X009444Y014782D01*
X009496Y014792D01*
X009548Y014798D01*
X009600Y014800D01*
X009652Y014798D01*
X009704Y014792D01*
X009756Y014782D01*
X009806Y014769D01*
X009856Y014752D01*
X009904Y014731D01*
X009950Y014706D01*
X009994Y014678D01*
X010036Y014647D01*
X010076Y014613D01*
X010113Y014576D01*
X010147Y014536D01*
X010178Y014494D01*
X010206Y014450D01*
X010231Y014404D01*
X010252Y014356D01*
X010269Y014306D01*
X010282Y014256D01*
X010292Y014204D01*
X010298Y014152D01*
X010300Y014100D01*
X010298Y014048D01*
X010292Y013996D01*
X010282Y013944D01*
X010269Y013894D01*
X010252Y013844D01*
X010231Y013796D01*
X010206Y013750D01*
X010178Y013706D01*
X010147Y013664D01*
X010113Y013624D01*
X010076Y013587D01*
X010036Y013553D01*
X009994Y013522D01*
X009950Y013494D01*
X009904Y013469D01*
X009856Y013448D01*
X009806Y013431D01*
X009756Y013418D01*
X009704Y013408D01*
X009652Y013402D01*
X009600Y013400D01*
X009548Y013402D01*
X009496Y013408D01*
X009444Y013418D01*
X009394Y013431D01*
X009344Y013448D01*
X009296Y013469D01*
X009250Y013494D01*
X009206Y013522D01*
X009164Y013553D01*
X009124Y013587D01*
X009087Y013624D01*
X009053Y013664D01*
X009022Y013706D01*
X008994Y013750D01*
X008969Y013796D01*
X008948Y013844D01*
X008931Y013894D01*
X008918Y013944D01*
X008908Y013996D01*
X008902Y014048D01*
X008900Y014100D01*
X008850Y016600D02*
X007850Y016600D01*
X007850Y017600D01*
X008850Y017600D01*
X008850Y016600D01*
X008850Y017600D02*
X008850Y018600D01*
X007850Y018600D01*
X007850Y017600D01*
X005650Y019850D02*
X005650Y020600D01*
X005300Y020600D01*
X005300Y021200D01*
X005650Y021200D01*
X005650Y026100D01*
X001550Y026100D01*
X001550Y021200D01*
X001900Y021200D01*
X001900Y020600D01*
X001550Y020600D01*
X001550Y019850D01*
X005650Y019850D01*
X007500Y021750D02*
X007500Y023450D01*
X007502Y023467D01*
X007506Y023484D01*
X007513Y023500D01*
X007523Y023514D01*
X007536Y023527D01*
X007550Y023537D01*
X007566Y023544D01*
X007583Y023548D01*
X007600Y023550D01*
X008600Y023550D01*
X008617Y023548D01*
X008634Y023544D01*
X008650Y023537D01*
X008664Y023527D01*
X008677Y023514D01*
X008687Y023500D01*
X008694Y023484D01*
X008698Y023467D01*
X008700Y023450D01*
X008700Y021750D01*
X008698Y021733D01*
X008694Y021716D01*
X008687Y021700D01*
X008677Y021686D01*
X008664Y021673D01*
X008650Y021663D01*
X008634Y021656D01*
X008617Y021652D01*
X008600Y021650D01*
X007600Y021650D01*
X007583Y021652D01*
X007566Y021656D01*
X007550Y021663D01*
X007536Y021673D01*
X007523Y021686D01*
X007513Y021700D01*
X007506Y021716D01*
X007502Y021733D01*
X007500Y021750D01*
X008100Y022450D02*
X008100Y022500D01*
X008100Y022700D02*
X008100Y022750D01*
X008950Y024600D02*
X011250Y024600D01*
X011250Y027600D01*
X010500Y027600D01*
X010498Y027561D01*
X010492Y027522D01*
X010483Y027484D01*
X010470Y027447D01*
X010453Y027411D01*
X010433Y027378D01*
X010409Y027346D01*
X010383Y027317D01*
X010354Y027291D01*
X010322Y027267D01*
X010289Y027247D01*
X010253Y027230D01*
X010216Y027217D01*
X010178Y027208D01*
X010139Y027202D01*
X010100Y027200D01*
X010061Y027202D01*
X010022Y027208D01*
X009984Y027217D01*
X009947Y027230D01*
X009911Y027247D01*
X009878Y027267D01*
X009846Y027291D01*
X009817Y027317D01*
X009791Y027346D01*
X009767Y027378D01*
X009747Y027411D01*
X009730Y027447D01*
X009717Y027484D01*
X009708Y027522D01*
X009702Y027561D01*
X009700Y027600D01*
X008950Y027600D01*
X008950Y024600D01*
X011000Y023950D02*
X011000Y022250D01*
X011002Y022233D01*
X011006Y022216D01*
X011013Y022200D01*
X011023Y022186D01*
X011036Y022173D01*
X011050Y022163D01*
X011066Y022156D01*
X011083Y022152D01*
X011100Y022150D01*
X012100Y022150D01*
X012117Y022152D01*
X012134Y022156D01*
X012150Y022163D01*
X012164Y022173D01*
X012177Y022186D01*
X012187Y022200D01*
X012194Y022216D01*
X012198Y022233D01*
X012200Y022250D01*
X012200Y023950D01*
X012198Y023967D01*
X012194Y023984D01*
X012187Y024000D01*
X012177Y024014D01*
X012164Y024027D01*
X012150Y024037D01*
X012134Y024044D01*
X012117Y024048D01*
X012100Y024050D01*
X011100Y024050D01*
X011083Y024048D01*
X011066Y024044D01*
X011050Y024037D01*
X011036Y024027D01*
X011023Y024014D01*
X011013Y024000D01*
X011006Y023984D01*
X011002Y023967D01*
X011000Y023950D01*
X011600Y023250D02*
X011600Y023200D01*
X011600Y023000D02*
X011600Y022950D01*
X010750Y020700D02*
X012450Y020700D01*
X012467Y020698D01*
X012484Y020694D01*
X012500Y020687D01*
X012514Y020677D01*
X012527Y020664D01*
X012537Y020650D01*
X012544Y020634D01*
X012548Y020617D01*
X012550Y020600D01*
X012550Y019600D01*
X012548Y019583D01*
X012544Y019566D01*
X012537Y019550D01*
X012527Y019536D01*
X012514Y019523D01*
X012500Y019513D01*
X012484Y019506D01*
X012467Y019502D01*
X012450Y019500D01*
X010750Y019500D01*
X010733Y019502D01*
X010716Y019506D01*
X010700Y019513D01*
X010686Y019523D01*
X010673Y019536D01*
X010663Y019550D01*
X010656Y019566D01*
X010652Y019583D01*
X010650Y019600D01*
X010650Y020600D01*
X010652Y020617D01*
X010656Y020634D01*
X010663Y020650D01*
X010673Y020664D01*
X010686Y020677D01*
X010700Y020687D01*
X010716Y020694D01*
X010733Y020698D01*
X010750Y020700D01*
X011450Y020100D02*
X011500Y020100D01*
X011700Y020100D02*
X011750Y020100D01*
X013850Y021550D02*
X014600Y021550D01*
X014600Y021900D01*
X015200Y021900D01*
X015200Y021550D01*
X020100Y021550D01*
X020100Y025650D01*
X015200Y025650D01*
X015200Y025300D01*
X014600Y025300D01*
X014600Y025650D01*
X013850Y025650D01*
X013850Y021550D01*
X015600Y020700D02*
X019600Y020700D01*
X019600Y018500D01*
X015600Y018500D01*
X015600Y020700D01*
X016700Y019600D02*
X017600Y019600D01*
X017600Y019830D01*
X017600Y019600D02*
X017150Y019830D01*
X017150Y019370D01*
X017600Y019600D01*
X017600Y019370D01*
X017600Y019600D02*
X018100Y019600D01*
X016750Y017550D02*
X016600Y017550D01*
X016550Y017500D01*
X014650Y017500D01*
X014600Y017550D01*
X014450Y017550D01*
X014433Y017548D01*
X014416Y017544D01*
X014400Y017537D01*
X014386Y017527D01*
X014373Y017514D01*
X014363Y017500D01*
X014356Y017484D01*
X014352Y017467D01*
X014350Y017450D01*
X014350Y016750D01*
X014352Y016733D01*
X014356Y016716D01*
X014363Y016700D01*
X014373Y016686D01*
X014386Y016673D01*
X014400Y016663D01*
X014416Y016656D01*
X014433Y016652D01*
X014450Y016650D01*
X014600Y016650D01*
X014650Y016700D01*
X016550Y016700D01*
X016600Y016650D01*
X016750Y016650D01*
X016767Y016652D01*
X016784Y016656D01*
X016800Y016663D01*
X016814Y016673D01*
X016827Y016686D01*
X016837Y016700D01*
X016844Y016716D01*
X016848Y016733D01*
X016850Y016750D01*
X016850Y017450D01*
X016848Y017467D01*
X016844Y017484D01*
X016837Y017500D01*
X016827Y017514D01*
X016814Y017527D01*
X016800Y017537D01*
X016784Y017544D01*
X016767Y017548D01*
X016750Y017550D01*
X016750Y016050D02*
X016600Y016050D01*
X016550Y016000D01*
X014650Y016000D01*
X014600Y016050D01*
X014450Y016050D01*
X014433Y016048D01*
X014416Y016044D01*
X014400Y016037D01*
X014386Y016027D01*
X014373Y016014D01*
X014363Y016000D01*
X014356Y015984D01*
X014352Y015967D01*
X014350Y015950D01*
X014350Y015250D01*
X014352Y015233D01*
X014356Y015216D01*
X014363Y015200D01*
X014373Y015186D01*
X014386Y015173D01*
X014400Y015163D01*
X014416Y015156D01*
X014433Y015152D01*
X014450Y015150D01*
X014600Y015150D01*
X014650Y015200D01*
X016550Y015200D01*
X016600Y015150D01*
X016750Y015150D01*
X016767Y015152D01*
X016784Y015156D01*
X016800Y015163D01*
X016814Y015173D01*
X016827Y015186D01*
X016837Y015200D01*
X016844Y015216D01*
X016848Y015233D01*
X016850Y015250D01*
X016850Y015950D01*
X016848Y015967D01*
X016844Y015984D01*
X016837Y016000D01*
X016827Y016014D01*
X016814Y016027D01*
X016800Y016037D01*
X016784Y016044D01*
X016767Y016048D01*
X016750Y016050D01*
X016750Y014550D02*
X016600Y014550D01*
X016550Y014500D01*
X014650Y014500D01*
X014600Y014550D01*
X014450Y014550D01*
X014433Y014548D01*
X014416Y014544D01*
X014400Y014537D01*
X014386Y014527D01*
X014373Y014514D01*
X014363Y014500D01*
X014356Y014484D01*
X014352Y014467D01*
X014350Y014450D01*
X014350Y013750D01*
X014352Y013733D01*
X014356Y013716D01*
X014363Y013700D01*
X014373Y013686D01*
X014386Y013673D01*
X014400Y013663D01*
X014416Y013656D01*
X014433Y013652D01*
X014450Y013650D01*
X014600Y013650D01*
X014650Y013700D01*
X016550Y013700D01*
X016600Y013650D01*
X016750Y013650D01*
X016767Y013652D01*
X016784Y013656D01*
X016800Y013663D01*
X016814Y013673D01*
X016827Y013686D01*
X016837Y013700D01*
X016844Y013716D01*
X016848Y013733D01*
X016850Y013750D01*
X016850Y014450D01*
X016848Y014467D01*
X016844Y014484D01*
X016837Y014500D01*
X016827Y014514D01*
X016814Y014527D01*
X016800Y014537D01*
X016784Y014544D01*
X016767Y014548D01*
X016750Y014550D01*
X016750Y013050D02*
X016600Y013050D01*
X016550Y013000D01*
X014650Y013000D01*
X014600Y013050D01*
X014450Y013050D01*
X014433Y013048D01*
X014416Y013044D01*
X014400Y013037D01*
X014386Y013027D01*
X014373Y013014D01*
X014363Y013000D01*
X014356Y012984D01*
X014352Y012967D01*
X014350Y012950D01*
X014350Y012250D01*
X014352Y012233D01*
X014356Y012216D01*
X014363Y012200D01*
X014373Y012186D01*
X014386Y012173D01*
X014400Y012163D01*
X014416Y012156D01*
X014433Y012152D01*
X014450Y012150D01*
X014600Y012150D01*
X014650Y012200D01*
X016550Y012200D01*
X016600Y012150D01*
X016750Y012150D01*
X016767Y012152D01*
X016784Y012156D01*
X016800Y012163D01*
X016814Y012173D01*
X016827Y012186D01*
X016837Y012200D01*
X016844Y012216D01*
X016848Y012233D01*
X016850Y012250D01*
X016850Y012950D01*
X016848Y012967D01*
X016844Y012984D01*
X016837Y013000D01*
X016827Y013014D01*
X016814Y013027D01*
X016800Y013037D01*
X016784Y013044D01*
X016767Y013048D01*
X016750Y013050D01*
X016750Y011550D02*
X016600Y011550D01*
X016550Y011500D01*
X014650Y011500D01*
X014600Y011550D01*
X014450Y011550D01*
X014433Y011548D01*
X014416Y011544D01*
X014400Y011537D01*
X014386Y011527D01*
X014373Y011514D01*
X014363Y011500D01*
X014356Y011484D01*
X014352Y011467D01*
X014350Y011450D01*
X014350Y010750D01*
X014352Y010733D01*
X014356Y010716D01*
X014363Y010700D01*
X014373Y010686D01*
X014386Y010673D01*
X014400Y010663D01*
X014416Y010656D01*
X014433Y010652D01*
X014450Y010650D01*
X014600Y010650D01*
X014650Y010700D01*
X016550Y010700D01*
X016600Y010650D01*
X016750Y010650D01*
X016767Y010652D01*
X016784Y010656D01*
X016800Y010663D01*
X016814Y010673D01*
X016827Y010686D01*
X016837Y010700D01*
X016844Y010716D01*
X016848Y010733D01*
X016850Y010750D01*
X016850Y011450D01*
X016848Y011467D01*
X016844Y011484D01*
X016837Y011500D01*
X016827Y011514D01*
X016814Y011527D01*
X016800Y011537D01*
X016784Y011544D01*
X016767Y011548D01*
X016750Y011550D01*
X016000Y009500D02*
X015850Y009500D01*
X015800Y009450D01*
X014400Y009450D01*
X014350Y009500D01*
X014200Y009500D01*
X014183Y009498D01*
X014166Y009494D01*
X014150Y009487D01*
X014136Y009477D01*
X014123Y009464D01*
X014113Y009450D01*
X014106Y009434D01*
X014102Y009417D01*
X014100Y009400D01*
X014100Y008800D01*
X014102Y008783D01*
X014106Y008766D01*
X014113Y008750D01*
X014123Y008736D01*
X014136Y008723D01*
X014150Y008713D01*
X014166Y008706D01*
X014183Y008702D01*
X014200Y008700D01*
X014350Y008700D01*
X014400Y008750D01*
X015800Y008750D01*
X015850Y008700D01*
X016000Y008700D01*
X016017Y008702D01*
X016034Y008706D01*
X016050Y008713D01*
X016064Y008723D01*
X016077Y008736D01*
X016087Y008750D01*
X016094Y008766D01*
X016098Y008783D01*
X016100Y008800D01*
X016100Y009400D01*
X016098Y009417D01*
X016094Y009434D01*
X016087Y009450D01*
X016077Y009464D01*
X016064Y009477D01*
X016050Y009487D01*
X016034Y009494D01*
X016017Y009498D01*
X016000Y009500D01*
X016000Y008000D02*
X015850Y008000D01*
X015800Y007950D01*
X014400Y007950D01*
X014350Y008000D01*
X014200Y008000D01*
X014183Y007998D01*
X014166Y007994D01*
X014150Y007987D01*
X014136Y007977D01*
X014123Y007964D01*
X014113Y007950D01*
X014106Y007934D01*
X014102Y007917D01*
X014100Y007900D01*
X014100Y007300D01*
X014102Y007283D01*
X014106Y007266D01*
X014113Y007250D01*
X014123Y007236D01*
X014136Y007223D01*
X014150Y007213D01*
X014166Y007206D01*
X014183Y007202D01*
X014200Y007200D01*
X014350Y007200D01*
X014400Y007250D01*
X015800Y007250D01*
X015850Y007200D01*
X016000Y007200D01*
X016017Y007202D01*
X016034Y007206D01*
X016050Y007213D01*
X016064Y007223D01*
X016077Y007236D01*
X016087Y007250D01*
X016094Y007266D01*
X016098Y007283D01*
X016100Y007300D01*
X016100Y007900D01*
X016098Y007917D01*
X016094Y007934D01*
X016087Y007950D01*
X016077Y007964D01*
X016064Y007977D01*
X016050Y007987D01*
X016034Y007994D01*
X016017Y007998D01*
X016000Y008000D01*
X016000Y006500D02*
X015850Y006500D01*
X015800Y006450D01*
X014400Y006450D01*
X014350Y006500D01*
X014200Y006500D01*
X014183Y006498D01*
X014166Y006494D01*
X014150Y006487D01*
X014136Y006477D01*
X014123Y006464D01*
X014113Y006450D01*
X014106Y006434D01*
X014102Y006417D01*
X014100Y006400D01*
X014100Y005800D01*
X014102Y005783D01*
X014106Y005766D01*
X014113Y005750D01*
X014123Y005736D01*
X014136Y005723D01*
X014150Y005713D01*
X014166Y005706D01*
X014183Y005702D01*
X014200Y005700D01*
X014350Y005700D01*
X014400Y005750D01*
X015800Y005750D01*
X015850Y005700D01*
X016000Y005700D01*
X016017Y005702D01*
X016034Y005706D01*
X016050Y005713D01*
X016064Y005723D01*
X016077Y005736D01*
X016087Y005750D01*
X016094Y005766D01*
X016098Y005783D01*
X016100Y005800D01*
X016100Y006400D01*
X016098Y006417D01*
X016094Y006434D01*
X016087Y006450D01*
X016077Y006464D01*
X016064Y006477D01*
X016050Y006487D01*
X016034Y006494D01*
X016017Y006498D01*
X016000Y006500D01*
X016000Y005000D02*
X015850Y005000D01*
X015800Y004950D01*
X014400Y004950D01*
X014350Y005000D01*
X014200Y005000D01*
X014183Y004998D01*
X014166Y004994D01*
X014150Y004987D01*
X014136Y004977D01*
X014123Y004964D01*
X014113Y004950D01*
X014106Y004934D01*
X014102Y004917D01*
X014100Y004900D01*
X014100Y004300D01*
X014102Y004283D01*
X014106Y004266D01*
X014113Y004250D01*
X014123Y004236D01*
X014136Y004223D01*
X014150Y004213D01*
X014166Y004206D01*
X014183Y004202D01*
X014200Y004200D01*
X014350Y004200D01*
X014400Y004250D01*
X015800Y004250D01*
X015850Y004200D01*
X016000Y004200D01*
X016017Y004202D01*
X016034Y004206D01*
X016050Y004213D01*
X016064Y004223D01*
X016077Y004236D01*
X016087Y004250D01*
X016094Y004266D01*
X016098Y004283D01*
X016100Y004300D01*
X016100Y004900D01*
X016098Y004917D01*
X016094Y004934D01*
X016087Y004950D01*
X016077Y004964D01*
X016064Y004977D01*
X016050Y004987D01*
X016034Y004994D01*
X016017Y004998D01*
X016000Y005000D01*
X016000Y003500D02*
X015850Y003500D01*
X015800Y003450D01*
X014400Y003450D01*
X014350Y003500D01*
X014200Y003500D01*
X014183Y003498D01*
X014166Y003494D01*
X014150Y003487D01*
X014136Y003477D01*
X014123Y003464D01*
X014113Y003450D01*
X014106Y003434D01*
X014102Y003417D01*
X014100Y003400D01*
X014100Y002800D01*
X014102Y002783D01*
X014106Y002766D01*
X014113Y002750D01*
X014123Y002736D01*
X014136Y002723D01*
X014150Y002713D01*
X014166Y002706D01*
X014183Y002702D01*
X014200Y002700D01*
X014350Y002700D01*
X014400Y002750D01*
X015800Y002750D01*
X015850Y002700D01*
X016000Y002700D01*
X016017Y002702D01*
X016034Y002706D01*
X016050Y002713D01*
X016064Y002723D01*
X016077Y002736D01*
X016087Y002750D01*
X016094Y002766D01*
X016098Y002783D01*
X016100Y002800D01*
X016100Y003400D01*
X016098Y003417D01*
X016094Y003434D01*
X016087Y003450D01*
X016077Y003464D01*
X016064Y003477D01*
X016050Y003487D01*
X016034Y003494D01*
X016017Y003498D01*
X016000Y003500D01*
X016000Y002000D02*
X015850Y002000D01*
X015800Y001950D01*
X014400Y001950D01*
X014350Y002000D01*
X014200Y002000D01*
X014183Y001998D01*
X014166Y001994D01*
X014150Y001987D01*
X014136Y001977D01*
X014123Y001964D01*
X014113Y001950D01*
X014106Y001934D01*
X014102Y001917D01*
X014100Y001900D01*
X014100Y001300D01*
X014102Y001283D01*
X014106Y001266D01*
X014113Y001250D01*
X014123Y001236D01*
X014136Y001223D01*
X014150Y001213D01*
X014166Y001206D01*
X014183Y001202D01*
X014200Y001200D01*
X014350Y001200D01*
X014400Y001250D01*
X015800Y001250D01*
X015850Y001200D01*
X016000Y001200D01*
X016017Y001202D01*
X016034Y001206D01*
X016050Y001213D01*
X016064Y001223D01*
X016077Y001236D01*
X016087Y001250D01*
X016094Y001266D01*
X016098Y001283D01*
X016100Y001300D01*
X016100Y001900D01*
X016098Y001917D01*
X016094Y001934D01*
X016087Y001950D01*
X016077Y001964D01*
X016064Y001977D01*
X016050Y001987D01*
X016034Y001994D01*
X016017Y001998D01*
X016000Y002000D01*
X018956Y002600D02*
X019956Y002600D01*
X019956Y003600D01*
X019956Y004600D01*
X018956Y004600D01*
X018956Y003600D01*
X018956Y002600D01*
X018956Y003600D02*
X019956Y003600D01*
X021449Y002271D02*
X021449Y001630D01*
X021449Y001844D02*
X021769Y001844D01*
X021876Y001950D01*
X021876Y002164D01*
X021769Y002271D01*
X021449Y002271D01*
X022200Y002057D02*
X022414Y002057D01*
X022520Y001950D01*
X022520Y001630D01*
X022200Y001630D01*
X022093Y001737D01*
X022200Y001844D01*
X022520Y001844D01*
X022738Y001737D02*
X022738Y002057D01*
X022738Y001737D02*
X022845Y001630D01*
X023165Y001630D01*
X023165Y002057D01*
X023383Y002271D02*
X023489Y002271D01*
X023489Y001630D01*
X023383Y001630D02*
X023596Y001630D01*
X023812Y001737D02*
X023919Y001630D01*
X024133Y001630D01*
X024239Y001737D01*
X024239Y001950D01*
X024133Y002057D01*
X023919Y002057D01*
X023812Y001950D01*
X023812Y001737D01*
X024457Y001844D02*
X024777Y001844D01*
X024884Y001950D01*
X024884Y002164D01*
X024777Y002271D01*
X024457Y002271D01*
X024457Y001630D01*
X024670Y001844D02*
X024884Y001630D01*
X025101Y001630D02*
X025422Y001630D01*
X025528Y001737D01*
X025528Y001844D01*
X025422Y001950D01*
X025101Y001950D01*
X025101Y001630D02*
X025101Y002271D01*
X025422Y002271D01*
X025528Y002164D01*
X025528Y002057D01*
X025422Y001950D01*
X025100Y005313D02*
X025102Y005376D01*
X025108Y005438D01*
X025118Y005500D01*
X025131Y005562D01*
X025149Y005622D01*
X025170Y005681D01*
X025195Y005739D01*
X025224Y005795D01*
X025256Y005849D01*
X025291Y005901D01*
X025329Y005950D01*
X025371Y005998D01*
X025415Y006042D01*
X025463Y006084D01*
X025512Y006122D01*
X025564Y006157D01*
X025618Y006189D01*
X025674Y006218D01*
X025732Y006243D01*
X025791Y006264D01*
X025851Y006282D01*
X025913Y006295D01*
X025975Y006305D01*
X026037Y006311D01*
X026100Y006313D01*
X026163Y006311D01*
X026225Y006305D01*
X026287Y006295D01*
X026349Y006282D01*
X026409Y006264D01*
X026468Y006243D01*
X026526Y006218D01*
X026582Y006189D01*
X026636Y006157D01*
X026688Y006122D01*
X026737Y006084D01*
X026785Y006042D01*
X026829Y005998D01*
X026871Y005950D01*
X026909Y005901D01*
X026944Y005849D01*
X026976Y005795D01*
X027005Y005739D01*
X027030Y005681D01*
X027051Y005622D01*
X027069Y005562D01*
X027082Y005500D01*
X027092Y005438D01*
X027098Y005376D01*
X027100Y005313D01*
X027098Y005250D01*
X027092Y005188D01*
X027082Y005126D01*
X027069Y005064D01*
X027051Y005004D01*
X027030Y004945D01*
X027005Y004887D01*
X026976Y004831D01*
X026944Y004777D01*
X026909Y004725D01*
X026871Y004676D01*
X026829Y004628D01*
X026785Y004584D01*
X026737Y004542D01*
X026688Y004504D01*
X026636Y004469D01*
X026582Y004437D01*
X026526Y004408D01*
X026468Y004383D01*
X026409Y004362D01*
X026349Y004344D01*
X026287Y004331D01*
X026225Y004321D01*
X026163Y004315D01*
X026100Y004313D01*
X026037Y004315D01*
X025975Y004321D01*
X025913Y004331D01*
X025851Y004344D01*
X025791Y004362D01*
X025732Y004383D01*
X025674Y004408D01*
X025618Y004437D01*
X025564Y004469D01*
X025512Y004504D01*
X025463Y004542D01*
X025415Y004584D01*
X025371Y004628D01*
X025329Y004676D01*
X025291Y004725D01*
X025256Y004777D01*
X025224Y004831D01*
X025195Y004887D01*
X025170Y004945D01*
X025149Y005004D01*
X025131Y005064D01*
X025118Y005126D01*
X025108Y005188D01*
X025102Y005250D01*
X025100Y005313D01*
X025100Y008313D02*
X025102Y008376D01*
X025108Y008438D01*
X025118Y008500D01*
X025131Y008562D01*
X025149Y008622D01*
X025170Y008681D01*
X025195Y008739D01*
X025224Y008795D01*
X025256Y008849D01*
X025291Y008901D01*
X025329Y008950D01*
X025371Y008998D01*
X025415Y009042D01*
X025463Y009084D01*
X025512Y009122D01*
X025564Y009157D01*
X025618Y009189D01*
X025674Y009218D01*
X025732Y009243D01*
X025791Y009264D01*
X025851Y009282D01*
X025913Y009295D01*
X025975Y009305D01*
X026037Y009311D01*
X026100Y009313D01*
X026163Y009311D01*
X026225Y009305D01*
X026287Y009295D01*
X026349Y009282D01*
X026409Y009264D01*
X026468Y009243D01*
X026526Y009218D01*
X026582Y009189D01*
X026636Y009157D01*
X026688Y009122D01*
X026737Y009084D01*
X026785Y009042D01*
X026829Y008998D01*
X026871Y008950D01*
X026909Y008901D01*
X026944Y008849D01*
X026976Y008795D01*
X027005Y008739D01*
X027030Y008681D01*
X027051Y008622D01*
X027069Y008562D01*
X027082Y008500D01*
X027092Y008438D01*
X027098Y008376D01*
X027100Y008313D01*
X027098Y008250D01*
X027092Y008188D01*
X027082Y008126D01*
X027069Y008064D01*
X027051Y008004D01*
X027030Y007945D01*
X027005Y007887D01*
X026976Y007831D01*
X026944Y007777D01*
X026909Y007725D01*
X026871Y007676D01*
X026829Y007628D01*
X026785Y007584D01*
X026737Y007542D01*
X026688Y007504D01*
X026636Y007469D01*
X026582Y007437D01*
X026526Y007408D01*
X026468Y007383D01*
X026409Y007362D01*
X026349Y007344D01*
X026287Y007331D01*
X026225Y007321D01*
X026163Y007315D01*
X026100Y007313D01*
X026037Y007315D01*
X025975Y007321D01*
X025913Y007331D01*
X025851Y007344D01*
X025791Y007362D01*
X025732Y007383D01*
X025674Y007408D01*
X025618Y007437D01*
X025564Y007469D01*
X025512Y007504D01*
X025463Y007542D01*
X025415Y007584D01*
X025371Y007628D01*
X025329Y007676D01*
X025291Y007725D01*
X025256Y007777D01*
X025224Y007831D01*
X025195Y007887D01*
X025170Y007945D01*
X025149Y008004D01*
X025131Y008064D01*
X025118Y008126D01*
X025108Y008188D01*
X025102Y008250D01*
X025100Y008313D01*
X025100Y011313D02*
X025102Y011376D01*
X025108Y011438D01*
X025118Y011500D01*
X025131Y011562D01*
X025149Y011622D01*
X025170Y011681D01*
X025195Y011739D01*
X025224Y011795D01*
X025256Y011849D01*
X025291Y011901D01*
X025329Y011950D01*
X025371Y011998D01*
X025415Y012042D01*
X025463Y012084D01*
X025512Y012122D01*
X025564Y012157D01*
X025618Y012189D01*
X025674Y012218D01*
X025732Y012243D01*
X025791Y012264D01*
X025851Y012282D01*
X025913Y012295D01*
X025975Y012305D01*
X026037Y012311D01*
X026100Y012313D01*
X026163Y012311D01*
X026225Y012305D01*
X026287Y012295D01*
X026349Y012282D01*
X026409Y012264D01*
X026468Y012243D01*
X026526Y012218D01*
X026582Y012189D01*
X026636Y012157D01*
X026688Y012122D01*
X026737Y012084D01*
X026785Y012042D01*
X026829Y011998D01*
X026871Y011950D01*
X026909Y011901D01*
X026944Y011849D01*
X026976Y011795D01*
X027005Y011739D01*
X027030Y011681D01*
X027051Y011622D01*
X027069Y011562D01*
X027082Y011500D01*
X027092Y011438D01*
X027098Y011376D01*
X027100Y011313D01*
X027098Y011250D01*
X027092Y011188D01*
X027082Y011126D01*
X027069Y011064D01*
X027051Y011004D01*
X027030Y010945D01*
X027005Y010887D01*
X026976Y010831D01*
X026944Y010777D01*
X026909Y010725D01*
X026871Y010676D01*
X026829Y010628D01*
X026785Y010584D01*
X026737Y010542D01*
X026688Y010504D01*
X026636Y010469D01*
X026582Y010437D01*
X026526Y010408D01*
X026468Y010383D01*
X026409Y010362D01*
X026349Y010344D01*
X026287Y010331D01*
X026225Y010321D01*
X026163Y010315D01*
X026100Y010313D01*
X026037Y010315D01*
X025975Y010321D01*
X025913Y010331D01*
X025851Y010344D01*
X025791Y010362D01*
X025732Y010383D01*
X025674Y010408D01*
X025618Y010437D01*
X025564Y010469D01*
X025512Y010504D01*
X025463Y010542D01*
X025415Y010584D01*
X025371Y010628D01*
X025329Y010676D01*
X025291Y010725D01*
X025256Y010777D01*
X025224Y010831D01*
X025195Y010887D01*
X025170Y010945D01*
X025149Y011004D01*
X025131Y011064D01*
X025118Y011126D01*
X025108Y011188D01*
X025102Y011250D01*
X025100Y011313D01*
X024882Y013361D02*
X023942Y013361D01*
X023942Y019261D01*
X024882Y019261D01*
X027482Y019261D01*
X027562Y019261D01*
X027562Y013361D01*
X027482Y013361D01*
X024882Y013361D01*
X024882Y013991D01*
X024882Y014691D02*
X024882Y015961D01*
X024882Y016661D02*
X024882Y017931D01*
X024882Y018631D02*
X024882Y019261D01*
X024882Y019861D02*
X027482Y019861D01*
X027482Y025761D01*
X027562Y025761D01*
X027562Y019861D01*
X027482Y019861D01*
X027482Y019261D02*
X027482Y013361D01*
X026762Y014341D02*
X026764Y014369D01*
X026770Y014396D01*
X026779Y014422D01*
X026792Y014447D01*
X026809Y014470D01*
X026828Y014490D01*
X026850Y014507D01*
X026874Y014521D01*
X026900Y014531D01*
X026927Y014538D01*
X026955Y014541D01*
X026983Y014540D01*
X027010Y014535D01*
X027037Y014526D01*
X027062Y014514D01*
X027085Y014499D01*
X027106Y014480D01*
X027124Y014459D01*
X027139Y014435D01*
X027150Y014409D01*
X027158Y014383D01*
X027162Y014355D01*
X027162Y014327D01*
X027158Y014299D01*
X027150Y014273D01*
X027139Y014247D01*
X027124Y014223D01*
X027106Y014202D01*
X027085Y014183D01*
X027062Y014168D01*
X027037Y014156D01*
X027010Y014147D01*
X026983Y014142D01*
X026955Y014141D01*
X026927Y014144D01*
X026900Y014151D01*
X026874Y014161D01*
X026850Y014175D01*
X026828Y014192D01*
X026809Y014212D01*
X026792Y014235D01*
X026779Y014260D01*
X026770Y014286D01*
X026764Y014313D01*
X026762Y014341D01*
X026762Y016311D02*
X026764Y016339D01*
X026770Y016366D01*
X026779Y016392D01*
X026792Y016417D01*
X026809Y016440D01*
X026828Y016460D01*
X026850Y016477D01*
X026874Y016491D01*
X026900Y016501D01*
X026927Y016508D01*
X026955Y016511D01*
X026983Y016510D01*
X027010Y016505D01*
X027037Y016496D01*
X027062Y016484D01*
X027085Y016469D01*
X027106Y016450D01*
X027124Y016429D01*
X027139Y016405D01*
X027150Y016379D01*
X027158Y016353D01*
X027162Y016325D01*
X027162Y016297D01*
X027158Y016269D01*
X027150Y016243D01*
X027139Y016217D01*
X027124Y016193D01*
X027106Y016172D01*
X027085Y016153D01*
X027062Y016138D01*
X027037Y016126D01*
X027010Y016117D01*
X026983Y016112D01*
X026955Y016111D01*
X026927Y016114D01*
X026900Y016121D01*
X026874Y016131D01*
X026850Y016145D01*
X026828Y016162D01*
X026809Y016182D01*
X026792Y016205D01*
X026779Y016230D01*
X026770Y016256D01*
X026764Y016283D01*
X026762Y016311D01*
X026762Y018281D02*
X026764Y018309D01*
X026770Y018336D01*
X026779Y018362D01*
X026792Y018387D01*
X026809Y018410D01*
X026828Y018430D01*
X026850Y018447D01*
X026874Y018461D01*
X026900Y018471D01*
X026927Y018478D01*
X026955Y018481D01*
X026983Y018480D01*
X027010Y018475D01*
X027037Y018466D01*
X027062Y018454D01*
X027085Y018439D01*
X027106Y018420D01*
X027124Y018399D01*
X027139Y018375D01*
X027150Y018349D01*
X027158Y018323D01*
X027162Y018295D01*
X027162Y018267D01*
X027158Y018239D01*
X027150Y018213D01*
X027139Y018187D01*
X027124Y018163D01*
X027106Y018142D01*
X027085Y018123D01*
X027062Y018108D01*
X027037Y018096D01*
X027010Y018087D01*
X026983Y018082D01*
X026955Y018081D01*
X026927Y018084D01*
X026900Y018091D01*
X026874Y018101D01*
X026850Y018115D01*
X026828Y018132D01*
X026809Y018152D01*
X026792Y018175D01*
X026779Y018200D01*
X026770Y018226D01*
X026764Y018253D01*
X026762Y018281D01*
X024882Y019861D02*
X023942Y019861D01*
X023942Y025761D01*
X024882Y025761D01*
X027482Y025761D01*
X027490Y026347D02*
X024890Y026347D01*
X023950Y026347D01*
X023950Y030277D01*
X024890Y030277D01*
X027490Y030277D01*
X027570Y030277D01*
X027570Y026347D01*
X027490Y026347D01*
X027490Y030277D01*
X026770Y029297D02*
X026772Y029325D01*
X026778Y029352D01*
X026787Y029378D01*
X026800Y029403D01*
X026817Y029426D01*
X026836Y029446D01*
X026858Y029463D01*
X026882Y029477D01*
X026908Y029487D01*
X026935Y029494D01*
X026963Y029497D01*
X026991Y029496D01*
X027018Y029491D01*
X027045Y029482D01*
X027070Y029470D01*
X027093Y029455D01*
X027114Y029436D01*
X027132Y029415D01*
X027147Y029391D01*
X027158Y029365D01*
X027166Y029339D01*
X027170Y029311D01*
X027170Y029283D01*
X027166Y029255D01*
X027158Y029229D01*
X027147Y029203D01*
X027132Y029179D01*
X027114Y029158D01*
X027093Y029139D01*
X027070Y029124D01*
X027045Y029112D01*
X027018Y029103D01*
X026991Y029098D01*
X026963Y029097D01*
X026935Y029100D01*
X026908Y029107D01*
X026882Y029117D01*
X026858Y029131D01*
X026836Y029148D01*
X026817Y029168D01*
X026800Y029191D01*
X026787Y029216D01*
X026778Y029242D01*
X026772Y029269D01*
X026770Y029297D01*
X024890Y029647D02*
X024890Y030277D01*
X024890Y028947D02*
X024890Y027677D01*
X024890Y026977D02*
X024890Y026347D01*
X024882Y025761D02*
X024882Y025131D01*
X024882Y024431D02*
X024882Y023161D01*
X024882Y022461D02*
X024882Y021191D01*
X024882Y020491D02*
X024882Y019861D01*
X026762Y020841D02*
X026764Y020869D01*
X026770Y020896D01*
X026779Y020922D01*
X026792Y020947D01*
X026809Y020970D01*
X026828Y020990D01*
X026850Y021007D01*
X026874Y021021D01*
X026900Y021031D01*
X026927Y021038D01*
X026955Y021041D01*
X026983Y021040D01*
X027010Y021035D01*
X027037Y021026D01*
X027062Y021014D01*
X027085Y020999D01*
X027106Y020980D01*
X027124Y020959D01*
X027139Y020935D01*
X027150Y020909D01*
X027158Y020883D01*
X027162Y020855D01*
X027162Y020827D01*
X027158Y020799D01*
X027150Y020773D01*
X027139Y020747D01*
X027124Y020723D01*
X027106Y020702D01*
X027085Y020683D01*
X027062Y020668D01*
X027037Y020656D01*
X027010Y020647D01*
X026983Y020642D01*
X026955Y020641D01*
X026927Y020644D01*
X026900Y020651D01*
X026874Y020661D01*
X026850Y020675D01*
X026828Y020692D01*
X026809Y020712D01*
X026792Y020735D01*
X026779Y020760D01*
X026770Y020786D01*
X026764Y020813D01*
X026762Y020841D01*
X026762Y022811D02*
X026764Y022839D01*
X026770Y022866D01*
X026779Y022892D01*
X026792Y022917D01*
X026809Y022940D01*
X026828Y022960D01*
X026850Y022977D01*
X026874Y022991D01*
X026900Y023001D01*
X026927Y023008D01*
X026955Y023011D01*
X026983Y023010D01*
X027010Y023005D01*
X027037Y022996D01*
X027062Y022984D01*
X027085Y022969D01*
X027106Y022950D01*
X027124Y022929D01*
X027139Y022905D01*
X027150Y022879D01*
X027158Y022853D01*
X027162Y022825D01*
X027162Y022797D01*
X027158Y022769D01*
X027150Y022743D01*
X027139Y022717D01*
X027124Y022693D01*
X027106Y022672D01*
X027085Y022653D01*
X027062Y022638D01*
X027037Y022626D01*
X027010Y022617D01*
X026983Y022612D01*
X026955Y022611D01*
X026927Y022614D01*
X026900Y022621D01*
X026874Y022631D01*
X026850Y022645D01*
X026828Y022662D01*
X026809Y022682D01*
X026792Y022705D01*
X026779Y022730D01*
X026770Y022756D01*
X026764Y022783D01*
X026762Y022811D01*
X026762Y024781D02*
X026764Y024809D01*
X026770Y024836D01*
X026779Y024862D01*
X026792Y024887D01*
X026809Y024910D01*
X026828Y024930D01*
X026850Y024947D01*
X026874Y024961D01*
X026900Y024971D01*
X026927Y024978D01*
X026955Y024981D01*
X026983Y024980D01*
X027010Y024975D01*
X027037Y024966D01*
X027062Y024954D01*
X027085Y024939D01*
X027106Y024920D01*
X027124Y024899D01*
X027139Y024875D01*
X027150Y024849D01*
X027158Y024823D01*
X027162Y024795D01*
X027162Y024767D01*
X027158Y024739D01*
X027150Y024713D01*
X027139Y024687D01*
X027124Y024663D01*
X027106Y024642D01*
X027085Y024623D01*
X027062Y024608D01*
X027037Y024596D01*
X027010Y024587D01*
X026983Y024582D01*
X026955Y024581D01*
X026927Y024584D01*
X026900Y024591D01*
X026874Y024601D01*
X026850Y024615D01*
X026828Y024632D01*
X026809Y024652D01*
X026792Y024675D01*
X026779Y024700D01*
X026770Y024726D01*
X026764Y024753D01*
X026762Y024781D01*
X026770Y027327D02*
X026772Y027355D01*
X026778Y027382D01*
X026787Y027408D01*
X026800Y027433D01*
X026817Y027456D01*
X026836Y027476D01*
X026858Y027493D01*
X026882Y027507D01*
X026908Y027517D01*
X026935Y027524D01*
X026963Y027527D01*
X026991Y027526D01*
X027018Y027521D01*
X027045Y027512D01*
X027070Y027500D01*
X027093Y027485D01*
X027114Y027466D01*
X027132Y027445D01*
X027147Y027421D01*
X027158Y027395D01*
X027166Y027369D01*
X027170Y027341D01*
X027170Y027313D01*
X027166Y027285D01*
X027158Y027259D01*
X027147Y027233D01*
X027132Y027209D01*
X027114Y027188D01*
X027093Y027169D01*
X027070Y027154D01*
X027045Y027142D01*
X027018Y027133D01*
X026991Y027128D01*
X026963Y027127D01*
X026935Y027130D01*
X026908Y027137D01*
X026882Y027147D01*
X026858Y027161D01*
X026836Y027178D01*
X026817Y027198D01*
X026800Y027221D01*
X026787Y027246D01*
X026778Y027272D01*
X026772Y027299D01*
X026770Y027327D01*
X020100Y028050D02*
X015200Y028050D01*
X015200Y028400D01*
X014600Y028400D01*
X014600Y028050D01*
X013850Y028050D01*
X013850Y032150D01*
X014600Y032150D01*
X014600Y031800D01*
X015200Y031800D01*
X015200Y032150D01*
X020100Y032150D01*
X020100Y028050D01*
X014490Y030100D02*
X014492Y030153D01*
X014498Y030206D01*
X014508Y030258D01*
X014522Y030309D01*
X014539Y030359D01*
X014560Y030408D01*
X014585Y030455D01*
X014613Y030500D01*
X014645Y030543D01*
X014680Y030583D01*
X014717Y030620D01*
X014757Y030655D01*
X014800Y030687D01*
X014845Y030715D01*
X014892Y030740D01*
X014941Y030761D01*
X014991Y030778D01*
X015042Y030792D01*
X015094Y030802D01*
X015147Y030808D01*
X015200Y030810D01*
X015253Y030808D01*
X015306Y030802D01*
X015358Y030792D01*
X015409Y030778D01*
X015459Y030761D01*
X015508Y030740D01*
X015555Y030715D01*
X015600Y030687D01*
X015643Y030655D01*
X015683Y030620D01*
X015720Y030583D01*
X015755Y030543D01*
X015787Y030500D01*
X015815Y030455D01*
X015840Y030408D01*
X015861Y030359D01*
X015878Y030309D01*
X015892Y030258D01*
X015902Y030206D01*
X015908Y030153D01*
X015910Y030100D01*
X015908Y030047D01*
X015902Y029994D01*
X015892Y029942D01*
X015878Y029891D01*
X015861Y029841D01*
X015840Y029792D01*
X015815Y029745D01*
X015787Y029700D01*
X015755Y029657D01*
X015720Y029617D01*
X015683Y029580D01*
X015643Y029545D01*
X015600Y029513D01*
X015555Y029485D01*
X015508Y029460D01*
X015459Y029439D01*
X015409Y029422D01*
X015358Y029408D01*
X015306Y029398D01*
X015253Y029392D01*
X015200Y029390D01*
X015147Y029392D01*
X015094Y029398D01*
X015042Y029408D01*
X014991Y029422D01*
X014941Y029439D01*
X014892Y029460D01*
X014845Y029485D01*
X014800Y029513D01*
X014757Y029545D01*
X014717Y029580D01*
X014680Y029617D01*
X014645Y029657D01*
X014613Y029700D01*
X014585Y029745D01*
X014560Y029792D01*
X014539Y029841D01*
X014522Y029891D01*
X014508Y029942D01*
X014498Y029994D01*
X014492Y030047D01*
X014490Y030100D01*
X011250Y028600D02*
X008950Y028600D01*
X008950Y031600D01*
X009700Y031600D01*
X009702Y031561D01*
X009708Y031522D01*
X009717Y031484D01*
X009730Y031447D01*
X009747Y031411D01*
X009767Y031378D01*
X009791Y031346D01*
X009817Y031317D01*
X009846Y031291D01*
X009878Y031267D01*
X009911Y031247D01*
X009947Y031230D01*
X009984Y031217D01*
X010022Y031208D01*
X010061Y031202D01*
X010100Y031200D01*
X010139Y031202D01*
X010178Y031208D01*
X010216Y031217D01*
X010253Y031230D01*
X010289Y031247D01*
X010322Y031267D01*
X010354Y031291D01*
X010383Y031317D01*
X010409Y031346D01*
X010433Y031378D01*
X010453Y031411D01*
X010470Y031447D01*
X010483Y031484D01*
X010492Y031522D01*
X010498Y031561D01*
X010500Y031600D01*
X011250Y031600D01*
X011250Y028600D01*
X007066Y029450D02*
X007066Y030390D01*
X007066Y032990D01*
X003136Y032990D01*
X003136Y033070D01*
X007066Y033070D01*
X007066Y032990D01*
X005886Y032470D02*
X005888Y032498D01*
X005894Y032525D01*
X005903Y032551D01*
X005916Y032576D01*
X005933Y032599D01*
X005952Y032619D01*
X005974Y032636D01*
X005998Y032650D01*
X006024Y032660D01*
X006051Y032667D01*
X006079Y032670D01*
X006107Y032669D01*
X006134Y032664D01*
X006161Y032655D01*
X006186Y032643D01*
X006209Y032628D01*
X006230Y032609D01*
X006248Y032588D01*
X006263Y032564D01*
X006274Y032538D01*
X006282Y032512D01*
X006286Y032484D01*
X006286Y032456D01*
X006282Y032428D01*
X006274Y032402D01*
X006263Y032376D01*
X006248Y032352D01*
X006230Y032331D01*
X006209Y032312D01*
X006186Y032297D01*
X006161Y032285D01*
X006134Y032276D01*
X006107Y032271D01*
X006079Y032270D01*
X006051Y032273D01*
X006024Y032280D01*
X005998Y032290D01*
X005974Y032304D01*
X005952Y032321D01*
X005933Y032341D01*
X005916Y032364D01*
X005903Y032389D01*
X005894Y032415D01*
X005888Y032442D01*
X005886Y032470D01*
X003916Y032470D02*
X003918Y032498D01*
X003924Y032525D01*
X003933Y032551D01*
X003946Y032576D01*
X003963Y032599D01*
X003982Y032619D01*
X004004Y032636D01*
X004028Y032650D01*
X004054Y032660D01*
X004081Y032667D01*
X004109Y032670D01*
X004137Y032669D01*
X004164Y032664D01*
X004191Y032655D01*
X004216Y032643D01*
X004239Y032628D01*
X004260Y032609D01*
X004278Y032588D01*
X004293Y032564D01*
X004304Y032538D01*
X004312Y032512D01*
X004316Y032484D01*
X004316Y032456D01*
X004312Y032428D01*
X004304Y032402D01*
X004293Y032376D01*
X004278Y032352D01*
X004260Y032331D01*
X004239Y032312D01*
X004216Y032297D01*
X004191Y032285D01*
X004164Y032276D01*
X004137Y032271D01*
X004109Y032270D01*
X004081Y032273D01*
X004054Y032280D01*
X004028Y032290D01*
X004004Y032304D01*
X003982Y032321D01*
X003963Y032341D01*
X003946Y032364D01*
X003933Y032389D01*
X003924Y032415D01*
X003918Y032442D01*
X003916Y032470D01*
X003136Y032990D02*
X003136Y030390D01*
X003766Y030390D01*
X003136Y030390D02*
X003136Y029450D01*
X007066Y029450D01*
X007066Y030390D02*
X006436Y030390D01*
X005736Y030390D02*
X004466Y030390D01*
X002890Y021200D02*
X002892Y021253D01*
X002898Y021306D01*
X002908Y021358D01*
X002922Y021409D01*
X002939Y021459D01*
X002960Y021508D01*
X002985Y021555D01*
X003013Y021600D01*
X003045Y021643D01*
X003080Y021683D01*
X003117Y021720D01*
X003157Y021755D01*
X003200Y021787D01*
X003245Y021815D01*
X003292Y021840D01*
X003341Y021861D01*
X003391Y021878D01*
X003442Y021892D01*
X003494Y021902D01*
X003547Y021908D01*
X003600Y021910D01*
X003653Y021908D01*
X003706Y021902D01*
X003758Y021892D01*
X003809Y021878D01*
X003859Y021861D01*
X003908Y021840D01*
X003955Y021815D01*
X004000Y021787D01*
X004043Y021755D01*
X004083Y021720D01*
X004120Y021683D01*
X004155Y021643D01*
X004187Y021600D01*
X004215Y021555D01*
X004240Y021508D01*
X004261Y021459D01*
X004278Y021409D01*
X004292Y021358D01*
X004302Y021306D01*
X004308Y021253D01*
X004310Y021200D01*
X004308Y021147D01*
X004302Y021094D01*
X004292Y021042D01*
X004278Y020991D01*
X004261Y020941D01*
X004240Y020892D01*
X004215Y020845D01*
X004187Y020800D01*
X004155Y020757D01*
X004120Y020717D01*
X004083Y020680D01*
X004043Y020645D01*
X004000Y020613D01*
X003955Y020585D01*
X003908Y020560D01*
X003859Y020539D01*
X003809Y020522D01*
X003758Y020508D01*
X003706Y020498D01*
X003653Y020492D01*
X003600Y020490D01*
X003547Y020492D01*
X003494Y020498D01*
X003442Y020508D01*
X003391Y020522D01*
X003341Y020539D01*
X003292Y020560D01*
X003245Y020585D01*
X003200Y020613D01*
X003157Y020645D01*
X003117Y020680D01*
X003080Y020717D01*
X003045Y020757D01*
X003013Y020800D01*
X002985Y020845D01*
X002960Y020892D01*
X002939Y020941D01*
X002922Y020991D01*
X002908Y021042D01*
X002898Y021094D01*
X002892Y021147D01*
X002890Y021200D01*
X002850Y018600D02*
X001850Y018600D01*
X001850Y017600D01*
X001850Y016600D01*
X002850Y016600D01*
X002850Y017600D01*
X002850Y018600D01*
X002850Y017600D02*
X001850Y017600D01*
X002350Y015600D02*
X000850Y015600D01*
X000600Y015350D01*
X000600Y014850D01*
X000850Y014600D01*
X002350Y014600D01*
X002600Y014350D01*
X002600Y013850D01*
X002350Y013600D01*
X002600Y013350D01*
X002600Y012850D01*
X002350Y012600D01*
X000850Y012600D01*
X000600Y012850D01*
X000600Y013350D01*
X000850Y013600D01*
X002350Y013600D01*
X002350Y014600D02*
X002600Y014850D01*
X002600Y015350D01*
X002350Y015600D01*
X000850Y014600D02*
X000600Y014350D01*
X000600Y013850D01*
X000850Y013600D01*
X014490Y023600D02*
X014492Y023653D01*
X014498Y023706D01*
X014508Y023758D01*
X014522Y023809D01*
X014539Y023859D01*
X014560Y023908D01*
X014585Y023955D01*
X014613Y024000D01*
X014645Y024043D01*
X014680Y024083D01*
X014717Y024120D01*
X014757Y024155D01*
X014800Y024187D01*
X014845Y024215D01*
X014892Y024240D01*
X014941Y024261D01*
X014991Y024278D01*
X015042Y024292D01*
X015094Y024302D01*
X015147Y024308D01*
X015200Y024310D01*
X015253Y024308D01*
X015306Y024302D01*
X015358Y024292D01*
X015409Y024278D01*
X015459Y024261D01*
X015508Y024240D01*
X015555Y024215D01*
X015600Y024187D01*
X015643Y024155D01*
X015683Y024120D01*
X015720Y024083D01*
X015755Y024043D01*
X015787Y024000D01*
X015815Y023955D01*
X015840Y023908D01*
X015861Y023859D01*
X015878Y023809D01*
X015892Y023758D01*
X015902Y023706D01*
X015908Y023653D01*
X015910Y023600D01*
X015908Y023547D01*
X015902Y023494D01*
X015892Y023442D01*
X015878Y023391D01*
X015861Y023341D01*
X015840Y023292D01*
X015815Y023245D01*
X015787Y023200D01*
X015755Y023157D01*
X015720Y023117D01*
X015683Y023080D01*
X015643Y023045D01*
X015600Y023013D01*
X015555Y022985D01*
X015508Y022960D01*
X015459Y022939D01*
X015409Y022922D01*
X015358Y022908D01*
X015306Y022898D01*
X015253Y022892D01*
X015200Y022890D01*
X015147Y022892D01*
X015094Y022898D01*
X015042Y022908D01*
X014991Y022922D01*
X014941Y022939D01*
X014892Y022960D01*
X014845Y022985D01*
X014800Y023013D01*
X014757Y023045D01*
X014717Y023080D01*
X014680Y023117D01*
X014645Y023157D01*
X014613Y023200D01*
X014585Y023245D01*
X014560Y023292D01*
X014539Y023341D01*
X014522Y023391D01*
X014508Y023442D01*
X014498Y023494D01*
X014492Y023547D01*
X014490Y023600D01*
X019450Y017550D02*
X019600Y017550D01*
X019650Y017500D01*
X021550Y017500D01*
X021600Y017550D01*
X021750Y017550D01*
X021767Y017548D01*
X021784Y017544D01*
X021800Y017537D01*
X021814Y017527D01*
X021827Y017514D01*
X021837Y017500D01*
X021844Y017484D01*
X021848Y017467D01*
X021850Y017450D01*
X021850Y016750D01*
X021848Y016733D01*
X021844Y016716D01*
X021837Y016700D01*
X021827Y016686D01*
X021814Y016673D01*
X021800Y016663D01*
X021784Y016656D01*
X021767Y016652D01*
X021750Y016650D01*
X021600Y016650D01*
X021550Y016700D01*
X019650Y016700D01*
X019600Y016650D01*
X019450Y016650D01*
X019433Y016652D01*
X019416Y016656D01*
X019400Y016663D01*
X019386Y016673D01*
X019373Y016686D01*
X019363Y016700D01*
X019356Y016716D01*
X019352Y016733D01*
X019350Y016750D01*
X019350Y017450D01*
X019352Y017467D01*
X019356Y017484D01*
X019363Y017500D01*
X019373Y017514D01*
X019386Y017527D01*
X019400Y017537D01*
X019416Y017544D01*
X019433Y017548D01*
X019450Y017550D01*
X019450Y016050D02*
X019600Y016050D01*
X019650Y016000D01*
X021550Y016000D01*
X021600Y016050D01*
X021750Y016050D01*
X021767Y016048D01*
X021784Y016044D01*
X021800Y016037D01*
X021814Y016027D01*
X021827Y016014D01*
X021837Y016000D01*
X021844Y015984D01*
X021848Y015967D01*
X021850Y015950D01*
X021850Y015250D01*
X021848Y015233D01*
X021844Y015216D01*
X021837Y015200D01*
X021827Y015186D01*
X021814Y015173D01*
X021800Y015163D01*
X021784Y015156D01*
X021767Y015152D01*
X021750Y015150D01*
X021600Y015150D01*
X021550Y015200D01*
X019650Y015200D01*
X019600Y015150D01*
X019450Y015150D01*
X019433Y015152D01*
X019416Y015156D01*
X019400Y015163D01*
X019386Y015173D01*
X019373Y015186D01*
X019363Y015200D01*
X019356Y015216D01*
X019352Y015233D01*
X019350Y015250D01*
X019350Y015950D01*
X019352Y015967D01*
X019356Y015984D01*
X019363Y016000D01*
X019373Y016014D01*
X019386Y016027D01*
X019400Y016037D01*
X019416Y016044D01*
X019433Y016048D01*
X019450Y016050D01*
X019450Y014550D02*
X019600Y014550D01*
X019650Y014500D01*
X021550Y014500D01*
X021600Y014550D01*
X021750Y014550D01*
X021767Y014548D01*
X021784Y014544D01*
X021800Y014537D01*
X021814Y014527D01*
X021827Y014514D01*
X021837Y014500D01*
X021844Y014484D01*
X021848Y014467D01*
X021850Y014450D01*
X021850Y013750D01*
X021848Y013733D01*
X021844Y013716D01*
X021837Y013700D01*
X021827Y013686D01*
X021814Y013673D01*
X021800Y013663D01*
X021784Y013656D01*
X021767Y013652D01*
X021750Y013650D01*
X021600Y013650D01*
X021550Y013700D01*
X019650Y013700D01*
X019600Y013650D01*
X019450Y013650D01*
X019433Y013652D01*
X019416Y013656D01*
X019400Y013663D01*
X019386Y013673D01*
X019373Y013686D01*
X019363Y013700D01*
X019356Y013716D01*
X019352Y013733D01*
X019350Y013750D01*
X019350Y014450D01*
X019352Y014467D01*
X019356Y014484D01*
X019363Y014500D01*
X019373Y014514D01*
X019386Y014527D01*
X019400Y014537D01*
X019416Y014544D01*
X019433Y014548D01*
X019450Y014550D01*
X019450Y013050D02*
X019600Y013050D01*
X019650Y013000D01*
X021550Y013000D01*
X021600Y013050D01*
X021750Y013050D01*
X021767Y013048D01*
X021784Y013044D01*
X021800Y013037D01*
X021814Y013027D01*
X021827Y013014D01*
X021837Y013000D01*
X021844Y012984D01*
X021848Y012967D01*
X021850Y012950D01*
X021850Y012250D01*
X021848Y012233D01*
X021844Y012216D01*
X021837Y012200D01*
X021827Y012186D01*
X021814Y012173D01*
X021800Y012163D01*
X021784Y012156D01*
X021767Y012152D01*
X021750Y012150D01*
X021600Y012150D01*
X021550Y012200D01*
X019650Y012200D01*
X019600Y012150D01*
X019450Y012150D01*
X019433Y012152D01*
X019416Y012156D01*
X019400Y012163D01*
X019386Y012173D01*
X019373Y012186D01*
X019363Y012200D01*
X019356Y012216D01*
X019352Y012233D01*
X019350Y012250D01*
X019350Y012950D01*
X019352Y012967D01*
X019356Y012984D01*
X019363Y013000D01*
X019373Y013014D01*
X019386Y013027D01*
X019400Y013037D01*
X019416Y013044D01*
X019433Y013048D01*
X019450Y013050D01*
X019450Y011550D02*
X019600Y011550D01*
X019650Y011500D01*
X021550Y011500D01*
X021600Y011550D01*
X021750Y011550D01*
X021767Y011548D01*
X021784Y011544D01*
X021800Y011537D01*
X021814Y011527D01*
X021827Y011514D01*
X021837Y011500D01*
X021844Y011484D01*
X021848Y011467D01*
X021850Y011450D01*
X021850Y010750D01*
X021848Y010733D01*
X021844Y010716D01*
X021837Y010700D01*
X021827Y010686D01*
X021814Y010673D01*
X021800Y010663D01*
X021784Y010656D01*
X021767Y010652D01*
X021750Y010650D01*
X021600Y010650D01*
X021550Y010700D01*
X019650Y010700D01*
X019600Y010650D01*
X019450Y010650D01*
X019433Y010652D01*
X019416Y010656D01*
X019400Y010663D01*
X019386Y010673D01*
X019373Y010686D01*
X019363Y010700D01*
X019356Y010716D01*
X019352Y010733D01*
X019350Y010750D01*
X019350Y011450D01*
X019352Y011467D01*
X019356Y011484D01*
X019363Y011500D01*
X019373Y011514D01*
X019386Y011527D01*
X019400Y011537D01*
X019416Y011544D01*
X019433Y011548D01*
X019450Y011550D01*
X019850Y009500D02*
X020000Y009500D01*
X020017Y009498D01*
X020034Y009494D01*
X020050Y009487D01*
X020064Y009477D01*
X020077Y009464D01*
X020087Y009450D01*
X020094Y009434D01*
X020098Y009417D01*
X020100Y009400D01*
X020100Y008800D01*
X020098Y008783D01*
X020094Y008766D01*
X020087Y008750D01*
X020077Y008736D01*
X020064Y008723D01*
X020050Y008713D01*
X020034Y008706D01*
X020017Y008702D01*
X020000Y008700D01*
X019850Y008700D01*
X019800Y008750D01*
X018400Y008750D01*
X018350Y008700D01*
X018200Y008700D01*
X018183Y008702D01*
X018166Y008706D01*
X018150Y008713D01*
X018136Y008723D01*
X018123Y008736D01*
X018113Y008750D01*
X018106Y008766D01*
X018102Y008783D01*
X018100Y008800D01*
X018100Y009400D01*
X018102Y009417D01*
X018106Y009434D01*
X018113Y009450D01*
X018123Y009464D01*
X018136Y009477D01*
X018150Y009487D01*
X018166Y009494D01*
X018183Y009498D01*
X018200Y009500D01*
X018350Y009500D01*
X018400Y009450D01*
X019800Y009450D01*
X019850Y009500D01*
X019850Y008000D02*
X020000Y008000D01*
X020017Y007998D01*
X020034Y007994D01*
X020050Y007987D01*
X020064Y007977D01*
X020077Y007964D01*
X020087Y007950D01*
X020094Y007934D01*
X020098Y007917D01*
X020100Y007900D01*
X020100Y007300D01*
X020098Y007283D01*
X020094Y007266D01*
X020087Y007250D01*
X020077Y007236D01*
X020064Y007223D01*
X020050Y007213D01*
X020034Y007206D01*
X020017Y007202D01*
X020000Y007200D01*
X019850Y007200D01*
X019800Y007250D01*
X018400Y007250D01*
X018350Y007200D01*
X018200Y007200D01*
X018183Y007202D01*
X018166Y007206D01*
X018150Y007213D01*
X018136Y007223D01*
X018123Y007236D01*
X018113Y007250D01*
X018106Y007266D01*
X018102Y007283D01*
X018100Y007300D01*
X018100Y007900D01*
X018102Y007917D01*
X018106Y007934D01*
X018113Y007950D01*
X018123Y007964D01*
X018136Y007977D01*
X018150Y007987D01*
X018166Y007994D01*
X018183Y007998D01*
X018200Y008000D01*
X018350Y008000D01*
X018400Y007950D01*
X019800Y007950D01*
X019850Y008000D01*
X019850Y006500D02*
X020000Y006500D01*
X020017Y006498D01*
X020034Y006494D01*
X020050Y006487D01*
X020064Y006477D01*
X020077Y006464D01*
X020087Y006450D01*
X020094Y006434D01*
X020098Y006417D01*
X020100Y006400D01*
X020100Y005800D01*
X020098Y005783D01*
X020094Y005766D01*
X020087Y005750D01*
X020077Y005736D01*
X020064Y005723D01*
X020050Y005713D01*
X020034Y005706D01*
X020017Y005702D01*
X020000Y005700D01*
X019850Y005700D01*
X019800Y005750D01*
X018400Y005750D01*
X018350Y005700D01*
X018200Y005700D01*
X018183Y005702D01*
X018166Y005706D01*
X018150Y005713D01*
X018136Y005723D01*
X018123Y005736D01*
X018113Y005750D01*
X018106Y005766D01*
X018102Y005783D01*
X018100Y005800D01*
X018100Y006400D01*
X018102Y006417D01*
X018106Y006434D01*
X018113Y006450D01*
X018123Y006464D01*
X018136Y006477D01*
X018150Y006487D01*
X018166Y006494D01*
X018183Y006498D01*
X018200Y006500D01*
X018350Y006500D01*
X018400Y006450D01*
X019800Y006450D01*
X019850Y006500D01*
D11*
X021845Y001379D02*
X021968Y001256D01*
X021968Y001009D01*
X022090Y001070D02*
X022151Y001009D01*
X022336Y001009D01*
X022336Y000885D02*
X022336Y001256D01*
X022151Y001256D01*
X022090Y001194D01*
X022090Y001070D01*
X021968Y001194D02*
X021721Y001194D01*
X021721Y001256D02*
X021845Y001379D01*
X021721Y001256D02*
X021721Y001009D01*
X022458Y001070D02*
X022520Y001009D01*
X022705Y001009D01*
X022705Y001256D01*
X022888Y001256D02*
X023011Y001256D01*
X023073Y001194D01*
X023073Y001009D01*
X022888Y001009D01*
X022826Y001070D01*
X022888Y001132D01*
X023073Y001132D01*
X023195Y001070D02*
X023256Y001009D01*
X023380Y001009D01*
X023441Y001070D01*
X023441Y001132D01*
X023380Y001194D01*
X023256Y001194D01*
X023195Y001256D01*
X023195Y001317D01*
X023256Y001379D01*
X023380Y001379D01*
X023441Y001317D01*
X023563Y001379D02*
X023625Y001379D01*
X023625Y001009D01*
X023686Y001009D02*
X023563Y001009D01*
X023808Y001070D02*
X023870Y001132D01*
X024055Y001132D01*
X024055Y001194D02*
X024055Y001009D01*
X023870Y001009D01*
X023808Y001070D01*
X023870Y001256D02*
X023994Y001256D01*
X024055Y001194D01*
X024177Y001256D02*
X024300Y001009D01*
X024424Y001256D01*
X024545Y001194D02*
X024607Y001256D01*
X024730Y001256D01*
X024792Y001194D01*
X024792Y001132D01*
X024545Y001132D01*
X024545Y001070D02*
X024545Y001194D01*
X024545Y001070D02*
X024607Y001009D01*
X024730Y001009D01*
X025282Y001132D02*
X025405Y001009D01*
X025529Y001132D01*
X025529Y001379D01*
X025650Y001256D02*
X025773Y001379D01*
X025773Y001009D01*
X025650Y001009D02*
X025897Y001009D01*
X025282Y001132D02*
X025282Y001379D01*
X022458Y001256D02*
X022458Y001070D01*
X013178Y001415D02*
X012931Y001415D01*
X013054Y001415D02*
X013054Y001785D01*
X012931Y001662D01*
X012931Y002415D02*
X013178Y002662D01*
X013178Y002724D01*
X013116Y002785D01*
X012993Y002785D01*
X012931Y002724D01*
X012931Y002415D02*
X013178Y002415D01*
X013116Y003415D02*
X012993Y003415D01*
X012931Y003477D01*
X013054Y003600D02*
X013116Y003600D01*
X013178Y003538D01*
X013178Y003477D01*
X013116Y003415D01*
X013116Y003600D02*
X013178Y003662D01*
X013178Y003724D01*
X013116Y003785D01*
X012993Y003785D01*
X012931Y003724D01*
X013116Y004415D02*
X013116Y004785D01*
X012931Y004600D01*
X013178Y004600D01*
X013116Y005415D02*
X012993Y005415D01*
X012931Y005477D01*
X012931Y005600D02*
X013054Y005662D01*
X013116Y005662D01*
X013178Y005600D01*
X013178Y005477D01*
X013116Y005415D01*
X012931Y005600D02*
X012931Y005785D01*
X013178Y005785D01*
X013116Y006415D02*
X013178Y006477D01*
X013178Y006538D01*
X013116Y006600D01*
X012931Y006600D01*
X012931Y006477D01*
X012993Y006415D01*
X013116Y006415D01*
X012931Y006600D02*
X013054Y006724D01*
X013178Y006785D01*
X012931Y007415D02*
X012931Y007477D01*
X013178Y007724D01*
X013178Y007785D01*
X012931Y007785D01*
X012993Y008415D02*
X012931Y008477D01*
X012931Y008538D01*
X012993Y008600D01*
X013116Y008600D01*
X013178Y008538D01*
X013178Y008477D01*
X013116Y008415D01*
X012993Y008415D01*
X012993Y008600D02*
X012931Y008662D01*
X012931Y008724D01*
X012993Y008785D01*
X013116Y008785D01*
X013178Y008724D01*
X013178Y008662D01*
X013116Y008600D01*
X011585Y013115D02*
X011215Y013115D01*
X011215Y013300D01*
X011276Y013362D01*
X011400Y013362D01*
X011462Y013300D01*
X011462Y013115D01*
X011462Y013238D02*
X011585Y013362D01*
X011523Y013483D02*
X011400Y013483D01*
X011338Y013545D01*
X011338Y013668D01*
X011400Y013730D01*
X011462Y013730D01*
X011462Y013483D01*
X011523Y013483D02*
X011585Y013545D01*
X011585Y013668D01*
X011585Y013852D02*
X011585Y014037D01*
X011523Y014099D01*
X011462Y014037D01*
X011462Y013913D01*
X011400Y013852D01*
X011338Y013913D01*
X011338Y014099D01*
X011400Y014220D02*
X011338Y014282D01*
X011338Y014405D01*
X011400Y014467D01*
X011462Y014467D01*
X011462Y014220D01*
X011523Y014220D02*
X011400Y014220D01*
X011523Y014220D02*
X011585Y014282D01*
X011585Y014405D01*
X011523Y014650D02*
X011585Y014712D01*
X011523Y014650D02*
X011276Y014650D01*
X011338Y014588D02*
X011338Y014712D01*
X010099Y016115D02*
X009852Y016115D01*
X009852Y016485D01*
X009730Y016424D02*
X009668Y016485D01*
X009545Y016485D01*
X009483Y016424D01*
X009483Y016177D01*
X009545Y016115D01*
X009668Y016115D01*
X009730Y016177D01*
X009362Y016177D02*
X009300Y016115D01*
X009177Y016115D01*
X009115Y016177D01*
X009177Y016300D02*
X009300Y016300D01*
X009362Y016238D01*
X009362Y016177D01*
X009177Y016300D02*
X009115Y016362D01*
X009115Y016424D01*
X009177Y016485D01*
X009300Y016485D01*
X009362Y016424D01*
X009300Y018615D02*
X009177Y018615D01*
X009115Y018677D01*
X009177Y018800D02*
X009300Y018800D01*
X009362Y018738D01*
X009362Y018677D01*
X009300Y018615D01*
X009483Y018615D02*
X009483Y018985D01*
X009668Y018985D01*
X009730Y018924D01*
X009730Y018677D01*
X009668Y018615D01*
X009483Y018615D01*
X009362Y018924D02*
X009300Y018985D01*
X009177Y018985D01*
X009115Y018924D01*
X009115Y018862D01*
X009177Y018800D01*
X009852Y018800D02*
X010099Y018800D01*
X010099Y018862D02*
X010099Y018615D01*
X010099Y018862D02*
X009975Y018985D01*
X009852Y018862D01*
X009852Y018615D01*
X004099Y018615D02*
X004099Y018862D01*
X003975Y018985D01*
X003852Y018862D01*
X003852Y018615D01*
X003730Y018677D02*
X003730Y018924D01*
X003668Y018985D01*
X003483Y018985D01*
X003483Y018615D01*
X003668Y018615D01*
X003730Y018677D01*
X003852Y018800D02*
X004099Y018800D01*
X003362Y018738D02*
X003362Y018677D01*
X003300Y018615D01*
X003177Y018615D01*
X003115Y018677D01*
X003177Y018800D02*
X003300Y018800D01*
X003362Y018738D01*
X003362Y018924D02*
X003300Y018985D01*
X003177Y018985D01*
X003115Y018924D01*
X003115Y018862D01*
X003177Y018800D01*
X003177Y016485D02*
X003115Y016424D01*
X003115Y016362D01*
X003177Y016300D01*
X003300Y016300D01*
X003362Y016238D01*
X003362Y016177D01*
X003300Y016115D01*
X003177Y016115D01*
X003115Y016177D01*
X003177Y016485D02*
X003300Y016485D01*
X003362Y016424D01*
X003483Y016424D02*
X003545Y016485D01*
X003668Y016485D01*
X003730Y016424D01*
X003852Y016485D02*
X003852Y016115D01*
X004099Y016115D01*
X003730Y016177D02*
X003668Y016115D01*
X003545Y016115D01*
X003483Y016177D01*
X003483Y016424D01*
X000923Y006994D02*
X000800Y006994D01*
X000738Y006932D01*
X000738Y006870D01*
X000800Y006747D01*
X000615Y006747D01*
X000615Y006994D01*
X000923Y006994D02*
X000985Y006932D01*
X000985Y006808D01*
X000923Y006747D01*
X000985Y006625D02*
X000985Y006378D01*
X000985Y006502D02*
X000615Y006502D01*
X000738Y006378D01*
X000676Y006257D02*
X000923Y006010D01*
X000985Y006072D01*
X000985Y006195D01*
X000923Y006257D01*
X000676Y006257D01*
X000615Y006195D01*
X000615Y006072D01*
X000676Y006010D01*
X000923Y006010D01*
X000985Y005889D02*
X000985Y005642D01*
X000738Y005889D01*
X000676Y005889D01*
X000615Y005827D01*
X000615Y005703D01*
X000676Y005642D01*
X000774Y028715D02*
X000898Y028838D01*
X000898Y029085D01*
X001081Y028962D02*
X001019Y028900D01*
X001019Y028777D01*
X001081Y028715D01*
X001266Y028715D01*
X001387Y028777D02*
X001449Y028715D01*
X001634Y028715D01*
X001756Y028838D02*
X001756Y028962D01*
X001879Y029085D01*
X002001Y028900D02*
X002248Y028900D01*
X002125Y028777D02*
X002125Y029024D01*
X002369Y029085D02*
X002493Y028962D01*
X002493Y028838D01*
X002369Y028715D01*
X001879Y028715D02*
X001756Y028838D01*
X001634Y028962D02*
X001449Y028962D01*
X001387Y028900D01*
X001387Y028777D01*
X001266Y028962D02*
X001081Y028962D01*
X000774Y028715D02*
X000651Y028838D01*
X000651Y029085D01*
X005615Y028924D02*
X005615Y028677D01*
X005677Y028615D01*
X005800Y028615D01*
X005862Y028677D01*
X005862Y028800D01*
X005738Y028800D01*
X005615Y028924D02*
X005677Y028985D01*
X005800Y028985D01*
X005862Y028924D01*
X005983Y028862D02*
X006168Y028862D01*
X006230Y028800D01*
X006230Y028615D01*
X006352Y028677D02*
X006352Y028800D01*
X006413Y028862D01*
X006599Y028862D01*
X006599Y028985D02*
X006599Y028615D01*
X006413Y028615D01*
X006352Y028677D01*
X005983Y028615D02*
X005983Y028862D01*
X022509Y025804D02*
X022509Y025434D01*
X022509Y025557D02*
X022694Y025557D01*
X022756Y025619D01*
X022756Y025742D01*
X022694Y025804D01*
X022509Y025804D01*
X022632Y025557D02*
X022756Y025434D01*
X022877Y025434D02*
X022877Y025804D01*
X023062Y025804D01*
X023124Y025742D01*
X023124Y025619D01*
X023062Y025557D01*
X022877Y025557D01*
X023245Y025434D02*
X023245Y025804D01*
X023369Y025681D01*
X023492Y025804D01*
X023492Y025434D01*
X023400Y027434D02*
X023400Y027681D01*
X023523Y027557D02*
X023276Y027557D01*
X023400Y029434D02*
X023400Y029681D01*
X023400Y022681D02*
X023400Y022434D01*
X023400Y021181D02*
X023400Y020934D01*
X023523Y021057D02*
X023276Y021057D01*
X023360Y019261D02*
X023360Y019014D01*
X023483Y019137D02*
X023236Y019137D01*
X023440Y013241D02*
X023440Y012994D01*
D12*
X019850Y021800D02*
X016600Y021800D01*
X016600Y025400D01*
X019850Y025400D01*
X019850Y021800D01*
X019850Y028300D02*
X016600Y028300D01*
X016600Y031900D01*
X019850Y031900D01*
X019850Y028300D01*
X010800Y014550D02*
X010700Y014550D01*
X010700Y013600D01*
X010800Y013600D01*
X008500Y013600D02*
X008500Y014600D01*
X008400Y014600D01*
X008400Y013600D02*
X008500Y013600D01*
X005400Y022600D02*
X001800Y022600D01*
X001800Y025850D01*
X005400Y025850D01*
X005400Y022600D01*
X009266Y000590D02*
X009229Y000553D01*
X009229Y000517D01*
X009266Y000480D01*
X009339Y000480D01*
X009376Y000443D01*
X009376Y000407D01*
X009339Y000370D01*
X009266Y000370D01*
X009229Y000407D01*
X009266Y000590D02*
X009339Y000590D01*
X009376Y000553D01*
X009450Y000590D02*
X009487Y000590D01*
X009487Y000370D01*
X009523Y000370D02*
X009450Y000370D01*
X009597Y000407D02*
X009634Y000443D01*
X009744Y000443D01*
X009744Y000480D02*
X009744Y000370D01*
X009634Y000370D01*
X009597Y000407D01*
X009634Y000517D02*
X009707Y000517D01*
X009744Y000480D01*
X009818Y000517D02*
X009892Y000370D01*
X009965Y000517D01*
X010039Y000480D02*
X010076Y000517D01*
X010149Y000517D01*
X010186Y000480D01*
X010186Y000443D01*
X010039Y000443D01*
X010039Y000407D02*
X010039Y000480D01*
X010039Y000407D02*
X010076Y000370D01*
X010149Y000370D01*
X010481Y000370D02*
X010481Y000517D01*
X010554Y000590D01*
X010628Y000517D01*
X010628Y000370D01*
X010702Y000407D02*
X010702Y000480D01*
X010739Y000517D01*
X010849Y000517D01*
X010849Y000590D02*
X010849Y000370D01*
X010739Y000370D01*
X010702Y000407D01*
X010628Y000480D02*
X010481Y000480D01*
X010923Y000480D02*
X010960Y000517D01*
X011070Y000517D01*
X011070Y000590D02*
X011070Y000370D01*
X010960Y000370D01*
X010923Y000407D01*
X010923Y000480D01*
X011144Y000443D02*
X011217Y000517D01*
X011254Y000517D01*
X011328Y000480D02*
X011365Y000517D01*
X011438Y000517D01*
X011475Y000480D01*
X011475Y000443D01*
X011328Y000443D01*
X011328Y000407D02*
X011328Y000480D01*
X011328Y000407D02*
X011365Y000370D01*
X011438Y000370D01*
X011549Y000370D02*
X011659Y000370D01*
X011696Y000407D01*
X011659Y000443D01*
X011586Y000443D01*
X011549Y000480D01*
X011586Y000517D01*
X011696Y000517D01*
X011770Y000480D02*
X011807Y000517D01*
X011917Y000517D01*
X011880Y000443D02*
X011807Y000443D01*
X011770Y000480D01*
X011770Y000370D02*
X011880Y000370D01*
X011917Y000407D01*
X011880Y000443D01*
X011144Y000370D02*
X011144Y000517D01*
D13*
X014025Y001600D03*
X014025Y003100D03*
X014025Y004600D03*
X014025Y006100D03*
X014025Y007600D03*
X014025Y009100D03*
X016175Y009100D03*
X016175Y007600D03*
X016175Y006100D03*
X016175Y004600D03*
X016175Y003100D03*
X016175Y001600D03*
X018025Y006100D03*
X018025Y007600D03*
X018025Y009100D03*
X020175Y009100D03*
X020175Y007600D03*
X020175Y006100D03*
X011675Y011100D03*
X009525Y011100D03*
D14*
X009620Y011630D02*
X009620Y011980D01*
X009795Y011980D01*
X009854Y011922D01*
X009854Y011805D01*
X009795Y011747D01*
X009620Y011747D01*
X009737Y011747D02*
X009854Y011630D01*
X009979Y011630D02*
X010213Y011864D01*
X010213Y011922D01*
X010154Y011980D01*
X010037Y011980D01*
X009979Y011922D01*
X009979Y011630D02*
X010213Y011630D01*
X010338Y011630D02*
X010572Y011864D01*
X010572Y011922D01*
X010513Y011980D01*
X010397Y011980D01*
X010338Y011922D01*
X010338Y011630D02*
X010572Y011630D01*
X010638Y011280D02*
X010872Y011280D01*
X010872Y011222D01*
X010638Y010988D01*
X010638Y010930D01*
X010514Y010930D02*
X010339Y011047D01*
X010514Y011164D01*
X010339Y011280D02*
X010339Y010930D01*
X010155Y010930D02*
X010155Y011280D01*
X009980Y011105D01*
X010214Y011105D01*
X014120Y009980D02*
X014120Y009630D01*
X014120Y009747D02*
X014295Y009747D01*
X014354Y009805D01*
X014354Y009922D01*
X014295Y009980D01*
X014120Y009980D01*
X014237Y009747D02*
X014354Y009630D01*
X014479Y009688D02*
X014479Y009922D01*
X014537Y009980D01*
X014654Y009980D01*
X014713Y009922D01*
X014713Y009688D01*
X014654Y009630D01*
X014537Y009630D01*
X014479Y009688D01*
X014838Y009688D02*
X014838Y009922D01*
X014897Y009980D01*
X015013Y009980D01*
X015072Y009922D01*
X015197Y009980D02*
X015431Y009980D01*
X015314Y009980D02*
X015314Y009630D01*
X015072Y009688D02*
X015013Y009630D01*
X014897Y009630D01*
X014838Y009688D01*
X014897Y009280D02*
X015014Y009280D01*
X015073Y009222D01*
X014839Y008988D01*
X014897Y008930D01*
X015014Y008930D01*
X015073Y008988D01*
X015073Y009222D01*
X015198Y009222D02*
X015257Y009280D01*
X015373Y009280D01*
X015432Y009222D01*
X015198Y008988D01*
X015257Y008930D01*
X015373Y008930D01*
X015432Y008988D01*
X015432Y009222D01*
X015198Y009222D02*
X015198Y008988D01*
X014839Y008988D02*
X014839Y009222D01*
X014897Y009280D01*
X014714Y009280D02*
X014480Y009280D01*
X014480Y009105D01*
X014597Y009164D01*
X014655Y009164D01*
X014714Y009105D01*
X014714Y008988D01*
X014655Y008930D01*
X014538Y008930D01*
X014480Y008988D01*
X014537Y008480D02*
X014479Y008422D01*
X014537Y008480D02*
X014654Y008480D01*
X014713Y008422D01*
X014713Y008364D01*
X014479Y008130D01*
X014713Y008130D01*
X014838Y008188D02*
X014897Y008130D01*
X015013Y008130D01*
X015072Y008188D01*
X015072Y008247D01*
X015013Y008305D01*
X014955Y008305D01*
X015013Y008305D02*
X015072Y008364D01*
X015072Y008422D01*
X015013Y008480D01*
X014897Y008480D01*
X014838Y008422D01*
X014354Y008422D02*
X014354Y008305D01*
X014295Y008247D01*
X014120Y008247D01*
X014237Y008247D02*
X014354Y008130D01*
X014120Y008130D02*
X014120Y008480D01*
X014295Y008480D01*
X014354Y008422D01*
X014538Y007780D02*
X014480Y007722D01*
X014538Y007780D02*
X014655Y007780D01*
X014714Y007722D01*
X014714Y007664D01*
X014480Y007430D01*
X014714Y007430D01*
X014839Y007430D02*
X014897Y007430D01*
X014897Y007488D01*
X014839Y007488D01*
X014839Y007430D01*
X015019Y007430D02*
X015252Y007664D01*
X015252Y007722D01*
X015194Y007780D01*
X015077Y007780D01*
X015019Y007722D01*
X015019Y007430D02*
X015252Y007430D01*
X015378Y007430D02*
X015378Y007780D01*
X015436Y007605D02*
X015611Y007430D01*
X015378Y007547D02*
X015611Y007780D01*
X015732Y006980D02*
X015556Y006805D01*
X015790Y006805D01*
X015732Y006630D02*
X015732Y006980D01*
X015431Y006980D02*
X015197Y006980D01*
X015314Y006980D02*
X015314Y006630D01*
X015072Y006688D02*
X015013Y006630D01*
X014897Y006630D01*
X014838Y006688D01*
X014838Y006922D01*
X014897Y006980D01*
X015013Y006980D01*
X015072Y006922D01*
X014713Y006922D02*
X014713Y006688D01*
X014654Y006630D01*
X014537Y006630D01*
X014479Y006688D01*
X014479Y006922D01*
X014537Y006980D01*
X014654Y006980D01*
X014713Y006922D01*
X014354Y006922D02*
X014354Y006805D01*
X014295Y006747D01*
X014120Y006747D01*
X014237Y006747D02*
X014354Y006630D01*
X014120Y006630D02*
X014120Y006980D01*
X014295Y006980D01*
X014354Y006922D01*
X014655Y006280D02*
X014480Y006105D01*
X014714Y006105D01*
X014839Y005988D02*
X014839Y005930D01*
X014839Y005988D02*
X015073Y006222D01*
X015073Y006280D01*
X014839Y006280D01*
X014655Y006280D02*
X014655Y005930D01*
X014654Y005480D02*
X014713Y005422D01*
X014713Y005188D01*
X014654Y005130D01*
X014537Y005130D01*
X014479Y005188D01*
X014479Y005422D01*
X014537Y005480D01*
X014654Y005480D01*
X014838Y005422D02*
X014838Y005188D01*
X014897Y005130D01*
X015013Y005130D01*
X015072Y005188D01*
X015072Y005422D02*
X015013Y005480D01*
X014897Y005480D01*
X014838Y005422D01*
X015197Y005480D02*
X015431Y005480D01*
X015314Y005480D02*
X015314Y005130D01*
X015556Y005188D02*
X015615Y005130D01*
X015732Y005130D01*
X015790Y005188D01*
X015790Y005247D01*
X015732Y005305D01*
X015673Y005305D01*
X015732Y005305D02*
X015790Y005364D01*
X015790Y005422D01*
X015732Y005480D01*
X015615Y005480D01*
X015556Y005422D01*
X015373Y005930D02*
X015257Y005930D01*
X015198Y005988D01*
X015432Y006222D01*
X015432Y005988D01*
X015373Y005930D01*
X015198Y005988D02*
X015198Y006222D01*
X015257Y006280D01*
X015373Y006280D01*
X015432Y006222D01*
X014354Y005422D02*
X014354Y005305D01*
X014295Y005247D01*
X014120Y005247D01*
X014237Y005247D02*
X014354Y005130D01*
X014120Y005130D02*
X014120Y005480D01*
X014295Y005480D01*
X014354Y005422D01*
X014655Y004780D02*
X014480Y004605D01*
X014714Y004605D01*
X014839Y004488D02*
X014839Y004430D01*
X014839Y004488D02*
X015073Y004722D01*
X015073Y004780D01*
X014839Y004780D01*
X014655Y004780D02*
X014655Y004430D01*
X014654Y003980D02*
X014713Y003922D01*
X014713Y003688D01*
X014654Y003630D01*
X014537Y003630D01*
X014479Y003688D01*
X014479Y003922D01*
X014537Y003980D01*
X014654Y003980D01*
X014838Y003922D02*
X014838Y003688D01*
X014897Y003630D01*
X015013Y003630D01*
X015072Y003688D01*
X015072Y003922D02*
X015013Y003980D01*
X014897Y003980D01*
X014838Y003922D01*
X015197Y003980D02*
X015431Y003980D01*
X015314Y003980D02*
X015314Y003630D01*
X015556Y003630D02*
X015790Y003864D01*
X015790Y003922D01*
X015732Y003980D01*
X015615Y003980D01*
X015556Y003922D01*
X015556Y003630D02*
X015790Y003630D01*
X015432Y003222D02*
X015432Y002988D01*
X015373Y002930D01*
X015257Y002930D01*
X015198Y002988D01*
X015432Y003222D01*
X015373Y003280D01*
X015257Y003280D01*
X015198Y003222D01*
X015198Y002988D01*
X015073Y002988D02*
X015014Y002930D01*
X014897Y002930D01*
X014839Y002988D01*
X015073Y003222D01*
X015073Y002988D01*
X014839Y002988D02*
X014839Y003222D01*
X014897Y003280D01*
X015014Y003280D01*
X015073Y003222D01*
X014714Y003280D02*
X014480Y003280D01*
X014480Y003105D01*
X014597Y003164D01*
X014655Y003164D01*
X014714Y003105D01*
X014714Y002988D01*
X014655Y002930D01*
X014538Y002930D01*
X014480Y002988D01*
X014537Y002480D02*
X014479Y002422D01*
X014479Y002188D01*
X014537Y002130D01*
X014654Y002130D01*
X014713Y002188D01*
X014713Y002422D01*
X014654Y002480D01*
X014537Y002480D01*
X014354Y002422D02*
X014354Y002305D01*
X014295Y002247D01*
X014120Y002247D01*
X014237Y002247D02*
X014354Y002130D01*
X014120Y002130D02*
X014120Y002480D01*
X014295Y002480D01*
X014354Y002422D01*
X014838Y002422D02*
X014838Y002188D01*
X014897Y002130D01*
X015013Y002130D01*
X015072Y002188D01*
X015072Y002422D02*
X015013Y002480D01*
X014897Y002480D01*
X014838Y002422D01*
X015197Y002480D02*
X015431Y002480D01*
X015314Y002480D02*
X015314Y002130D01*
X015556Y002188D02*
X015556Y002247D01*
X015615Y002305D01*
X015732Y002305D01*
X015790Y002247D01*
X015790Y002188D01*
X015732Y002130D01*
X015615Y002130D01*
X015556Y002188D01*
X015615Y002305D02*
X015556Y002364D01*
X015556Y002422D01*
X015615Y002480D01*
X015732Y002480D01*
X015790Y002422D01*
X015790Y002364D01*
X015732Y002305D01*
X015073Y001780D02*
X014839Y001547D01*
X014897Y001605D02*
X015073Y001430D01*
X014839Y001430D02*
X014839Y001780D01*
X014597Y001780D02*
X014597Y001430D01*
X014480Y001430D02*
X014714Y001430D01*
X014480Y001664D02*
X014597Y001780D01*
X014354Y003630D02*
X014237Y003747D01*
X014295Y003747D02*
X014120Y003747D01*
X014120Y003630D02*
X014120Y003980D01*
X014295Y003980D01*
X014354Y003922D01*
X014354Y003805D01*
X014295Y003747D01*
X015198Y004488D02*
X015198Y004722D01*
X015257Y004780D01*
X015373Y004780D01*
X015432Y004722D01*
X015198Y004488D01*
X015257Y004430D01*
X015373Y004430D01*
X015432Y004488D01*
X015432Y004722D01*
X018120Y006630D02*
X018120Y006980D01*
X018295Y006980D01*
X018354Y006922D01*
X018354Y006805D01*
X018295Y006747D01*
X018120Y006747D01*
X018237Y006747D02*
X018354Y006630D01*
X018479Y006630D02*
X018713Y006864D01*
X018713Y006922D01*
X018654Y006980D01*
X018537Y006980D01*
X018479Y006922D01*
X018479Y006630D02*
X018713Y006630D01*
X018838Y006688D02*
X018897Y006630D01*
X019013Y006630D01*
X019072Y006688D01*
X019072Y006805D01*
X019013Y006864D01*
X018955Y006864D01*
X018838Y006805D01*
X018838Y006980D01*
X019072Y006980D01*
X019019Y007430D02*
X019252Y007664D01*
X019252Y007722D01*
X019194Y007780D01*
X019077Y007780D01*
X019019Y007722D01*
X018897Y007488D02*
X018839Y007488D01*
X018839Y007430D01*
X018897Y007430D01*
X018897Y007488D01*
X019019Y007430D02*
X019252Y007430D01*
X019378Y007430D02*
X019378Y007780D01*
X019436Y007605D02*
X019611Y007430D01*
X019378Y007547D02*
X019611Y007780D01*
X019072Y008188D02*
X019072Y008247D01*
X019013Y008305D01*
X018838Y008305D01*
X018838Y008188D01*
X018897Y008130D01*
X019013Y008130D01*
X019072Y008188D01*
X018955Y008422D02*
X018838Y008305D01*
X018713Y008364D02*
X018713Y008422D01*
X018654Y008480D01*
X018537Y008480D01*
X018479Y008422D01*
X018354Y008422D02*
X018354Y008305D01*
X018295Y008247D01*
X018120Y008247D01*
X018237Y008247D02*
X018354Y008130D01*
X018479Y008130D02*
X018713Y008364D01*
X018713Y008130D02*
X018479Y008130D01*
X018354Y008422D02*
X018295Y008480D01*
X018120Y008480D01*
X018120Y008130D01*
X018480Y007722D02*
X018538Y007780D01*
X018655Y007780D01*
X018714Y007722D01*
X018714Y007664D01*
X018480Y007430D01*
X018714Y007430D01*
X018955Y008422D02*
X019072Y008480D01*
X019014Y008930D02*
X018897Y008930D01*
X018839Y008988D01*
X019073Y009222D01*
X019073Y008988D01*
X019014Y008930D01*
X018839Y008988D02*
X018839Y009222D01*
X018897Y009280D01*
X019014Y009280D01*
X019073Y009222D01*
X019198Y009222D02*
X019198Y008988D01*
X019432Y009222D01*
X019432Y008988D01*
X019373Y008930D01*
X019257Y008930D01*
X019198Y008988D01*
X019198Y009222D02*
X019257Y009280D01*
X019373Y009280D01*
X019432Y009222D01*
X019314Y009630D02*
X019314Y009980D01*
X019197Y009980D02*
X019431Y009980D01*
X019556Y009864D02*
X019673Y009980D01*
X019673Y009630D01*
X019556Y009630D02*
X019790Y009630D01*
X019072Y009688D02*
X019013Y009630D01*
X018897Y009630D01*
X018838Y009688D01*
X018838Y009922D01*
X018897Y009980D01*
X019013Y009980D01*
X019072Y009922D01*
X018713Y009922D02*
X018713Y009688D01*
X018654Y009630D01*
X018537Y009630D01*
X018479Y009688D01*
X018479Y009922D01*
X018537Y009980D01*
X018654Y009980D01*
X018713Y009922D01*
X018354Y009922D02*
X018354Y009805D01*
X018295Y009747D01*
X018120Y009747D01*
X018237Y009747D02*
X018354Y009630D01*
X018120Y009630D02*
X018120Y009980D01*
X018295Y009980D01*
X018354Y009922D01*
X018480Y009280D02*
X018480Y009105D01*
X018597Y009164D01*
X018655Y009164D01*
X018714Y009105D01*
X018714Y008988D01*
X018655Y008930D01*
X018538Y008930D01*
X018480Y008988D01*
X018480Y009280D02*
X018714Y009280D01*
X018597Y006280D02*
X018597Y005930D01*
X018480Y005930D02*
X018714Y005930D01*
X018839Y005988D02*
X019073Y006222D01*
X019073Y005988D01*
X019014Y005930D01*
X018897Y005930D01*
X018839Y005988D01*
X018839Y006222D01*
X018897Y006280D01*
X019014Y006280D01*
X019073Y006222D01*
X019198Y006280D02*
X019198Y005930D01*
X019198Y006047D02*
X019432Y006280D01*
X019257Y006105D02*
X019432Y005930D01*
X018597Y006280D02*
X018480Y006164D01*
X015732Y009630D02*
X015615Y009630D01*
X015556Y009688D01*
X015556Y009805D02*
X015673Y009864D01*
X015732Y009864D01*
X015790Y009805D01*
X015790Y009688D01*
X015732Y009630D01*
X015556Y009805D02*
X015556Y009980D01*
X015790Y009980D01*
X016240Y021870D02*
X016120Y021990D01*
X016240Y022110D01*
X016480Y022110D01*
X016480Y022238D02*
X016480Y022479D01*
X016480Y022358D02*
X016120Y022358D01*
X016240Y022238D01*
X016300Y022110D02*
X016300Y021870D01*
X016240Y021870D02*
X016480Y021870D01*
X016480Y022607D02*
X016420Y022607D01*
X016180Y022847D01*
X016120Y022847D01*
X016120Y022607D01*
X016420Y023035D02*
X016480Y023035D01*
X016480Y023095D01*
X016420Y023095D01*
X016420Y023035D01*
X016480Y023095D02*
X016600Y022975D01*
X016420Y023220D02*
X016480Y023281D01*
X016480Y023401D01*
X016420Y023461D01*
X016300Y023461D01*
X016240Y023401D01*
X016240Y023341D01*
X016300Y023220D01*
X016120Y023220D01*
X016120Y023461D01*
X016240Y023589D02*
X016240Y023649D01*
X016300Y023709D01*
X016240Y023769D01*
X016300Y023829D01*
X016480Y023829D01*
X016480Y023709D02*
X016300Y023709D01*
X016240Y023589D02*
X016480Y023589D01*
X016480Y023957D02*
X016240Y023957D01*
X016240Y024017D01*
X016300Y024077D01*
X016240Y024137D01*
X016300Y024197D01*
X016480Y024197D01*
X016480Y024077D02*
X016300Y024077D01*
X016300Y028370D02*
X016300Y028610D01*
X016240Y028610D02*
X016480Y028610D01*
X016480Y028738D02*
X016480Y028979D01*
X016480Y028858D02*
X016120Y028858D01*
X016240Y028738D01*
X016240Y028610D02*
X016120Y028490D01*
X016240Y028370D01*
X016480Y028370D01*
X016480Y029107D02*
X016420Y029107D01*
X016180Y029347D01*
X016120Y029347D01*
X016120Y029107D01*
X016420Y029535D02*
X016480Y029535D01*
X016480Y029595D01*
X016420Y029595D01*
X016420Y029535D01*
X016480Y029595D02*
X016600Y029475D01*
X016420Y029720D02*
X016480Y029781D01*
X016480Y029901D01*
X016420Y029961D01*
X016300Y029961D01*
X016240Y029901D01*
X016240Y029841D01*
X016300Y029720D01*
X016120Y029720D01*
X016120Y029961D01*
X016240Y030089D02*
X016240Y030149D01*
X016300Y030209D01*
X016240Y030269D01*
X016300Y030329D01*
X016480Y030329D01*
X016480Y030209D02*
X016300Y030209D01*
X016240Y030089D02*
X016480Y030089D01*
X016480Y030457D02*
X016240Y030457D01*
X016240Y030517D01*
X016300Y030577D01*
X016240Y030637D01*
X016300Y030697D01*
X016480Y030697D01*
X016480Y030577D02*
X016300Y030577D01*
D15*
X003100Y008350D02*
X003100Y008100D01*
X003100Y007100D01*
X003100Y005100D01*
X003100Y004100D01*
X003100Y003850D01*
D16*
X002925Y003789D02*
X002475Y003789D01*
X002475Y004015D01*
X002550Y004090D01*
X002700Y004090D01*
X002775Y004015D01*
X002775Y003789D01*
X002775Y003629D02*
X002775Y003329D01*
X002475Y003629D01*
X002400Y003629D01*
X002325Y003554D01*
X002325Y003404D01*
X002400Y003329D01*
X002400Y003169D02*
X002325Y003094D01*
X002325Y002944D01*
X002400Y002869D01*
X002400Y003169D02*
X002475Y003169D01*
X002775Y002869D01*
X002775Y003169D01*
X002550Y004250D02*
X002550Y004400D01*
X002400Y004325D02*
X002325Y004400D01*
X002400Y004325D02*
X002775Y004325D01*
X000875Y003554D02*
X000875Y003404D01*
X000800Y003329D01*
X000650Y003329D02*
X000575Y003479D01*
X000575Y003554D01*
X000650Y003629D01*
X000800Y003629D01*
X000875Y003554D01*
X000650Y003329D02*
X000425Y003329D01*
X000425Y003629D01*
X000500Y003169D02*
X000425Y003094D01*
X000425Y002944D01*
X000500Y002869D01*
X000800Y002869D01*
X000875Y002944D01*
X000875Y003094D01*
X000800Y003169D01*
X000800Y008475D02*
X000500Y008475D01*
X000425Y008550D01*
X000425Y008700D01*
X000500Y008775D01*
X000650Y008935D02*
X000500Y009086D01*
X000425Y009236D01*
X000650Y009161D02*
X000650Y008935D01*
X000800Y008935D01*
X000875Y009010D01*
X000875Y009161D01*
X000800Y009236D01*
X000725Y009236D01*
X000650Y009161D01*
X000800Y008775D02*
X000875Y008700D01*
X000875Y008550D01*
X000800Y008475D01*
X002325Y008550D02*
X002400Y008475D01*
X002325Y008550D02*
X002325Y008700D01*
X002400Y008775D01*
X002475Y008775D01*
X002775Y008475D01*
X002775Y008775D01*
X002775Y008935D02*
X002475Y009236D01*
X002400Y009236D01*
X002325Y009161D01*
X002325Y009010D01*
X002400Y008935D01*
X002775Y008935D02*
X002775Y009236D01*
X002775Y009396D02*
X002775Y009621D01*
X002700Y009696D01*
X002550Y009696D01*
X002475Y009621D01*
X002475Y009396D01*
X002925Y009396D01*
X002775Y009931D02*
X002400Y009931D01*
X002325Y010006D01*
X002550Y010006D02*
X002550Y009856D01*
X002875Y013937D02*
X002875Y014087D01*
X002875Y014012D02*
X003325Y014012D01*
X003325Y013937D02*
X003325Y014087D01*
X003250Y014244D02*
X002950Y014244D01*
X002875Y014319D01*
X002875Y014469D01*
X002950Y014544D01*
X002950Y014704D02*
X003025Y014704D01*
X003100Y014779D01*
X003100Y014929D01*
X003175Y015004D01*
X003250Y015004D01*
X003325Y014929D01*
X003325Y014779D01*
X003250Y014704D01*
X003250Y014544D02*
X003325Y014469D01*
X003325Y014319D01*
X003250Y014244D01*
X002950Y014704D02*
X002875Y014779D01*
X002875Y014929D01*
X002950Y015004D01*
X002875Y015165D02*
X002875Y015390D01*
X002950Y015465D01*
X003100Y015465D01*
X003175Y015390D01*
X003175Y015165D01*
X003325Y015165D02*
X002875Y015165D01*
X002196Y018875D02*
X002046Y018875D01*
X002121Y018875D02*
X002121Y019325D01*
X002046Y019325D02*
X002196Y019325D01*
X001886Y019325D02*
X001886Y018875D01*
X001736Y019025D01*
X001585Y018875D01*
X001585Y019325D01*
X001425Y019325D02*
X001125Y019325D01*
X001275Y019325D02*
X001275Y018875D01*
X006925Y022050D02*
X007000Y021975D01*
X007300Y021975D01*
X007375Y022050D01*
X007375Y022200D01*
X007300Y022275D01*
X007300Y022435D02*
X007225Y022435D01*
X007150Y022510D01*
X007150Y022661D01*
X007225Y022736D01*
X007300Y022736D01*
X007375Y022661D01*
X007375Y022510D01*
X007300Y022435D01*
X007150Y022510D02*
X007075Y022435D01*
X007000Y022435D01*
X006925Y022510D01*
X006925Y022661D01*
X007000Y022736D01*
X007075Y022736D01*
X007150Y022661D01*
X007000Y022275D02*
X006925Y022200D01*
X006925Y022050D01*
X008825Y022050D02*
X008825Y022200D01*
X008900Y022275D01*
X009200Y021975D01*
X009275Y022050D01*
X009275Y022200D01*
X009200Y022275D01*
X008900Y022275D01*
X008825Y022050D02*
X008900Y021975D01*
X009200Y021975D01*
X009200Y022435D02*
X009200Y022510D01*
X009275Y022510D01*
X009275Y022435D01*
X009200Y022435D01*
X009275Y022666D02*
X009275Y022966D01*
X009275Y022816D02*
X008825Y022816D01*
X008975Y022666D01*
X008975Y023126D02*
X009200Y023126D01*
X009275Y023201D01*
X009275Y023426D01*
X008975Y023426D01*
X009050Y023586D02*
X009050Y023737D01*
X008825Y023586D02*
X008825Y023887D01*
X008825Y023586D02*
X009275Y023586D01*
X010100Y024773D02*
X010100Y025073D01*
X010325Y024998D02*
X009875Y024998D01*
X010100Y024773D01*
X010325Y025233D02*
X009875Y025233D01*
X010325Y025534D01*
X009875Y025534D01*
X009950Y025694D02*
X009875Y025769D01*
X009875Y025919D01*
X009950Y025994D01*
X010025Y025994D01*
X010325Y025694D01*
X010325Y025994D01*
X010250Y026154D02*
X010325Y026229D01*
X010325Y026379D01*
X010250Y026454D01*
X010100Y026454D01*
X010025Y026379D01*
X010025Y026304D01*
X010100Y026154D01*
X009875Y026154D01*
X009875Y026454D01*
X009875Y026615D02*
X010025Y026765D01*
X009875Y026915D01*
X010325Y026915D01*
X010325Y026615D02*
X009875Y026615D01*
X010046Y027725D02*
X010046Y028175D01*
X009896Y028175D02*
X010196Y028175D01*
X010356Y028100D02*
X010356Y027800D01*
X010431Y027725D01*
X010581Y027725D01*
X010656Y027800D01*
X010656Y028100D01*
X010581Y028175D01*
X010431Y028175D01*
X010356Y028100D01*
X010817Y028175D02*
X010817Y027725D01*
X010817Y027875D02*
X011042Y027875D01*
X011117Y027950D01*
X011117Y028100D01*
X011042Y028175D01*
X010817Y028175D01*
X011277Y028175D02*
X011277Y027725D01*
X011577Y027725D01*
X011737Y027725D02*
X012038Y027725D01*
X011737Y027725D02*
X011737Y028175D01*
X011577Y028175D02*
X011277Y028175D01*
X011277Y027950D02*
X011427Y027950D01*
X012198Y028175D02*
X012498Y028175D01*
X012348Y028175D02*
X012348Y027725D01*
X012658Y027725D02*
X012958Y027725D01*
X012808Y027725D02*
X012808Y028175D01*
X012658Y028025D01*
X010325Y028998D02*
X009875Y028998D01*
X010100Y028773D01*
X010100Y029073D01*
X010325Y029233D02*
X009875Y029233D01*
X010325Y029534D01*
X009875Y029534D01*
X009950Y029694D02*
X009875Y029769D01*
X009875Y029919D01*
X009950Y029994D01*
X010025Y029994D01*
X010325Y029694D01*
X010325Y029994D01*
X010250Y030154D02*
X010325Y030229D01*
X010325Y030379D01*
X010250Y030454D01*
X010100Y030454D01*
X010025Y030379D01*
X010025Y030304D01*
X010100Y030154D01*
X009875Y030154D01*
X009875Y030454D01*
X009875Y030615D02*
X010025Y030765D01*
X009875Y030915D01*
X010325Y030915D01*
X010325Y030615D02*
X009875Y030615D01*
X010046Y031725D02*
X010046Y032175D01*
X009896Y032175D02*
X010196Y032175D01*
X010356Y032100D02*
X010356Y031800D01*
X010431Y031725D01*
X010581Y031725D01*
X010656Y031800D01*
X010656Y032100D01*
X010581Y032175D01*
X010431Y032175D01*
X010356Y032100D01*
X010817Y032175D02*
X010817Y031725D01*
X010817Y031875D02*
X011042Y031875D01*
X011117Y031950D01*
X011117Y032100D01*
X011042Y032175D01*
X010817Y032175D01*
X011277Y032175D02*
X011277Y031725D01*
X011577Y031725D01*
X011737Y031725D02*
X012038Y031725D01*
X011737Y031725D02*
X011737Y032175D01*
X011577Y032175D02*
X011277Y032175D01*
X011277Y031950D02*
X011427Y031950D01*
X012198Y032175D02*
X012498Y032175D01*
X012348Y032175D02*
X012348Y031725D01*
X012658Y031725D02*
X012958Y032025D01*
X012958Y032100D01*
X012883Y032175D01*
X012733Y032175D01*
X012658Y032100D01*
X012658Y031725D02*
X012958Y031725D01*
X009736Y031800D02*
X009661Y031725D01*
X009510Y031725D01*
X009435Y031800D01*
X009435Y032100D01*
X009510Y032175D01*
X009661Y032175D01*
X009736Y032100D01*
X009275Y032100D02*
X009275Y031800D01*
X009200Y031725D01*
X009050Y031725D01*
X008975Y031800D01*
X008975Y032100D01*
X009050Y032175D01*
X009200Y032175D01*
X009275Y032100D01*
X009200Y028175D02*
X009275Y028100D01*
X009275Y027800D01*
X009200Y027725D01*
X009050Y027725D01*
X008975Y027800D01*
X008975Y028100D01*
X009050Y028175D01*
X009200Y028175D01*
X009435Y028100D02*
X009435Y027800D01*
X009510Y027725D01*
X009661Y027725D01*
X009736Y027800D01*
X009736Y028100D02*
X009661Y028175D01*
X009510Y028175D01*
X009435Y028100D01*
X005753Y029655D02*
X005602Y029805D01*
X005678Y029805D02*
X005452Y029805D01*
X005452Y029655D02*
X005452Y030105D01*
X005678Y030105D01*
X005753Y030030D01*
X005753Y029880D01*
X005678Y029805D01*
X005292Y029655D02*
X004992Y029655D01*
X004992Y030105D01*
X005292Y030105D01*
X005142Y029880D02*
X004992Y029880D01*
X004832Y029655D02*
X004832Y030105D01*
X004532Y030105D02*
X004532Y029655D01*
X004682Y029805D01*
X004832Y029655D01*
X004371Y029730D02*
X004371Y030030D01*
X004296Y030105D01*
X004146Y030105D01*
X004071Y030030D01*
X004071Y029730D01*
X004146Y029655D01*
X004296Y029655D01*
X004371Y029730D01*
X003911Y029880D02*
X003836Y029805D01*
X003611Y029805D01*
X003611Y029655D02*
X003611Y030105D01*
X003836Y030105D01*
X003911Y030030D01*
X003911Y029880D01*
X003826Y029075D02*
X003676Y029075D01*
X003601Y029000D01*
X003826Y029075D02*
X003901Y029000D01*
X003901Y028925D01*
X003601Y028625D01*
X003901Y028625D01*
X004062Y028775D02*
X004062Y029075D01*
X004362Y029075D02*
X004362Y028775D01*
X004212Y028625D01*
X004062Y028775D01*
X003441Y028625D02*
X003141Y028625D01*
X003291Y028625D02*
X003291Y029075D01*
X003141Y028925D01*
X003341Y031875D02*
X003641Y031875D01*
X003491Y031875D02*
X003491Y032325D01*
X003341Y032175D01*
X005291Y032250D02*
X005366Y032325D01*
X005516Y032325D01*
X005591Y032250D01*
X005591Y032175D01*
X005291Y031875D01*
X005591Y031875D01*
X010425Y023615D02*
X010425Y023315D01*
X010875Y023315D01*
X010875Y023154D02*
X010575Y023154D01*
X010650Y023315D02*
X010650Y023465D01*
X010875Y023154D02*
X010875Y022929D01*
X010800Y022854D01*
X010575Y022854D01*
X010575Y022694D02*
X010650Y022619D01*
X010725Y022694D01*
X010800Y022694D01*
X010875Y022619D01*
X010875Y022469D01*
X010800Y022394D01*
X010800Y022234D02*
X010875Y022159D01*
X010875Y022008D01*
X010800Y021933D01*
X010800Y021778D02*
X010875Y021778D01*
X010875Y021703D01*
X010800Y021703D01*
X010800Y021778D01*
X010800Y021543D02*
X010875Y021468D01*
X010875Y021318D01*
X010800Y021243D01*
X010500Y021543D01*
X010800Y021543D01*
X010800Y021243D02*
X010500Y021243D01*
X010425Y021318D01*
X010425Y021468D01*
X010500Y021543D01*
X010500Y021933D02*
X010425Y022008D01*
X010425Y022159D01*
X010500Y022234D01*
X010575Y022234D01*
X010650Y022159D01*
X010725Y022234D01*
X010800Y022234D01*
X010650Y022159D02*
X010650Y022084D01*
X010500Y022394D02*
X010425Y022469D01*
X010425Y022619D01*
X010500Y022694D01*
X010575Y022694D01*
X010650Y022619D02*
X010650Y022544D01*
X011050Y021275D02*
X010975Y021200D01*
X010975Y020900D01*
X011050Y020825D01*
X011200Y020825D01*
X011275Y020900D01*
X011435Y020825D02*
X011736Y020825D01*
X011586Y020825D02*
X011586Y021275D01*
X011435Y021125D01*
X011275Y021200D02*
X011200Y021275D01*
X011050Y021275D01*
X011896Y021200D02*
X011896Y020900D01*
X012196Y021200D01*
X012196Y020900D01*
X012121Y020825D01*
X011971Y020825D01*
X011896Y020900D01*
X011896Y021200D02*
X011971Y021275D01*
X012121Y021275D01*
X012196Y021200D01*
X012400Y022854D02*
X012700Y022854D01*
X012775Y022929D01*
X012775Y023079D01*
X012700Y023154D01*
X012700Y023315D02*
X012775Y023315D01*
X012700Y023315D02*
X012400Y023615D01*
X012325Y023615D01*
X012325Y023315D01*
X012400Y023154D02*
X012325Y023079D01*
X012325Y022929D01*
X012400Y022854D01*
X012121Y019375D02*
X012196Y019300D01*
X011896Y019000D01*
X011971Y018925D01*
X012121Y018925D01*
X012196Y019000D01*
X012196Y019300D01*
X012121Y019375D02*
X011971Y019375D01*
X011896Y019300D01*
X011896Y019000D01*
X011736Y019000D02*
X011736Y019300D01*
X011435Y019000D01*
X011510Y018925D01*
X011661Y018925D01*
X011736Y019000D01*
X011736Y019300D02*
X011661Y019375D01*
X011510Y019375D01*
X011435Y019300D01*
X011435Y019000D01*
X011275Y018925D02*
X010975Y018925D01*
X011125Y018925D02*
X011125Y019375D01*
X010975Y019225D01*
X012356Y019225D02*
X012356Y018925D01*
X012356Y019225D02*
X012581Y019225D01*
X012656Y019150D01*
X012656Y018925D01*
X012817Y018925D02*
X012817Y019375D01*
X013117Y019375D01*
X012967Y019150D02*
X012817Y019150D01*
X014425Y018175D02*
X014425Y017725D01*
X014425Y017875D02*
X014650Y017875D01*
X014725Y017950D01*
X014725Y018100D01*
X014650Y018175D01*
X014425Y018175D01*
X014575Y017875D02*
X014725Y017725D01*
X014885Y017800D02*
X014960Y017725D01*
X015111Y017725D01*
X015186Y017800D01*
X015186Y017875D01*
X015111Y017950D01*
X015036Y017950D01*
X015111Y017950D02*
X015186Y018025D01*
X015186Y018100D01*
X015111Y018175D01*
X014960Y018175D01*
X014885Y018100D01*
X015346Y018100D02*
X015421Y018175D01*
X015571Y018175D01*
X015646Y018100D01*
X015646Y018025D01*
X015346Y017725D01*
X015646Y017725D01*
X015571Y016675D02*
X015421Y016675D01*
X015346Y016600D01*
X015186Y016600D02*
X015186Y016525D01*
X015111Y016450D01*
X015186Y016375D01*
X015186Y016300D01*
X015111Y016225D01*
X014960Y016225D01*
X014885Y016300D01*
X014725Y016225D02*
X014575Y016375D01*
X014650Y016375D02*
X014425Y016375D01*
X014425Y016225D02*
X014425Y016675D01*
X014650Y016675D01*
X014725Y016600D01*
X014725Y016450D01*
X014650Y016375D01*
X014885Y016600D02*
X014960Y016675D01*
X015111Y016675D01*
X015186Y016600D01*
X015111Y016450D02*
X015036Y016450D01*
X015346Y016300D02*
X015421Y016225D01*
X015571Y016225D01*
X015646Y016300D01*
X015646Y016375D01*
X015571Y016450D01*
X015496Y016450D01*
X015571Y016450D02*
X015646Y016525D01*
X015646Y016600D01*
X015571Y016675D01*
X015111Y015175D02*
X015186Y015100D01*
X015186Y015025D01*
X015111Y014950D01*
X014960Y014950D01*
X014885Y015025D01*
X014885Y015100D01*
X014960Y015175D01*
X015111Y015175D01*
X015111Y014950D02*
X015186Y014875D01*
X015186Y014800D01*
X015111Y014725D01*
X014960Y014725D01*
X014885Y014800D01*
X014885Y014875D01*
X014960Y014950D01*
X014725Y014950D02*
X014650Y014875D01*
X014425Y014875D01*
X014425Y014725D02*
X014425Y015175D01*
X014650Y015175D01*
X014725Y015100D01*
X014725Y014950D01*
X014575Y014875D02*
X014725Y014725D01*
X014650Y013675D02*
X014725Y013600D01*
X014725Y013450D01*
X014650Y013375D01*
X014425Y013375D01*
X014425Y013225D02*
X014425Y013675D01*
X014650Y013675D01*
X014885Y013675D02*
X015186Y013675D01*
X015186Y013600D01*
X014885Y013300D01*
X014885Y013225D01*
X014725Y013225D02*
X014575Y013375D01*
X014650Y012175D02*
X014725Y012100D01*
X014725Y011950D01*
X014650Y011875D01*
X014425Y011875D01*
X014425Y011725D02*
X014425Y012175D01*
X014650Y012175D01*
X014575Y011875D02*
X014725Y011725D01*
X014885Y011800D02*
X014960Y011725D01*
X015111Y011725D01*
X015186Y011800D01*
X015186Y011875D01*
X015111Y011950D01*
X014885Y011950D01*
X014885Y011800D01*
X014885Y011950D02*
X015036Y012100D01*
X015186Y012175D01*
X019425Y012175D02*
X019425Y011725D01*
X019425Y011875D02*
X019650Y011875D01*
X019725Y011950D01*
X019725Y012100D01*
X019650Y012175D01*
X019425Y012175D01*
X019575Y011875D02*
X019725Y011725D01*
X019885Y011725D02*
X020186Y011725D01*
X020036Y011725D02*
X020036Y012175D01*
X019885Y012025D01*
X019885Y013225D02*
X020186Y013525D01*
X020186Y013600D01*
X020111Y013675D01*
X019960Y013675D01*
X019885Y013600D01*
X019725Y013600D02*
X019725Y013450D01*
X019650Y013375D01*
X019425Y013375D01*
X019425Y013225D02*
X019425Y013675D01*
X019650Y013675D01*
X019725Y013600D01*
X019575Y013375D02*
X019725Y013225D01*
X019885Y013225D02*
X020186Y013225D01*
X020111Y014725D02*
X019960Y014725D01*
X019885Y014800D01*
X019725Y014725D02*
X019575Y014875D01*
X019650Y014875D02*
X019425Y014875D01*
X019425Y014725D02*
X019425Y015175D01*
X019650Y015175D01*
X019725Y015100D01*
X019725Y014950D01*
X019650Y014875D01*
X019885Y015100D02*
X019960Y015175D01*
X020111Y015175D01*
X020186Y015100D01*
X020186Y015025D01*
X020111Y014950D01*
X020186Y014875D01*
X020186Y014800D01*
X020111Y014725D01*
X020111Y014950D02*
X020036Y014950D01*
X020111Y016225D02*
X020111Y016675D01*
X019885Y016450D01*
X020186Y016450D01*
X019725Y016450D02*
X019650Y016375D01*
X019425Y016375D01*
X019425Y016225D02*
X019425Y016675D01*
X019650Y016675D01*
X019725Y016600D01*
X019725Y016450D01*
X019575Y016375D02*
X019725Y016225D01*
X019725Y017725D02*
X019575Y017875D01*
X019650Y017875D02*
X019425Y017875D01*
X019465Y017875D02*
X019165Y017875D01*
X019315Y017875D02*
X019315Y018325D01*
X019165Y018175D01*
X019004Y018250D02*
X018929Y018325D01*
X018704Y018325D01*
X018704Y017875D01*
X018929Y017875D01*
X019004Y017950D01*
X019004Y018250D01*
X019425Y018175D02*
X019650Y018175D01*
X019725Y018100D01*
X019725Y017950D01*
X019650Y017875D01*
X019885Y017800D02*
X019960Y017725D01*
X020111Y017725D01*
X020186Y017800D01*
X020186Y017950D01*
X020111Y018025D01*
X020036Y018025D01*
X019885Y017950D01*
X019885Y018175D01*
X020186Y018175D01*
X019425Y018175D02*
X019425Y017725D01*
X018390Y019975D02*
X018240Y019975D01*
X018165Y020050D01*
X018465Y020350D01*
X018465Y020050D01*
X018390Y019975D01*
X018165Y020050D02*
X018165Y020350D01*
X018240Y020425D01*
X018390Y020425D01*
X018465Y020350D01*
X018004Y020350D02*
X018004Y020050D01*
X017929Y019975D01*
X017779Y019975D01*
X017704Y020050D01*
X018004Y020350D01*
X017929Y020425D01*
X017779Y020425D01*
X017704Y020350D01*
X017704Y020050D01*
X017544Y020200D02*
X017244Y020200D01*
X017469Y020425D01*
X017469Y019975D01*
X017084Y020050D02*
X017084Y020200D01*
X017009Y020275D01*
X016934Y020275D01*
X016783Y020200D01*
X016783Y020425D01*
X017084Y020425D01*
X017084Y020050D02*
X017009Y019975D01*
X016858Y019975D01*
X016783Y020050D01*
X016623Y019975D02*
X016623Y020425D01*
X016323Y020425D02*
X016323Y019975D01*
X016163Y019975D02*
X015863Y019975D01*
X016013Y019975D02*
X016013Y020425D01*
X015863Y020275D01*
X016323Y020425D02*
X016623Y019975D01*
X023187Y018341D02*
X023187Y018116D01*
X023637Y018116D01*
X023487Y018116D02*
X023487Y018341D01*
X023412Y018416D01*
X023262Y018416D01*
X023187Y018341D01*
X023487Y018266D02*
X023637Y018416D01*
X023562Y017956D02*
X023262Y017956D01*
X023187Y017880D01*
X023187Y017730D01*
X023262Y017655D01*
X023562Y017655D01*
X023637Y017730D01*
X023637Y017880D01*
X023562Y017956D01*
X023562Y017495D02*
X023637Y017420D01*
X023637Y017270D01*
X023562Y017195D01*
X023412Y017270D02*
X023412Y017420D01*
X023487Y017495D01*
X023562Y017495D01*
X023412Y017270D02*
X023337Y017195D01*
X023262Y017195D01*
X023187Y017270D01*
X023187Y017420D01*
X023262Y017495D01*
X023187Y017035D02*
X023637Y017035D01*
X023187Y016735D01*
X023637Y016735D01*
X023637Y016574D02*
X023637Y016274D01*
X023187Y016274D01*
X023187Y016574D01*
X023412Y016424D02*
X023412Y016274D01*
X023487Y016114D02*
X023562Y016114D01*
X023637Y016039D01*
X023637Y015889D01*
X023562Y015814D01*
X023412Y015889D02*
X023412Y016039D01*
X023487Y016114D01*
X023262Y016114D02*
X023187Y016039D01*
X023187Y015889D01*
X023262Y015814D01*
X023337Y015814D01*
X023412Y015889D01*
X023712Y015654D02*
X023712Y015353D01*
X023487Y015118D02*
X023487Y014893D01*
X023637Y014893D02*
X023187Y014893D01*
X023187Y015118D01*
X023262Y015193D01*
X023412Y015193D01*
X023487Y015118D01*
X023637Y014733D02*
X023187Y014733D01*
X023337Y014583D01*
X023187Y014433D01*
X023637Y014433D01*
X023637Y014272D02*
X023637Y013972D01*
X023187Y013972D01*
X023187Y014272D01*
X023412Y014122D02*
X023412Y013972D01*
X023187Y013812D02*
X023187Y013512D01*
X023187Y013662D02*
X023637Y013662D01*
X023569Y011078D02*
X023494Y011003D01*
X023494Y010703D01*
X023569Y010628D01*
X023719Y010628D01*
X023794Y010703D01*
X023954Y010778D02*
X024179Y010778D01*
X024254Y010853D01*
X024254Y011003D01*
X024179Y011078D01*
X023954Y011078D01*
X023954Y010628D01*
X023794Y011003D02*
X023719Y011078D01*
X023569Y011078D01*
X024415Y011078D02*
X024415Y010703D01*
X024490Y010628D01*
X024640Y010628D01*
X024715Y010703D01*
X024715Y011078D01*
X024715Y008078D02*
X024415Y007778D01*
X024490Y007853D02*
X024715Y007628D01*
X024415Y007628D02*
X024415Y008078D01*
X024254Y008003D02*
X024179Y008078D01*
X024029Y008078D01*
X023954Y008003D01*
X023954Y007703D01*
X024029Y007628D01*
X024179Y007628D01*
X024254Y007703D01*
X023794Y007703D02*
X023719Y007628D01*
X023569Y007628D01*
X023494Y007703D01*
X023569Y007853D02*
X023719Y007853D01*
X023794Y007778D01*
X023794Y007703D01*
X023569Y007853D02*
X023494Y007928D01*
X023494Y008003D01*
X023569Y008078D01*
X023719Y008078D01*
X023794Y008003D01*
X023719Y005078D02*
X023494Y005078D01*
X023494Y004628D01*
X023494Y004778D02*
X023719Y004778D01*
X023794Y004853D01*
X023794Y005003D01*
X023719Y005078D01*
X023954Y005078D02*
X023954Y004628D01*
X024104Y004778D01*
X024254Y004628D01*
X024254Y005078D01*
X024415Y005078D02*
X024640Y005078D01*
X024715Y005003D01*
X024715Y004853D01*
X024640Y004778D01*
X024415Y004778D01*
X024565Y004778D02*
X024715Y004628D01*
X024415Y004628D02*
X024415Y005078D01*
X023334Y004553D02*
X023033Y004553D01*
X022873Y004703D02*
X022873Y005003D01*
X022798Y005078D01*
X022573Y005078D01*
X022573Y004628D01*
X022798Y004628D01*
X022873Y004703D01*
X022413Y004628D02*
X022113Y004628D01*
X022113Y005078D01*
X022413Y005078D01*
X022263Y004853D02*
X022113Y004853D01*
X021953Y004628D02*
X021652Y004628D01*
X021652Y005078D01*
X020680Y004875D02*
X020380Y004875D01*
X020380Y005325D01*
X020220Y005175D02*
X020220Y004875D01*
X020220Y005100D02*
X019919Y005100D01*
X019919Y005175D02*
X020070Y005325D01*
X020220Y005175D01*
X019919Y005175D02*
X019919Y004875D01*
X019763Y004875D02*
X019612Y004875D01*
X019688Y004875D02*
X019688Y005325D01*
X019763Y005325D02*
X019612Y005325D01*
X019452Y005250D02*
X019452Y005100D01*
X019377Y005025D01*
X019152Y005025D01*
X019152Y004875D02*
X019152Y005325D01*
X019377Y005325D01*
X019452Y005250D01*
X019302Y005025D02*
X019452Y004875D01*
X018992Y004875D02*
X018692Y004875D01*
X018692Y005325D01*
X018992Y005325D01*
X018842Y005100D02*
X018692Y005100D01*
X018532Y005025D02*
X018532Y004950D01*
X018456Y004875D01*
X018306Y004875D01*
X018231Y004950D01*
X018306Y005100D02*
X018456Y005100D01*
X018532Y005025D01*
X018532Y005250D02*
X018456Y005325D01*
X018306Y005325D01*
X018231Y005250D01*
X018231Y005175D01*
X018306Y005100D01*
X008475Y002046D02*
X008475Y001746D01*
X008475Y001896D02*
X008025Y001896D01*
X008175Y001746D01*
X008025Y001586D02*
X008475Y001586D01*
X008325Y001436D01*
X008475Y001285D01*
X008025Y001285D01*
X008100Y001125D02*
X008025Y001050D01*
X008025Y000900D01*
X008100Y000825D01*
X008175Y000825D01*
X008250Y000900D01*
X008250Y001050D01*
X008325Y001125D01*
X008400Y001125D01*
X008475Y001050D01*
X008475Y000900D01*
X008400Y000825D01*
X006470Y006234D02*
X006170Y006234D01*
X006095Y006309D01*
X006095Y006459D01*
X006170Y006534D01*
X006470Y006534D01*
X006545Y006459D01*
X006545Y006309D01*
X006470Y006234D01*
X006395Y006384D02*
X006545Y006534D01*
X006545Y006695D02*
X006545Y006995D01*
X006545Y006845D02*
X006095Y006845D01*
X006245Y006695D01*
X007750Y012925D02*
X007825Y012925D01*
X007900Y013000D01*
X007900Y013150D01*
X007975Y013225D01*
X008050Y013225D01*
X008125Y013150D01*
X008125Y013000D01*
X008050Y012925D01*
X007750Y012925D02*
X007675Y013000D01*
X007675Y013150D01*
X007750Y013225D01*
X007825Y013385D02*
X007675Y013536D01*
X008125Y013536D01*
X008125Y013686D02*
X008125Y013385D01*
X008121Y018875D02*
X008121Y019325D01*
X008046Y019325D02*
X008196Y019325D01*
X008353Y019175D02*
X008503Y019325D01*
X008503Y018875D01*
X008353Y018875D02*
X008653Y018875D01*
X008196Y018875D02*
X008046Y018875D01*
X007886Y018875D02*
X007886Y019325D01*
X007585Y019325D02*
X007585Y018875D01*
X007736Y019025D01*
X007886Y018875D01*
X007425Y019325D02*
X007125Y019325D01*
X007275Y019325D02*
X007275Y018875D01*
X023187Y022774D02*
X023187Y022999D01*
X023262Y023074D01*
X023412Y023074D01*
X023487Y022999D01*
X023487Y022774D01*
X023637Y022774D02*
X023187Y022774D01*
X023262Y023235D02*
X023562Y023235D01*
X023637Y023310D01*
X023637Y023460D01*
X023562Y023535D01*
X023637Y023695D02*
X023187Y023695D01*
X023187Y023995D01*
X023337Y024155D02*
X023187Y024305D01*
X023337Y024456D01*
X023637Y024456D01*
X023637Y024616D02*
X023187Y024616D01*
X023637Y024916D01*
X023187Y024916D01*
X023412Y024456D02*
X023412Y024155D01*
X023337Y024155D02*
X023637Y024155D01*
X023412Y023845D02*
X023412Y023695D01*
X023262Y023535D02*
X023187Y023460D01*
X023187Y023310D01*
X023262Y023235D01*
X024155Y026783D02*
X024155Y027008D01*
X024230Y027083D01*
X024380Y027083D01*
X024455Y027008D01*
X024455Y026783D01*
X024605Y026783D02*
X024155Y026783D01*
X024155Y027243D02*
X024605Y027243D01*
X024605Y027543D01*
X024605Y027703D02*
X024605Y028004D01*
X024605Y027703D02*
X024155Y027703D01*
X024155Y027543D02*
X024155Y027243D01*
X024380Y027243D02*
X024380Y027393D01*
X024155Y028164D02*
X024155Y028464D01*
X024155Y028314D02*
X024605Y028314D01*
X024605Y028624D02*
X024605Y028774D01*
X024605Y028699D02*
X024155Y028699D01*
X024155Y028624D02*
X024155Y028774D01*
X024155Y028931D02*
X024605Y028931D01*
X024605Y029231D01*
X024605Y029391D02*
X024155Y029391D01*
X024155Y029617D01*
X024230Y029692D01*
X024380Y029692D01*
X024455Y029617D01*
X024455Y029391D01*
X024455Y029542D02*
X024605Y029692D01*
X024155Y029231D02*
X024155Y028931D01*
X024380Y028931D02*
X024380Y029081D01*
X026375Y029812D02*
X026825Y029812D01*
X026825Y029962D02*
X026825Y029661D01*
X026525Y029661D02*
X026375Y029812D01*
X026450Y028012D02*
X026375Y027937D01*
X026375Y027787D01*
X026450Y027711D01*
X026450Y028012D02*
X026525Y028012D01*
X026825Y027711D01*
X026825Y028012D01*
D17*
X025100Y012063D02*
X025143Y012117D01*
X025189Y012169D01*
X025238Y012218D01*
X025290Y012265D01*
X025344Y012308D01*
X025400Y012349D01*
X025459Y012386D01*
X025519Y012420D01*
X025582Y012450D01*
X025645Y012477D01*
X025711Y012501D01*
X025777Y012521D01*
X025845Y012537D01*
X025913Y012549D01*
X025982Y012557D01*
X026051Y012562D01*
X026121Y012563D01*
X026190Y012560D01*
X026259Y012553D01*
X026327Y012542D01*
X026395Y012528D01*
X026462Y012509D01*
X026528Y012487D01*
X026593Y012462D01*
X026656Y012433D01*
X026717Y012400D01*
X026776Y012364D01*
X026833Y012325D01*
X026889Y012283D01*
X026941Y012238D01*
X026991Y012190D01*
X027038Y012139D01*
X027083Y012085D01*
X027124Y012030D01*
X027162Y011972D01*
X027197Y011912D01*
X027229Y011850D01*
X027257Y011787D01*
X027281Y011722D01*
X027302Y011656D01*
X027319Y011588D01*
X027333Y011520D01*
X027342Y011451D01*
X027348Y011382D01*
X027350Y011313D01*
X027348Y011244D01*
X027342Y011175D01*
X027333Y011106D01*
X027319Y011038D01*
X027302Y010970D01*
X027281Y010904D01*
X027257Y010839D01*
X027229Y010776D01*
X027197Y010714D01*
X027162Y010654D01*
X027124Y010596D01*
X027083Y010541D01*
X027038Y010487D01*
X026991Y010436D01*
X026941Y010388D01*
X026889Y010343D01*
X026833Y010301D01*
X026776Y010262D01*
X026717Y010226D01*
X026656Y010193D01*
X026593Y010164D01*
X026528Y010139D01*
X026462Y010117D01*
X026395Y010098D01*
X026327Y010084D01*
X026259Y010073D01*
X026190Y010066D01*
X026121Y010063D01*
X026051Y010064D01*
X025982Y010069D01*
X025913Y010077D01*
X025845Y010089D01*
X025777Y010105D01*
X025711Y010125D01*
X025645Y010149D01*
X025582Y010176D01*
X025519Y010206D01*
X025459Y010240D01*
X025400Y010277D01*
X025344Y010318D01*
X025290Y010361D01*
X025238Y010408D01*
X025189Y010457D01*
X025143Y010509D01*
X025100Y010563D01*
X025100Y009063D02*
X025143Y009117D01*
X025189Y009169D01*
X025238Y009218D01*
X025290Y009265D01*
X025344Y009308D01*
X025400Y009349D01*
X025459Y009386D01*
X025519Y009420D01*
X025582Y009450D01*
X025645Y009477D01*
X025711Y009501D01*
X025777Y009521D01*
X025845Y009537D01*
X025913Y009549D01*
X025982Y009557D01*
X026051Y009562D01*
X026121Y009563D01*
X026190Y009560D01*
X026259Y009553D01*
X026327Y009542D01*
X026395Y009528D01*
X026462Y009509D01*
X026528Y009487D01*
X026593Y009462D01*
X026656Y009433D01*
X026717Y009400D01*
X026776Y009364D01*
X026833Y009325D01*
X026889Y009283D01*
X026941Y009238D01*
X026991Y009190D01*
X027038Y009139D01*
X027083Y009085D01*
X027124Y009030D01*
X027162Y008972D01*
X027197Y008912D01*
X027229Y008850D01*
X027257Y008787D01*
X027281Y008722D01*
X027302Y008656D01*
X027319Y008588D01*
X027333Y008520D01*
X027342Y008451D01*
X027348Y008382D01*
X027350Y008313D01*
X027348Y008244D01*
X027342Y008175D01*
X027333Y008106D01*
X027319Y008038D01*
X027302Y007970D01*
X027281Y007904D01*
X027257Y007839D01*
X027229Y007776D01*
X027197Y007714D01*
X027162Y007654D01*
X027124Y007596D01*
X027083Y007541D01*
X027038Y007487D01*
X026991Y007436D01*
X026941Y007388D01*
X026889Y007343D01*
X026833Y007301D01*
X026776Y007262D01*
X026717Y007226D01*
X026656Y007193D01*
X026593Y007164D01*
X026528Y007139D01*
X026462Y007117D01*
X026395Y007098D01*
X026327Y007084D01*
X026259Y007073D01*
X026190Y007066D01*
X026121Y007063D01*
X026051Y007064D01*
X025982Y007069D01*
X025913Y007077D01*
X025845Y007089D01*
X025777Y007105D01*
X025711Y007125D01*
X025645Y007149D01*
X025582Y007176D01*
X025519Y007206D01*
X025459Y007240D01*
X025400Y007277D01*
X025344Y007318D01*
X025290Y007361D01*
X025238Y007408D01*
X025189Y007457D01*
X025143Y007509D01*
X025100Y007563D01*
X025100Y006063D02*
X025143Y006117D01*
X025189Y006169D01*
X025238Y006218D01*
X025290Y006265D01*
X025344Y006308D01*
X025400Y006349D01*
X025459Y006386D01*
X025519Y006420D01*
X025582Y006450D01*
X025645Y006477D01*
X025711Y006501D01*
X025777Y006521D01*
X025845Y006537D01*
X025913Y006549D01*
X025982Y006557D01*
X026051Y006562D01*
X026121Y006563D01*
X026190Y006560D01*
X026259Y006553D01*
X026327Y006542D01*
X026395Y006528D01*
X026462Y006509D01*
X026528Y006487D01*
X026593Y006462D01*
X026656Y006433D01*
X026717Y006400D01*
X026776Y006364D01*
X026833Y006325D01*
X026889Y006283D01*
X026941Y006238D01*
X026991Y006190D01*
X027038Y006139D01*
X027083Y006085D01*
X027124Y006030D01*
X027162Y005972D01*
X027197Y005912D01*
X027229Y005850D01*
X027257Y005787D01*
X027281Y005722D01*
X027302Y005656D01*
X027319Y005588D01*
X027333Y005520D01*
X027342Y005451D01*
X027348Y005382D01*
X027350Y005313D01*
X027348Y005244D01*
X027342Y005175D01*
X027333Y005106D01*
X027319Y005038D01*
X027302Y004970D01*
X027281Y004904D01*
X027257Y004839D01*
X027229Y004776D01*
X027197Y004714D01*
X027162Y004654D01*
X027124Y004596D01*
X027083Y004541D01*
X027038Y004487D01*
X026991Y004436D01*
X026941Y004388D01*
X026889Y004343D01*
X026833Y004301D01*
X026776Y004262D01*
X026717Y004226D01*
X026656Y004193D01*
X026593Y004164D01*
X026528Y004139D01*
X026462Y004117D01*
X026395Y004098D01*
X026327Y004084D01*
X026259Y004073D01*
X026190Y004066D01*
X026121Y004063D01*
X026051Y004064D01*
X025982Y004069D01*
X025913Y004077D01*
X025845Y004089D01*
X025777Y004105D01*
X025711Y004125D01*
X025645Y004149D01*
X025582Y004176D01*
X025519Y004206D01*
X025459Y004240D01*
X025400Y004277D01*
X025344Y004318D01*
X025290Y004361D01*
X025238Y004408D01*
X025189Y004457D01*
X025143Y004509D01*
X025100Y004563D01*
X011700Y019800D02*
X011700Y020100D01*
X011700Y020400D01*
X011500Y020400D02*
X011500Y020100D01*
X011500Y019800D01*
X011600Y023000D02*
X011300Y023000D01*
X011300Y023200D02*
X011600Y023200D01*
X011900Y023200D01*
X011900Y023000D02*
X011600Y023000D01*
X008400Y022700D02*
X008100Y022700D01*
X007800Y022700D01*
X007800Y022500D02*
X008100Y022500D01*
X008400Y022500D01*
X001900Y009200D02*
X001600Y009200D01*
X001300Y009200D01*
X001300Y009000D02*
X001600Y009000D01*
X001900Y009000D01*
X001900Y003594D02*
X001600Y003594D01*
X001300Y003594D01*
X001300Y003394D02*
X001600Y003394D01*
X001900Y003394D01*
D18*
X005384Y009873D02*
X005595Y010083D01*
X005384Y010294D01*
X006015Y010294D01*
X006015Y010518D02*
X006015Y010938D01*
X005910Y011162D02*
X006015Y011267D01*
X006015Y011478D01*
X005910Y011583D01*
X005700Y011583D01*
X005700Y011372D01*
X005490Y011162D02*
X005910Y011162D01*
X005490Y011162D02*
X005384Y011267D01*
X005384Y011478D01*
X005490Y011583D01*
X005595Y011807D02*
X005384Y012017D01*
X005595Y012227D01*
X006015Y012227D01*
X005910Y012451D02*
X005805Y012451D01*
X005700Y012556D01*
X005700Y012767D01*
X005805Y012872D01*
X005910Y012872D01*
X006015Y012767D01*
X006015Y012556D01*
X005910Y012451D01*
X005700Y012556D02*
X005595Y012451D01*
X005490Y012451D01*
X005384Y012556D01*
X005384Y012767D01*
X005490Y012872D01*
X005595Y012872D01*
X005700Y012767D01*
X005700Y013096D02*
X005700Y013516D01*
X005805Y013740D02*
X005805Y014056D01*
X005700Y014161D01*
X005490Y014161D01*
X005384Y014056D01*
X005384Y013740D01*
X006015Y013740D01*
X005700Y012227D02*
X005700Y011807D01*
X005595Y011807D02*
X006015Y011807D01*
X005384Y010938D02*
X005384Y010518D01*
X006015Y010518D01*
X005700Y010518D02*
X005700Y010728D01*
X006015Y009873D02*
X005384Y009873D01*
X005380Y015695D02*
X005170Y015695D01*
X005065Y015800D01*
X005065Y016220D01*
X005170Y016326D01*
X005380Y016326D01*
X005485Y016220D01*
X005709Y016115D02*
X005919Y016326D01*
X005919Y015695D01*
X005709Y015695D02*
X006130Y015695D01*
X005485Y015800D02*
X005380Y015695D01*
X004845Y015695D02*
X004635Y015695D01*
X004740Y015695D02*
X004740Y016326D01*
X004635Y016326D02*
X004845Y016326D01*
X001365Y024262D02*
X001260Y024262D01*
X000840Y024683D01*
X000734Y024683D01*
X000734Y024262D01*
X000840Y024907D02*
X000945Y024907D01*
X001050Y025012D01*
X001050Y025222D01*
X001155Y025327D01*
X001260Y025327D01*
X001365Y025222D01*
X001365Y025012D01*
X001260Y024907D01*
X001155Y024907D01*
X001050Y025012D01*
X001050Y025222D02*
X000945Y025327D01*
X000840Y025327D01*
X000734Y025222D01*
X000734Y025012D01*
X000840Y024907D01*
X000840Y025551D02*
X000734Y025656D01*
X000734Y025867D01*
X000840Y025972D01*
X001260Y025551D01*
X001365Y025656D01*
X001365Y025867D01*
X001260Y025972D01*
X000840Y025972D01*
X000734Y026196D02*
X001050Y026196D01*
X000945Y026406D01*
X000945Y026511D01*
X001050Y026616D01*
X001260Y026616D01*
X001365Y026511D01*
X001365Y026301D01*
X001260Y026196D01*
X000734Y026196D02*
X000734Y026616D01*
X000734Y026840D02*
X000734Y027261D01*
X000734Y027051D02*
X001365Y027051D01*
X001260Y025551D02*
X000840Y025551D01*
X005784Y025716D02*
X005784Y025926D01*
X005784Y025821D02*
X006415Y025821D01*
X006415Y025716D02*
X006415Y025926D01*
X006310Y026146D02*
X006415Y026251D01*
X006415Y026461D01*
X006310Y026566D01*
X006310Y026790D02*
X006415Y026896D01*
X006415Y027106D01*
X006310Y027211D01*
X005890Y027211D01*
X005784Y027106D01*
X005784Y026896D01*
X005890Y026790D01*
X005995Y026790D01*
X006100Y026896D01*
X006100Y027211D01*
X005890Y026566D02*
X005784Y026461D01*
X005784Y026251D01*
X005890Y026146D01*
X006310Y026146D01*
X016884Y028740D02*
X016884Y028950D01*
X016990Y029055D01*
X017410Y029055D01*
X017515Y028950D01*
X017515Y028740D01*
X017410Y028635D01*
X016990Y028635D01*
X016884Y028740D01*
X017305Y028845D02*
X017515Y029055D01*
X017200Y029280D02*
X017200Y029700D01*
X017515Y029595D02*
X016884Y029595D01*
X017200Y029280D01*
X017934Y029330D02*
X017934Y029015D01*
X018565Y029015D01*
X018355Y029015D02*
X018355Y029330D01*
X018250Y029435D01*
X018040Y029435D01*
X017934Y029330D01*
X017934Y029659D02*
X018565Y029659D01*
X018565Y030080D01*
X018565Y030304D02*
X018565Y030724D01*
X018250Y030948D02*
X018250Y031369D01*
X018250Y031593D02*
X018250Y032013D01*
X018460Y032237D02*
X018565Y032237D01*
X018565Y032658D01*
X018460Y032237D02*
X018040Y032658D01*
X017934Y032658D01*
X017934Y032237D01*
X017934Y031908D02*
X018250Y031593D01*
X018565Y031908D02*
X017934Y031908D01*
X017934Y031264D02*
X018250Y030948D01*
X018040Y030724D02*
X018460Y030304D01*
X018565Y030304D01*
X017934Y030304D02*
X017934Y030724D01*
X018040Y030724D01*
X017934Y031264D02*
X018565Y031264D01*
X018565Y029435D02*
X018355Y029225D01*
X018565Y028795D02*
X018565Y028585D01*
X018565Y028690D02*
X017934Y028690D01*
X017934Y028585D02*
X017934Y028795D01*
X017934Y026158D02*
X018040Y026158D01*
X018460Y025737D01*
X018565Y025737D01*
X018565Y026158D01*
X018250Y025513D02*
X018250Y025093D01*
X017934Y025408D01*
X018565Y025408D01*
X018250Y024869D02*
X018250Y024448D01*
X017934Y024764D01*
X018565Y024764D01*
X018565Y024224D02*
X018565Y023804D01*
X018460Y023804D01*
X018040Y024224D01*
X017934Y024224D01*
X017934Y023804D01*
X017934Y023159D02*
X018565Y023159D01*
X018565Y023580D01*
X018565Y022935D02*
X018355Y022725D01*
X018355Y022830D02*
X018355Y022515D01*
X018565Y022515D02*
X017934Y022515D01*
X017934Y022830D01*
X018040Y022935D01*
X018250Y022935D01*
X018355Y022830D01*
X018565Y022295D02*
X018565Y022085D01*
X018565Y022190D02*
X017934Y022190D01*
X017934Y022085D02*
X017934Y022295D01*
X017515Y022240D02*
X017410Y022135D01*
X016990Y022135D01*
X016884Y022240D01*
X016884Y022450D01*
X016990Y022555D01*
X017410Y022555D01*
X017515Y022450D01*
X017515Y022240D01*
X017305Y022345D02*
X017515Y022555D01*
X017410Y022780D02*
X017515Y022885D01*
X017515Y023095D01*
X017410Y023200D01*
X017305Y023200D01*
X017200Y023095D01*
X017200Y022990D01*
X017200Y023095D02*
X017095Y023200D01*
X016990Y023200D01*
X016884Y023095D01*
X016884Y022885D01*
X016990Y022780D01*
X017934Y025737D02*
X017934Y026158D01*
D19*
X021325Y024600D03*
X021325Y023600D03*
X021325Y022600D03*
X021325Y029100D03*
X021325Y030100D03*
X021325Y031100D03*
D20*
X020650Y031100D03*
X020650Y030100D03*
X020650Y029100D03*
X020650Y024600D03*
X020650Y023600D03*
X020650Y022600D03*
D21*
X025100Y012063D02*
X025100Y010563D01*
X025100Y009063D02*
X025100Y007563D01*
X025100Y006063D02*
X025100Y004563D01*
D22*
X004600Y027325D03*
X003600Y027325D03*
X002600Y027325D03*
D23*
X002600Y026650D03*
X003600Y026650D03*
X004600Y026650D03*
D24*
X005350Y018100D02*
X003100Y018100D01*
X003100Y017100D02*
X005350Y017100D01*
X009100Y017100D02*
X011350Y017100D01*
X011350Y018100D02*
X009100Y018100D01*
X020206Y004100D02*
X022456Y004100D01*
X022456Y003100D02*
X020206Y003100D01*
D25*
X020056Y003100D03*
X020056Y004100D03*
X008950Y017100D03*
X008950Y018100D03*
X002950Y018100D03*
X002950Y017100D03*
D26*
X001650Y017100D03*
X001650Y018100D03*
X007650Y018100D03*
X007650Y017100D03*
X018756Y004100D03*
X018756Y003100D03*
D27*
X019180Y011100D03*
X019180Y012600D03*
X019180Y014100D03*
X019180Y015600D03*
X019180Y017100D03*
X017020Y017100D03*
X017020Y015600D03*
X017020Y014100D03*
X017020Y012600D03*
X017020Y011100D03*
X014180Y011100D03*
X014180Y012600D03*
X014180Y014100D03*
X014180Y015600D03*
X014180Y017100D03*
X022020Y017100D03*
X022020Y015600D03*
X022020Y014100D03*
X022020Y012600D03*
X022020Y011100D03*
D28*
X019100Y019600D03*
D29*
X019775Y019600D03*
X015425Y019600D03*
D30*
X011175Y008600D03*
X010925Y008600D03*
X010675Y008600D03*
X010675Y007600D03*
X010925Y007600D03*
X011175Y007600D03*
X011175Y006600D03*
X010925Y006600D03*
X010675Y006600D03*
X010675Y005600D03*
X010925Y005600D03*
X011175Y005600D03*
X011175Y004600D03*
X010925Y004600D03*
X010675Y004600D03*
X010675Y003600D03*
X010925Y003600D03*
X011175Y003600D03*
X011175Y002600D03*
X010925Y002600D03*
X010675Y002600D03*
X010675Y001600D03*
X010925Y001600D03*
X011175Y001600D03*
M02*
