G75*
%MOIN*%
%OFA0B0*%
%FSLAX24Y24*%
%IPPOS*%
%LPD*%
%AMOC8*
5,1,8,0,0,1.08239X$1,22.5*
%
%ADD10R,0.0960X0.0040*%
%ADD11R,0.1480X0.0040*%
%ADD12R,0.2000X0.0040*%
%ADD13R,0.2320X0.0040*%
%ADD14R,0.2600X0.0040*%
%ADD15R,0.3000X0.0040*%
%ADD16R,0.3240X0.0040*%
%ADD17R,0.3480X0.0040*%
%ADD18R,0.3640X0.0040*%
%ADD19R,0.3840X0.0040*%
%ADD20R,0.4040X0.0040*%
%ADD21R,0.4280X0.0040*%
%ADD22R,0.4440X0.0040*%
%ADD23R,0.4600X0.0040*%
%ADD24R,0.4720X0.0040*%
%ADD25R,0.4880X0.0040*%
%ADD26R,0.5040X0.0040*%
%ADD27R,0.5200X0.0040*%
%ADD28R,0.5320X0.0040*%
%ADD29R,0.5440X0.0040*%
%ADD30R,0.5560X0.0040*%
%ADD31R,0.5720X0.0040*%
%ADD32R,0.5840X0.0040*%
%ADD33R,0.5920X0.0040*%
%ADD34R,0.6040X0.0040*%
%ADD35R,0.6120X0.0040*%
%ADD36R,0.6240X0.0040*%
%ADD37R,0.6360X0.0040*%
%ADD38R,0.6480X0.0040*%
%ADD39R,0.6560X0.0040*%
%ADD40R,0.6680X0.0040*%
%ADD41R,0.6760X0.0040*%
%ADD42R,0.6840X0.0040*%
%ADD43R,0.6920X0.0040*%
%ADD44R,0.7000X0.0040*%
%ADD45R,0.7120X0.0040*%
%ADD46R,0.7200X0.0040*%
%ADD47R,0.7280X0.0040*%
%ADD48R,0.7360X0.0040*%
%ADD49R,0.7480X0.0040*%
%ADD50R,0.7520X0.0040*%
%ADD51R,0.7560X0.0040*%
%ADD52R,0.7640X0.0040*%
%ADD53R,0.7720X0.0040*%
%ADD54R,0.7800X0.0040*%
%ADD55R,0.7880X0.0040*%
%ADD56R,0.7960X0.0040*%
%ADD57R,0.8000X0.0040*%
%ADD58R,0.8080X0.0040*%
%ADD59R,0.8120X0.0040*%
%ADD60R,0.3560X0.0040*%
%ADD61R,0.3600X0.0040*%
%ADD62R,0.3400X0.0040*%
%ADD63R,0.3280X0.0040*%
%ADD64R,0.3160X0.0040*%
%ADD65R,0.3200X0.0040*%
%ADD66R,0.3120X0.0040*%
%ADD67R,0.2960X0.0040*%
%ADD68R,0.2880X0.0040*%
%ADD69R,0.2920X0.0040*%
%ADD70R,0.2840X0.0040*%
%ADD71R,0.2760X0.0040*%
%ADD72R,0.2800X0.0040*%
%ADD73R,0.2720X0.0040*%
%ADD74R,0.2680X0.0040*%
%ADD75R,0.2640X0.0040*%
%ADD76R,0.2560X0.0040*%
%ADD77R,0.2520X0.0040*%
%ADD78R,0.2480X0.0040*%
%ADD79R,0.2440X0.0040*%
%ADD80R,0.2400X0.0040*%
%ADD81R,0.2360X0.0040*%
%ADD82R,0.0320X0.0040*%
%ADD83R,0.0600X0.0040*%
%ADD84R,0.0720X0.0040*%
%ADD85R,0.2280X0.0040*%
%ADD86R,0.0880X0.0040*%
%ADD87R,0.2240X0.0040*%
%ADD88R,0.1040X0.0040*%
%ADD89R,0.2200X0.0040*%
%ADD90R,0.1120X0.0040*%
%ADD91R,0.1200X0.0040*%
%ADD92R,0.2160X0.0040*%
%ADD93R,0.1240X0.0040*%
%ADD94R,0.1280X0.0040*%
%ADD95R,0.1320X0.0040*%
%ADD96R,0.2120X0.0040*%
%ADD97R,0.2080X0.0040*%
%ADD98R,0.2040X0.0040*%
%ADD99R,0.1960X0.0040*%
%ADD100R,0.1160X0.0040*%
%ADD101R,0.1520X0.0040*%
%ADD102R,0.1920X0.0040*%
%ADD103R,0.0040X0.0040*%
%ADD104R,0.0120X0.0040*%
%ADD105R,0.0200X0.0040*%
%ADD106R,0.0280X0.0040*%
%ADD107R,0.0360X0.0040*%
%ADD108R,0.0440X0.0040*%
%ADD109R,0.0520X0.0040*%
%ADD110R,0.0680X0.0040*%
%ADD111R,0.0760X0.0040*%
%ADD112R,0.0840X0.0040*%
%ADD113R,0.0920X0.0040*%
%ADD114R,0.1000X0.0040*%
%ADD115R,0.1080X0.0040*%
%ADD116R,0.0080X0.0040*%
%ADD117R,0.0160X0.0040*%
%ADD118R,0.0240X0.0040*%
%ADD119R,0.1400X0.0040*%
%ADD120R,0.1560X0.0040*%
%ADD121R,0.1640X0.0040*%
%ADD122R,0.1720X0.0040*%
%ADD123R,0.1800X0.0040*%
%ADD124R,0.1880X0.0040*%
%ADD125R,0.0480X0.0040*%
%ADD126R,0.0560X0.0040*%
%ADD127R,0.0640X0.0040*%
%ADD128R,0.0800X0.0040*%
%ADD129R,0.4840X0.0040*%
%ADD130R,0.4800X0.0040*%
%ADD131R,0.4760X0.0040*%
%ADD132R,0.4680X0.0040*%
%ADD133R,0.4640X0.0040*%
%ADD134R,0.4560X0.0040*%
%ADD135R,0.4520X0.0040*%
%ADD136R,0.4480X0.0040*%
%ADD137R,0.4400X0.0040*%
%ADD138R,0.4360X0.0040*%
%ADD139R,0.4320X0.0040*%
%ADD140R,0.4240X0.0040*%
%ADD141R,0.4200X0.0040*%
%ADD142R,0.4160X0.0040*%
%ADD143R,0.4120X0.0040*%
%ADD144R,0.3960X0.0040*%
%ADD145R,0.3880X0.0040*%
%ADD146R,0.0400X0.0040*%
%ADD147R,0.3800X0.0040*%
%ADD148R,0.3760X0.0040*%
%ADD149R,0.3360X0.0040*%
%ADD150R,0.3080X0.0040*%
%ADD151R,0.1600X0.0040*%
%ADD152R,0.1680X0.0040*%
%ADD153R,0.3040X0.0040*%
%ADD154R,0.3720X0.0040*%
%ADD155R,0.3680X0.0040*%
%ADD156R,0.3520X0.0040*%
%ADD157R,0.3440X0.0040*%
%ADD158R,0.3320X0.0040*%
%ADD159R,0.1840X0.0040*%
%ADD160R,0.1760X0.0040*%
%ADD161R,0.1440X0.0040*%
%ADD162R,0.4920X0.0040*%
%ADD163R,0.4960X0.0040*%
%ADD164R,0.5000X0.0040*%
%ADD165R,0.5080X0.0040*%
%ADD166R,0.5120X0.0040*%
%ADD167R,0.5160X0.0040*%
%ADD168R,0.5240X0.0040*%
%ADD169R,0.5280X0.0040*%
%ADD170R,0.5360X0.0040*%
%ADD171R,0.5400X0.0040*%
%ADD172R,0.5480X0.0040*%
%ADD173R,0.5520X0.0040*%
%ADD174R,0.5600X0.0040*%
%ADD175R,0.5640X0.0040*%
%ADD176R,0.5680X0.0040*%
%ADD177R,0.5760X0.0040*%
%ADD178R,0.5800X0.0040*%
%ADD179R,0.5880X0.0040*%
%ADD180R,0.1360X0.0040*%
%ADD181R,0.3920X0.0040*%
%ADD182R,0.4000X0.0040*%
%ADD183R,0.4080X0.0040*%
%ADD184R,0.6720X0.0040*%
%ADD185R,0.6640X0.0040*%
D10*
X006680Y009540D03*
X011200Y015620D03*
X008080Y015860D03*
X008080Y020820D03*
X004440Y025620D03*
X002120Y021260D03*
X012640Y009580D03*
X014920Y014060D03*
X014320Y015860D03*
X014320Y020820D03*
X014920Y022620D03*
X015720Y026460D03*
X013520Y027980D03*
X020280Y006700D03*
X019160Y003580D03*
D11*
X019180Y003620D03*
X021100Y013180D03*
X014660Y014580D03*
X014300Y015620D03*
X014660Y022100D03*
X019140Y023580D03*
X021060Y023580D03*
X021060Y023620D03*
X021060Y023540D03*
X021060Y023500D03*
X021060Y023460D03*
X021060Y023420D03*
X021060Y023380D03*
X021060Y023340D03*
X021060Y023300D03*
X021060Y023260D03*
X021060Y023220D03*
X021060Y023180D03*
X021060Y023140D03*
X008860Y027740D03*
X001700Y019100D03*
X002140Y015660D03*
X004460Y011300D03*
X008100Y015620D03*
X008860Y008940D03*
D12*
X004440Y011580D03*
X008120Y015380D03*
X008120Y021300D03*
X011200Y024980D03*
X014280Y021300D03*
X017480Y024540D03*
X014280Y015380D03*
X014400Y015100D03*
X016920Y012740D03*
X015200Y010100D03*
X015200Y010060D03*
X015160Y009980D03*
X015160Y009940D03*
X015120Y009860D03*
X015120Y009820D03*
X015080Y009700D03*
X015040Y007980D03*
X015080Y007820D03*
X015080Y007780D03*
X015080Y007740D03*
X015120Y007700D03*
X015120Y007660D03*
X015160Y007540D03*
X019160Y003660D03*
X023200Y007580D03*
X023200Y007620D03*
X023240Y007700D03*
X023240Y007740D03*
X023280Y007780D03*
X023280Y007820D03*
X023280Y007860D03*
X023280Y007900D03*
X023280Y009620D03*
X023240Y009740D03*
X023240Y009780D03*
X023200Y009900D03*
X023200Y009940D03*
X023160Y010020D03*
X004440Y025100D03*
X002120Y020740D03*
D13*
X011200Y025140D03*
X017640Y024660D03*
X016760Y012460D03*
X015680Y010940D03*
X015640Y010900D03*
X015600Y006620D03*
X015640Y006580D03*
X015680Y006500D03*
X019160Y003700D03*
X022680Y006540D03*
X022720Y006580D03*
X022680Y010940D03*
X021520Y012540D03*
D14*
X021660Y012260D03*
X021660Y012220D03*
X022340Y011300D03*
X022380Y011260D03*
X022380Y006180D03*
X022340Y006140D03*
X019180Y003740D03*
X015980Y006140D03*
X015940Y011220D03*
X016620Y012180D03*
X011180Y011380D03*
X011180Y025300D03*
X019100Y026340D03*
D15*
X019100Y026220D03*
X011180Y025500D03*
X011180Y020660D03*
X011180Y016020D03*
X011180Y011180D03*
X016420Y011660D03*
X016420Y005780D03*
X019180Y003780D03*
X021900Y005780D03*
X022020Y011540D03*
X021860Y011740D03*
X021860Y011780D03*
X005660Y012420D03*
X005660Y024220D03*
D16*
X005540Y024460D03*
X011180Y020580D03*
X019100Y026140D03*
X011180Y011060D03*
X016660Y005660D03*
X019180Y003820D03*
D17*
X019180Y003860D03*
X011180Y010940D03*
X005420Y024700D03*
X011180Y025740D03*
D18*
X005340Y024860D03*
X011180Y016260D03*
X011180Y010860D03*
X005340Y011820D03*
X019100Y025980D03*
X019180Y003900D03*
D19*
X019160Y003940D03*
X011200Y016340D03*
X005240Y023820D03*
D20*
X011180Y010660D03*
X019180Y003980D03*
D21*
X019180Y004020D03*
X011100Y010460D03*
X019100Y025620D03*
X011180Y026140D03*
D22*
X011180Y019980D03*
X011180Y016700D03*
X010980Y010260D03*
X019180Y004060D03*
X019100Y025500D03*
D23*
X019100Y025380D03*
X010860Y010060D03*
X019180Y004100D03*
D24*
X019160Y004140D03*
X010760Y009900D03*
X011200Y016900D03*
X011200Y019780D03*
D25*
X011200Y019660D03*
X011200Y019620D03*
X011200Y026420D03*
X004800Y023340D03*
X004800Y013340D03*
X010680Y009740D03*
X019160Y004180D03*
D26*
X019160Y004220D03*
X011200Y017180D03*
X011200Y017220D03*
X011200Y019460D03*
X011200Y019500D03*
X011200Y026500D03*
X004880Y023180D03*
X004880Y013500D03*
D27*
X004960Y013660D03*
X011200Y017420D03*
X011200Y019260D03*
X011200Y019300D03*
X004960Y023020D03*
X019160Y004260D03*
D28*
X019180Y004300D03*
X011180Y019060D03*
X011180Y019100D03*
X005020Y022900D03*
X005020Y013780D03*
D29*
X005080Y013900D03*
X011200Y017820D03*
X011200Y017860D03*
X011200Y017900D03*
X011200Y017940D03*
X011200Y018740D03*
X011200Y018780D03*
X011200Y018820D03*
X011200Y018860D03*
X011200Y018900D03*
X005080Y022780D03*
X011200Y026700D03*
X019160Y004340D03*
D30*
X019180Y004380D03*
X005140Y014020D03*
X005140Y022660D03*
X011180Y026780D03*
D31*
X005220Y022500D03*
X005220Y014180D03*
X019180Y004420D03*
D32*
X019160Y004460D03*
X005280Y014300D03*
X005280Y022380D03*
X011200Y026900D03*
D33*
X019160Y004500D03*
D34*
X019180Y004540D03*
D35*
X019180Y004580D03*
D36*
X019160Y004620D03*
D37*
X019180Y004660D03*
D38*
X019160Y004700D03*
D39*
X019160Y004740D03*
D40*
X019180Y004780D03*
X004260Y017780D03*
X004260Y017820D03*
X004260Y017860D03*
X004260Y017900D03*
X004260Y017940D03*
X004260Y017980D03*
X004260Y018020D03*
X004260Y018060D03*
X004260Y018100D03*
X004260Y018140D03*
X004260Y018180D03*
X004260Y018500D03*
X004260Y018540D03*
X004260Y018580D03*
X004260Y018620D03*
X004260Y018660D03*
X004260Y018700D03*
X004260Y018740D03*
X004260Y018780D03*
X004260Y018820D03*
X004260Y018860D03*
X004260Y018900D03*
X004300Y019060D03*
D41*
X019180Y004820D03*
D42*
X019180Y004860D03*
D43*
X019180Y004900D03*
D44*
X019180Y004940D03*
D45*
X019160Y004980D03*
D46*
X019160Y005020D03*
D47*
X019160Y005060D03*
D48*
X019160Y005100D03*
D49*
X019180Y005140D03*
D50*
X019160Y005180D03*
D51*
X019180Y005220D03*
D52*
X019180Y005260D03*
D53*
X019180Y005300D03*
D54*
X019180Y005340D03*
D55*
X019180Y005380D03*
D56*
X019180Y005420D03*
D57*
X019160Y005460D03*
D58*
X019160Y005500D03*
D59*
X019180Y005540D03*
D60*
X016860Y005580D03*
X011180Y010900D03*
X005380Y011900D03*
X011180Y020460D03*
X005380Y024780D03*
X005380Y024820D03*
D61*
X011200Y025780D03*
X005360Y011860D03*
X021480Y005580D03*
D62*
X021580Y005620D03*
X016740Y005620D03*
X011180Y010980D03*
X005460Y012020D03*
X011180Y025700D03*
X019100Y026060D03*
D63*
X011200Y025620D03*
X011200Y020540D03*
X011200Y016100D03*
X005520Y012180D03*
X005520Y024500D03*
X021680Y005660D03*
D64*
X016580Y005700D03*
X011180Y011100D03*
X005580Y012260D03*
D65*
X005560Y012220D03*
X005560Y024420D03*
X011200Y025580D03*
X021760Y005700D03*
D66*
X021840Y005740D03*
X016520Y005740D03*
X011200Y016060D03*
X011200Y020620D03*
X011200Y025540D03*
X005600Y024380D03*
X005600Y012340D03*
X005600Y012300D03*
X019080Y026180D03*
D67*
X021840Y011820D03*
X021960Y005820D03*
X016360Y005820D03*
X016440Y011700D03*
X005680Y012460D03*
D68*
X005720Y012540D03*
X011200Y011260D03*
X011200Y015980D03*
X011200Y020700D03*
X011200Y025420D03*
X005720Y024140D03*
X005720Y024100D03*
X016480Y011820D03*
X016320Y005860D03*
X021800Y011900D03*
X021800Y011940D03*
D69*
X021820Y011860D03*
X022060Y011500D03*
X022020Y005860D03*
X016460Y011740D03*
X016460Y011780D03*
X016260Y011460D03*
X011180Y011220D03*
X005700Y012500D03*
X005700Y024180D03*
X011180Y025460D03*
D70*
X005740Y024060D03*
X005740Y012580D03*
X016180Y011420D03*
X016500Y011860D03*
X016500Y011900D03*
X016260Y005900D03*
X021780Y011980D03*
X022140Y011460D03*
X022060Y005900D03*
X019100Y026260D03*
D71*
X019100Y026300D03*
X011180Y015940D03*
X011180Y011300D03*
X016140Y011380D03*
X016540Y011980D03*
X016220Y005940D03*
X021740Y012060D03*
X022220Y011420D03*
X022260Y011380D03*
X022180Y005980D03*
X005780Y012660D03*
D72*
X005760Y012620D03*
X005760Y024020D03*
X011200Y025380D03*
X016520Y011940D03*
X021760Y012020D03*
X022120Y005940D03*
D73*
X021720Y012100D03*
X016560Y012060D03*
X016560Y012020D03*
X016080Y011340D03*
X016040Y011300D03*
X016120Y006020D03*
X016160Y005980D03*
X005800Y012700D03*
X006240Y019100D03*
X005800Y023980D03*
X011200Y025340D03*
X011200Y020740D03*
D74*
X005820Y023940D03*
X005820Y012740D03*
X011180Y011340D03*
X016580Y012100D03*
X021700Y012140D03*
X022300Y011340D03*
X022260Y006060D03*
X022220Y006020D03*
D75*
X022320Y006100D03*
X021680Y012180D03*
X016600Y012140D03*
X016000Y011260D03*
X016040Y006100D03*
X016080Y006060D03*
X011200Y015900D03*
X005840Y012820D03*
X005840Y012780D03*
X005840Y023860D03*
X005840Y023900D03*
D76*
X011200Y020780D03*
X017800Y024700D03*
X016640Y012220D03*
X021640Y012300D03*
X015920Y006220D03*
X015960Y006180D03*
D77*
X015860Y011140D03*
X015900Y011180D03*
X016660Y012260D03*
X021620Y012340D03*
X022460Y006260D03*
X022420Y006220D03*
X011180Y011420D03*
X020420Y024700D03*
X011180Y025260D03*
D78*
X011200Y025220D03*
X016680Y012300D03*
X021600Y012380D03*
X022440Y011220D03*
X022480Y011180D03*
X022480Y006300D03*
X015880Y006260D03*
X015840Y006300D03*
X011200Y011460D03*
D79*
X011180Y015860D03*
X011180Y020820D03*
X016700Y012340D03*
X015820Y011100D03*
X015780Y011060D03*
X015780Y006380D03*
X015820Y006340D03*
X021580Y012420D03*
X022500Y011140D03*
X022540Y011100D03*
X022540Y006340D03*
X019100Y026380D03*
D80*
X011200Y025180D03*
X021560Y012460D03*
X022560Y011060D03*
X022640Y006460D03*
X022600Y006420D03*
X022560Y006380D03*
X016720Y012380D03*
X015760Y011020D03*
X015760Y006420D03*
D81*
X015700Y006460D03*
X015660Y006540D03*
X015700Y010980D03*
X016740Y012420D03*
X021540Y012500D03*
X022620Y011020D03*
X022660Y010980D03*
X022660Y006500D03*
X011180Y011500D03*
D82*
X012920Y008980D03*
X015080Y013580D03*
X021000Y009620D03*
X020280Y006540D03*
X008120Y016220D03*
X008120Y020460D03*
X010600Y021940D03*
X011200Y021100D03*
X011800Y021940D03*
X015240Y023260D03*
X015400Y025420D03*
X015400Y025460D03*
X015400Y025500D03*
X004440Y025940D03*
X004440Y010740D03*
D83*
X002140Y015220D03*
X008100Y016060D03*
X008100Y020620D03*
X008860Y028180D03*
X015100Y022980D03*
X015540Y026060D03*
X019100Y026660D03*
X015100Y018860D03*
X015100Y018820D03*
X015100Y018780D03*
X015100Y018740D03*
X015100Y018700D03*
X015100Y018660D03*
X015100Y018620D03*
X015100Y018580D03*
X015100Y018540D03*
X015100Y018500D03*
X015100Y018460D03*
X015100Y018420D03*
X015100Y018260D03*
X015100Y018220D03*
X015100Y018180D03*
X015100Y018140D03*
X015100Y018100D03*
X015100Y018060D03*
X015100Y018020D03*
X015100Y017980D03*
X015100Y017940D03*
X015100Y017900D03*
X015100Y017860D03*
X015100Y017820D03*
X014300Y016060D03*
X015100Y013700D03*
X012780Y009260D03*
X008860Y008500D03*
X020300Y006580D03*
D84*
X020280Y006620D03*
X021000Y009540D03*
X015040Y013820D03*
X014280Y015980D03*
X014280Y020700D03*
X015040Y022860D03*
X015600Y026220D03*
X008080Y015980D03*
X004440Y010940D03*
X012720Y009380D03*
X002120Y021380D03*
X004440Y025740D03*
D85*
X003700Y019100D03*
X003700Y017580D03*
X011180Y020860D03*
X016780Y012500D03*
X015620Y010860D03*
X015580Y010820D03*
X015540Y006700D03*
X015580Y006660D03*
X011180Y011540D03*
X022700Y010900D03*
X022740Y010860D03*
X022780Y006700D03*
X022780Y006660D03*
X022740Y006620D03*
X019100Y026420D03*
D86*
X019120Y024140D03*
X015680Y026380D03*
X013520Y028020D03*
X013520Y028060D03*
X014960Y022700D03*
X011200Y021060D03*
X008080Y020780D03*
X008080Y015900D03*
X004440Y011020D03*
X002120Y015380D03*
X002120Y021300D03*
X004440Y025660D03*
X014960Y013980D03*
X012640Y009500D03*
X020280Y006660D03*
D87*
X022800Y006740D03*
X022840Y006780D03*
X022800Y010780D03*
X022760Y010820D03*
X021480Y012580D03*
X016800Y012540D03*
X015560Y010780D03*
X015520Y010740D03*
X015480Y006820D03*
X015520Y006740D03*
X011200Y015820D03*
X011200Y025100D03*
X020560Y024660D03*
D88*
X019120Y024060D03*
X015760Y026540D03*
X014880Y022540D03*
X014320Y020860D03*
X014320Y015820D03*
X014880Y014140D03*
X012600Y009660D03*
X008080Y015820D03*
X004440Y011100D03*
X008080Y020860D03*
X004440Y025580D03*
X002120Y021220D03*
X020280Y006780D03*
X020280Y006740D03*
X021040Y009380D03*
D89*
X022820Y010740D03*
X022860Y010700D03*
X022900Y010620D03*
X021460Y012620D03*
X016820Y012580D03*
X015500Y010700D03*
X015500Y010660D03*
X015460Y010620D03*
X015460Y006860D03*
X015500Y006780D03*
X011180Y011580D03*
X004500Y011700D03*
X002540Y016420D03*
X002980Y016860D03*
X002980Y019820D03*
X002540Y020260D03*
X004500Y024980D03*
X007180Y022300D03*
X017580Y024620D03*
X022940Y006940D03*
X022900Y006900D03*
X022900Y006860D03*
X022860Y006820D03*
D90*
X021000Y008420D03*
X021040Y008620D03*
X021040Y008660D03*
X021040Y008700D03*
X021040Y008740D03*
X021040Y009100D03*
X021040Y009140D03*
X021040Y009180D03*
X021040Y009220D03*
X021040Y009260D03*
X021040Y009300D03*
X020280Y006820D03*
X014840Y014220D03*
X012560Y009700D03*
X008080Y015780D03*
X004440Y011140D03*
X008080Y020900D03*
X004440Y025540D03*
X002120Y021180D03*
X014840Y022460D03*
X015800Y026620D03*
X019120Y024020D03*
D91*
X019120Y023980D03*
X019120Y023940D03*
X015840Y026660D03*
X013520Y027900D03*
X014800Y022380D03*
X014320Y020940D03*
X014800Y014300D03*
X020840Y007900D03*
X020840Y007860D03*
X020800Y007780D03*
X020880Y007940D03*
X020880Y007980D03*
X020920Y008100D03*
X020960Y008220D03*
X020280Y006860D03*
X008080Y015740D03*
X004440Y011180D03*
X008080Y020940D03*
X004440Y025500D03*
D92*
X004480Y025020D03*
X004520Y024940D03*
X007240Y022260D03*
X007280Y022220D03*
X007320Y022180D03*
X007360Y022140D03*
X007400Y022100D03*
X007440Y022060D03*
X007480Y022020D03*
X007520Y021980D03*
X007560Y021940D03*
X007600Y021900D03*
X007640Y021860D03*
X007680Y021820D03*
X007720Y021780D03*
X007760Y021740D03*
X007800Y021700D03*
X007840Y021660D03*
X007880Y021620D03*
X007920Y021580D03*
X007960Y021540D03*
X008000Y021500D03*
X008040Y021460D03*
X008080Y021420D03*
X008120Y021380D03*
X003680Y019140D03*
X003600Y019180D03*
X003400Y019380D03*
X003240Y019580D03*
X003160Y019620D03*
X002800Y020020D03*
X002720Y020060D03*
X002360Y020460D03*
X002320Y020500D03*
X003640Y017540D03*
X003640Y017500D03*
X003600Y017460D03*
X003560Y017420D03*
X003480Y017380D03*
X003440Y017340D03*
X003440Y017300D03*
X003400Y017260D03*
X003360Y017220D03*
X003240Y017140D03*
X003200Y017100D03*
X003200Y017060D03*
X003160Y017020D03*
X003120Y016980D03*
X003000Y016900D03*
X002960Y016820D03*
X002920Y016780D03*
X002800Y016700D03*
X002760Y016620D03*
X002720Y016580D03*
X002680Y016540D03*
X002560Y016460D03*
X002520Y016380D03*
X002480Y016340D03*
X002360Y016260D03*
X002320Y016180D03*
X002280Y016140D03*
X002240Y016100D03*
X002160Y016060D03*
X004480Y011660D03*
X007200Y014380D03*
X007240Y014420D03*
X007280Y014460D03*
X007320Y014500D03*
X007360Y014540D03*
X007400Y014580D03*
X007440Y014620D03*
X007480Y014660D03*
X007520Y014700D03*
X007560Y014740D03*
X007600Y014780D03*
X007640Y014820D03*
X007680Y014860D03*
X007720Y014900D03*
X007760Y014940D03*
X007800Y014980D03*
X007840Y015020D03*
X007880Y015060D03*
X007920Y015100D03*
X007960Y015140D03*
X008000Y015180D03*
X008040Y015220D03*
X008080Y015260D03*
X008120Y015300D03*
X009280Y009700D03*
X009240Y009660D03*
X009200Y009620D03*
X009160Y009580D03*
X009120Y009540D03*
X009080Y009500D03*
X009040Y009460D03*
X009000Y009420D03*
X008960Y009380D03*
X008920Y009340D03*
X008880Y009300D03*
X014320Y015220D03*
X014320Y015260D03*
X014280Y015300D03*
X016840Y012620D03*
X015440Y010580D03*
X015400Y010540D03*
X015320Y007100D03*
X015360Y007020D03*
X015400Y006980D03*
X015400Y006940D03*
X015440Y006900D03*
X021440Y012660D03*
X022880Y010660D03*
X022920Y010580D03*
X022960Y010500D03*
X023000Y007060D03*
X022960Y007020D03*
X022960Y006980D03*
X014280Y021380D03*
X014320Y021420D03*
X013080Y026940D03*
X013080Y026980D03*
X013120Y027020D03*
X013240Y027100D03*
X013280Y027140D03*
X013320Y027180D03*
X013320Y027220D03*
X013440Y027300D03*
X013480Y027340D03*
X013520Y027380D03*
X013520Y027420D03*
X009280Y026980D03*
X009240Y027020D03*
X009200Y027060D03*
X009160Y027100D03*
X009120Y027140D03*
X009080Y027180D03*
X009040Y027220D03*
X009000Y027260D03*
X008960Y027300D03*
X008920Y027340D03*
X008880Y027380D03*
D93*
X008860Y027860D03*
X013540Y027860D03*
X015860Y026700D03*
X014780Y022340D03*
X014300Y020980D03*
X014300Y015700D03*
X014780Y014340D03*
X008860Y008820D03*
X002140Y015540D03*
X002140Y021140D03*
X020300Y006900D03*
X020660Y007500D03*
X020700Y007540D03*
X020700Y007580D03*
X020740Y007620D03*
X020740Y007660D03*
X020780Y007700D03*
X020780Y007740D03*
X020820Y007820D03*
D94*
X020640Y007460D03*
X020600Y007420D03*
X020600Y007380D03*
X020560Y007340D03*
X020320Y006940D03*
X014760Y014380D03*
X011200Y021020D03*
X008080Y020980D03*
X004440Y025460D03*
X002120Y021100D03*
X002120Y015580D03*
X004440Y011220D03*
X008080Y015700D03*
X014760Y022300D03*
X015880Y026740D03*
X019120Y023900D03*
X019120Y023860D03*
D95*
X014740Y022260D03*
X014300Y021020D03*
X014300Y015660D03*
X014740Y014420D03*
X008860Y008860D03*
X020340Y007020D03*
X020340Y006980D03*
X020380Y007060D03*
X020380Y007100D03*
X020420Y007140D03*
X020460Y007180D03*
X020460Y007220D03*
X020500Y007260D03*
X020540Y007300D03*
X013540Y027820D03*
X008860Y027820D03*
D96*
X008860Y027420D03*
X011180Y025060D03*
X013180Y027060D03*
X013380Y027260D03*
X014340Y021500D03*
X014340Y021460D03*
X019100Y026460D03*
X020660Y024620D03*
X021420Y012700D03*
X022940Y010540D03*
X022980Y010460D03*
X022980Y010420D03*
X023020Y010380D03*
X023060Y007220D03*
X023020Y007140D03*
X023020Y007100D03*
X016860Y012660D03*
X015380Y010500D03*
X015380Y010460D03*
X015340Y010420D03*
X015300Y010340D03*
X015260Y007260D03*
X015300Y007180D03*
X015300Y007140D03*
X015340Y007060D03*
X011180Y011620D03*
X008860Y009260D03*
X002620Y016500D03*
X002780Y016660D03*
X002860Y016740D03*
X003060Y016940D03*
X003300Y017180D03*
X002420Y016300D03*
X002340Y016220D03*
X002140Y016020D03*
X002140Y015980D03*
X003580Y019220D03*
X003540Y019260D03*
X003500Y019300D03*
X003460Y019340D03*
X003380Y019420D03*
X003340Y019460D03*
X003300Y019500D03*
X003260Y019540D03*
X003140Y019660D03*
X003100Y019700D03*
X003060Y019740D03*
X003020Y019780D03*
X002940Y019860D03*
X002900Y019900D03*
X002860Y019940D03*
X002820Y019980D03*
X002700Y020100D03*
X002660Y020140D03*
X002620Y020180D03*
X002580Y020220D03*
X002500Y020300D03*
X002460Y020340D03*
X002420Y020380D03*
X002380Y020420D03*
X002260Y020540D03*
X002220Y020580D03*
X002180Y020620D03*
X002140Y020660D03*
X002140Y020700D03*
X004460Y025060D03*
D97*
X008120Y021340D03*
X011200Y020900D03*
X014280Y021340D03*
X014360Y021540D03*
X017520Y024580D03*
X013520Y027460D03*
X011200Y015780D03*
X008120Y015340D03*
X004440Y011620D03*
X014280Y015340D03*
X014360Y015180D03*
X016880Y012700D03*
X015320Y010380D03*
X015280Y010300D03*
X015280Y010260D03*
X015240Y010180D03*
X015200Y007420D03*
X015200Y007380D03*
X015240Y007300D03*
X015280Y007220D03*
X021400Y012740D03*
X023040Y010340D03*
X023080Y010260D03*
X023120Y010140D03*
X023160Y007460D03*
X023120Y007380D03*
X023120Y007340D03*
X023080Y007300D03*
X023080Y007260D03*
X023040Y007180D03*
D98*
X023140Y007420D03*
X023180Y007500D03*
X023180Y007540D03*
X023220Y007660D03*
X023180Y009980D03*
X023140Y010060D03*
X023140Y010100D03*
X023100Y010180D03*
X023100Y010220D03*
X023060Y010300D03*
X021380Y012780D03*
X015260Y010220D03*
X015220Y010140D03*
X015180Y010020D03*
X015140Y007620D03*
X015140Y007580D03*
X015180Y007500D03*
X015180Y007460D03*
X015220Y007340D03*
X011180Y011660D03*
X008860Y009220D03*
X014380Y015140D03*
X014380Y021580D03*
X011180Y025020D03*
X008860Y027460D03*
X002140Y015940D03*
X020700Y024580D03*
D99*
X020740Y024540D03*
X017460Y024500D03*
X017420Y024460D03*
X014420Y021620D03*
X013540Y027500D03*
X008860Y027500D03*
X002140Y015900D03*
X004460Y011540D03*
X008860Y009180D03*
X011180Y011700D03*
X014420Y015060D03*
X016940Y012780D03*
X015140Y009900D03*
X015100Y009780D03*
X015100Y009740D03*
X015060Y009660D03*
X015060Y009620D03*
X015060Y009580D03*
X015020Y009460D03*
X015020Y009420D03*
X015020Y009380D03*
X015020Y009340D03*
X014980Y009140D03*
X014980Y009100D03*
X014980Y008420D03*
X014980Y008380D03*
X014980Y008340D03*
X015020Y008140D03*
X015020Y008100D03*
X015020Y008060D03*
X015020Y008020D03*
X015060Y007940D03*
X015060Y007900D03*
X015060Y007860D03*
X021340Y012820D03*
X023220Y009860D03*
X023220Y009820D03*
X023260Y009700D03*
X023260Y009660D03*
X023300Y009580D03*
X023300Y009540D03*
X023300Y009500D03*
X023300Y009460D03*
X023340Y009380D03*
X023340Y009340D03*
X023340Y009300D03*
X023340Y009260D03*
X023340Y009220D03*
X023340Y008300D03*
X023340Y008260D03*
X023340Y008220D03*
X023340Y008180D03*
X023340Y008140D03*
X023300Y008100D03*
X023300Y008060D03*
X023300Y008020D03*
X023300Y007980D03*
X023300Y007940D03*
D100*
X021020Y008460D03*
X021020Y008500D03*
X021020Y008540D03*
X021020Y008580D03*
X020980Y008380D03*
X020980Y008340D03*
X020980Y008300D03*
X020980Y008260D03*
X020940Y008180D03*
X020940Y008140D03*
X020900Y008060D03*
X020900Y008020D03*
X021060Y008780D03*
X021060Y008820D03*
X021060Y008860D03*
X021060Y008900D03*
X021060Y008940D03*
X021060Y008980D03*
X021060Y009020D03*
X021060Y009060D03*
X014820Y014260D03*
X014300Y015740D03*
X014820Y022420D03*
X019100Y026620D03*
X008860Y027900D03*
X002140Y015500D03*
X008860Y008780D03*
D101*
X006400Y009580D03*
X006400Y009620D03*
X006400Y009660D03*
X006400Y009700D03*
X006400Y009740D03*
X006400Y009780D03*
X006400Y009820D03*
X006400Y009860D03*
X006400Y009900D03*
X006400Y009940D03*
X006400Y009980D03*
X006400Y010020D03*
X006400Y010060D03*
X006400Y010100D03*
X006400Y010140D03*
X006400Y010180D03*
X006400Y010220D03*
X006400Y010260D03*
X006400Y010300D03*
X006400Y010340D03*
X006400Y010380D03*
X006400Y010420D03*
X006400Y010460D03*
X006400Y010500D03*
X006400Y010540D03*
X006400Y010580D03*
X006400Y010620D03*
X006400Y010660D03*
X006400Y010700D03*
X006400Y010740D03*
X006400Y010780D03*
X006400Y010820D03*
X006400Y010860D03*
X006400Y010900D03*
X006400Y010940D03*
X006400Y010980D03*
X006400Y011020D03*
X006400Y011060D03*
X006400Y011100D03*
X006400Y011140D03*
X006400Y011180D03*
X006400Y011220D03*
X006400Y011260D03*
X006400Y011300D03*
X006400Y011340D03*
X006400Y011380D03*
X006400Y011420D03*
X006400Y011460D03*
X006400Y011500D03*
X006400Y011540D03*
X006400Y011580D03*
X006400Y011620D03*
X006400Y011660D03*
X006400Y011700D03*
X004440Y011340D03*
X011200Y011940D03*
X011200Y011980D03*
X011200Y012020D03*
X011200Y012060D03*
X011200Y012100D03*
X011200Y012140D03*
X011200Y012180D03*
X011200Y012220D03*
X011200Y012260D03*
X011200Y012300D03*
X011200Y012340D03*
X011200Y012380D03*
X011200Y012420D03*
X011200Y012460D03*
X011200Y012500D03*
X011200Y012540D03*
X011200Y012580D03*
X011200Y012620D03*
X011200Y012660D03*
X011200Y012700D03*
X011200Y012740D03*
X011200Y012780D03*
X011200Y012820D03*
X011200Y012860D03*
X011200Y012900D03*
X011200Y012940D03*
X011200Y012980D03*
X011200Y013020D03*
X011200Y013060D03*
X011200Y013100D03*
X011200Y013140D03*
X011200Y013180D03*
X011200Y013220D03*
X011200Y013260D03*
X011200Y013300D03*
X011200Y013340D03*
X011200Y013380D03*
X011200Y013420D03*
X011200Y013460D03*
X011200Y013500D03*
X011200Y013540D03*
X011200Y013580D03*
X011200Y013620D03*
X011200Y013660D03*
X011200Y013700D03*
X011200Y013740D03*
X011200Y013780D03*
X011200Y013820D03*
X011200Y013860D03*
X011200Y013900D03*
X011200Y013940D03*
X011200Y013980D03*
X011200Y014020D03*
X011200Y014060D03*
X011200Y014100D03*
X011200Y014140D03*
X011200Y014180D03*
X011200Y014220D03*
X011200Y014260D03*
X011200Y014300D03*
X011200Y014340D03*
X011200Y014380D03*
X011200Y014420D03*
X011200Y014460D03*
X011200Y014500D03*
X011200Y014540D03*
X011200Y014580D03*
X011200Y014620D03*
X011200Y014660D03*
X011200Y014700D03*
X014640Y014620D03*
X017160Y014620D03*
X017160Y014660D03*
X017160Y014700D03*
X017160Y014740D03*
X017160Y014780D03*
X017160Y014820D03*
X017160Y014860D03*
X017160Y014900D03*
X017160Y014940D03*
X017160Y014980D03*
X017160Y015020D03*
X017160Y015060D03*
X017160Y015100D03*
X017160Y015140D03*
X017160Y015180D03*
X017160Y015220D03*
X017160Y015260D03*
X017160Y015300D03*
X017160Y015340D03*
X017160Y015380D03*
X017160Y015420D03*
X017160Y015460D03*
X017160Y015500D03*
X017160Y015540D03*
X017160Y015580D03*
X017160Y015620D03*
X017160Y015660D03*
X017160Y015700D03*
X017160Y015740D03*
X017160Y015780D03*
X017160Y015820D03*
X017160Y015860D03*
X017160Y015900D03*
X017160Y015940D03*
X017160Y015980D03*
X017160Y016020D03*
X017160Y016060D03*
X017160Y016100D03*
X017160Y016140D03*
X017160Y016180D03*
X017160Y016220D03*
X017160Y016260D03*
X017160Y016300D03*
X017160Y016340D03*
X017160Y016380D03*
X017160Y016420D03*
X017160Y016460D03*
X017160Y016500D03*
X017160Y016540D03*
X017160Y016580D03*
X017160Y016620D03*
X017160Y016660D03*
X017160Y016700D03*
X017160Y016740D03*
X017160Y016780D03*
X017160Y016820D03*
X017160Y016860D03*
X017160Y016900D03*
X017160Y016940D03*
X017160Y016980D03*
X017160Y017020D03*
X017160Y017060D03*
X017160Y017100D03*
X017160Y017140D03*
X017160Y017180D03*
X017160Y017220D03*
X017160Y017260D03*
X017160Y017300D03*
X017160Y017340D03*
X017160Y017380D03*
X017160Y017420D03*
X017160Y017460D03*
X017160Y017500D03*
X017160Y017540D03*
X017160Y017580D03*
X017160Y017620D03*
X017160Y017660D03*
X017160Y017700D03*
X017160Y017740D03*
X017160Y017780D03*
X017160Y017820D03*
X017160Y017860D03*
X017160Y017900D03*
X017160Y017940D03*
X017160Y017980D03*
X017160Y018020D03*
X017160Y018060D03*
X017160Y018100D03*
X017160Y018140D03*
X017160Y018180D03*
X017160Y018220D03*
X017160Y018260D03*
X017160Y018300D03*
X017160Y018340D03*
X017160Y018380D03*
X017160Y018420D03*
X017160Y018460D03*
X017160Y018500D03*
X017160Y018540D03*
X017160Y018580D03*
X017160Y018620D03*
X017160Y018660D03*
X017160Y018700D03*
X017160Y018740D03*
X017160Y018780D03*
X017160Y018820D03*
X017160Y018860D03*
X017160Y018900D03*
X017160Y018940D03*
X017160Y018980D03*
X017160Y019020D03*
X017160Y019060D03*
X017160Y019100D03*
X017160Y019140D03*
X017160Y019180D03*
X017160Y019220D03*
X017160Y019260D03*
X017160Y019300D03*
X017160Y019340D03*
X017160Y019380D03*
X017160Y019420D03*
X017160Y019460D03*
X017160Y019500D03*
X017160Y019540D03*
X017160Y019580D03*
X017160Y019620D03*
X017160Y019660D03*
X017160Y019700D03*
X017160Y019740D03*
X017160Y019780D03*
X017160Y019820D03*
X017160Y019860D03*
X017160Y019900D03*
X017160Y019940D03*
X017160Y019980D03*
X017160Y020020D03*
X017160Y020060D03*
X017160Y020100D03*
X017160Y020140D03*
X017160Y020180D03*
X017160Y020220D03*
X017160Y020260D03*
X017160Y020300D03*
X017160Y020340D03*
X017160Y020380D03*
X017160Y020420D03*
X017160Y020460D03*
X017160Y020500D03*
X017160Y020540D03*
X017160Y020580D03*
X017160Y020620D03*
X017160Y020660D03*
X017160Y020700D03*
X017160Y020740D03*
X017160Y020780D03*
X017160Y020820D03*
X017160Y020860D03*
X017160Y020900D03*
X017160Y020940D03*
X017160Y020980D03*
X017160Y021020D03*
X017160Y021060D03*
X017160Y021100D03*
X017160Y021140D03*
X017160Y021180D03*
X017160Y021220D03*
X017160Y021260D03*
X017160Y021300D03*
X017160Y021340D03*
X017160Y021380D03*
X017160Y021420D03*
X017160Y021460D03*
X017160Y021500D03*
X017160Y021540D03*
X017160Y021580D03*
X017160Y021620D03*
X017160Y021660D03*
X017160Y021700D03*
X017160Y021740D03*
X017160Y021780D03*
X017160Y021820D03*
X017160Y021860D03*
X017160Y021900D03*
X017160Y021940D03*
X017160Y021980D03*
X017160Y022020D03*
X017160Y022060D03*
X017160Y022100D03*
X017160Y022140D03*
X017160Y022180D03*
X017160Y022220D03*
X017160Y022260D03*
X017160Y022300D03*
X017160Y022340D03*
X017160Y022380D03*
X017160Y022420D03*
X017160Y022460D03*
X017160Y022500D03*
X017160Y022540D03*
X017160Y022580D03*
X017160Y022620D03*
X017160Y022660D03*
X017160Y022700D03*
X017160Y022740D03*
X017160Y022780D03*
X017160Y022820D03*
X017160Y022860D03*
X017160Y022900D03*
X017160Y022940D03*
X017160Y022980D03*
X017160Y023020D03*
X017160Y023060D03*
X017160Y023100D03*
X017160Y023140D03*
X017160Y023180D03*
X017160Y023220D03*
X017160Y023260D03*
X017160Y023300D03*
X017160Y023340D03*
X017160Y023380D03*
X017160Y023420D03*
X017160Y023460D03*
X017160Y023500D03*
X019120Y023500D03*
X019120Y023540D03*
X019120Y023460D03*
X019120Y023420D03*
X019120Y023380D03*
X019120Y023340D03*
X019120Y023300D03*
X019120Y023260D03*
X021040Y023660D03*
X021040Y023700D03*
X021040Y023740D03*
X021040Y023780D03*
X016000Y026860D03*
X016000Y026900D03*
X016000Y026940D03*
X016000Y026980D03*
X016000Y027020D03*
X016000Y027060D03*
X016000Y027100D03*
X014640Y022060D03*
X014280Y021100D03*
X011200Y021980D03*
X011200Y022020D03*
X011200Y022060D03*
X011200Y022100D03*
X011200Y022140D03*
X011200Y022180D03*
X011200Y022220D03*
X011200Y022260D03*
X011200Y022300D03*
X011200Y022340D03*
X011200Y022380D03*
X011200Y022420D03*
X011200Y022460D03*
X011200Y022500D03*
X011200Y022540D03*
X011200Y022580D03*
X011200Y022620D03*
X011200Y022660D03*
X011200Y022700D03*
X011200Y022740D03*
X011200Y022780D03*
X011200Y022820D03*
X011200Y022860D03*
X011200Y022900D03*
X011200Y022940D03*
X011200Y022980D03*
X011200Y023020D03*
X011200Y023060D03*
X011200Y023100D03*
X011200Y023140D03*
X011200Y023180D03*
X011200Y023220D03*
X011200Y023260D03*
X011200Y023300D03*
X011200Y023340D03*
X011200Y023380D03*
X011200Y023420D03*
X011200Y023460D03*
X011200Y023500D03*
X011200Y023540D03*
X011200Y023580D03*
X011200Y023620D03*
X011200Y023660D03*
X011200Y023700D03*
X011200Y023740D03*
X011200Y023780D03*
X011200Y023820D03*
X011200Y023860D03*
X011200Y023900D03*
X011200Y023940D03*
X011200Y023980D03*
X011200Y024020D03*
X011200Y024060D03*
X011200Y024100D03*
X011200Y024140D03*
X011200Y024180D03*
X011200Y024220D03*
X011200Y024260D03*
X011200Y024300D03*
X011200Y024340D03*
X011200Y024380D03*
X011200Y024420D03*
X011200Y024460D03*
X011200Y024500D03*
X011200Y024540D03*
X011200Y024580D03*
X011200Y024620D03*
X011200Y024660D03*
X011200Y024700D03*
X011200Y024740D03*
X011200Y026980D03*
X011200Y027020D03*
X011200Y027060D03*
X011200Y027100D03*
X011200Y027140D03*
X011200Y027180D03*
X011200Y027220D03*
X011200Y027260D03*
X011200Y027300D03*
X011200Y027340D03*
X011200Y027380D03*
X011200Y027420D03*
X011200Y027460D03*
X011200Y027500D03*
X011200Y027540D03*
X011200Y027580D03*
X011200Y027620D03*
X011200Y027660D03*
X011200Y027700D03*
X011200Y027740D03*
X011200Y027780D03*
X011200Y027820D03*
X011200Y027860D03*
X011200Y027900D03*
X011200Y027940D03*
X011200Y027980D03*
X011200Y028020D03*
X011200Y028060D03*
X011200Y028100D03*
X011200Y028140D03*
X011200Y028180D03*
X011200Y028220D03*
X011200Y028260D03*
X011200Y028300D03*
X011200Y028340D03*
X011200Y028380D03*
X011200Y028420D03*
X011200Y028460D03*
X011200Y028500D03*
X011200Y028540D03*
X011200Y028580D03*
X006400Y027100D03*
X006400Y027060D03*
X006400Y027020D03*
X006400Y026980D03*
X006400Y026940D03*
X006400Y026900D03*
X006400Y026860D03*
X006400Y026820D03*
X006400Y026780D03*
X006400Y026740D03*
X006400Y026700D03*
X006400Y026660D03*
X006400Y026620D03*
X006400Y026580D03*
X006400Y026540D03*
X006400Y026500D03*
X006400Y026460D03*
X006400Y026420D03*
X006400Y026380D03*
X006400Y026340D03*
X006400Y026300D03*
X006400Y026260D03*
X006400Y026220D03*
X006400Y026180D03*
X006400Y026140D03*
X006400Y026100D03*
X006400Y026060D03*
X006400Y026020D03*
X006400Y025980D03*
X006400Y025940D03*
X006400Y025900D03*
X006400Y025860D03*
X006400Y025820D03*
X006400Y025780D03*
X006400Y025740D03*
X006400Y025700D03*
X006400Y025660D03*
X006400Y025620D03*
X006400Y025580D03*
X006400Y025540D03*
X006400Y025500D03*
X006400Y025460D03*
X006400Y025420D03*
X006400Y025380D03*
X006400Y025340D03*
X006400Y025300D03*
X006400Y025260D03*
X006400Y025220D03*
X006400Y025180D03*
X006400Y025140D03*
X006400Y025100D03*
X006400Y025060D03*
X006400Y025020D03*
X006400Y024980D03*
X006400Y024940D03*
X004440Y025340D03*
X002120Y020980D03*
X008080Y021100D03*
X017160Y014580D03*
X017160Y014540D03*
X017160Y014500D03*
X017160Y014460D03*
X017160Y014420D03*
X017160Y014380D03*
X017160Y014340D03*
X017160Y014300D03*
X017160Y014260D03*
X017160Y014220D03*
X017160Y014180D03*
X017160Y014140D03*
X017160Y014100D03*
X017160Y014060D03*
X017160Y014020D03*
X017160Y013980D03*
X017160Y013940D03*
X017160Y013900D03*
X017160Y013860D03*
X017160Y013820D03*
X017160Y013780D03*
X017160Y013740D03*
X017160Y013700D03*
X017160Y013660D03*
X017160Y013620D03*
X017160Y013580D03*
X017160Y013540D03*
X017160Y013500D03*
X017160Y013460D03*
X017160Y013420D03*
X017160Y013380D03*
X017160Y013340D03*
X017160Y013300D03*
X017160Y013260D03*
X017160Y013220D03*
X017160Y013180D03*
X017160Y013140D03*
X017160Y013100D03*
X021120Y013140D03*
X011200Y009700D03*
X011200Y009660D03*
X011200Y009620D03*
X011200Y009580D03*
X011200Y009540D03*
X011200Y009500D03*
X011200Y009460D03*
X011200Y009420D03*
X011200Y009380D03*
X011200Y009340D03*
X011200Y009300D03*
X011200Y009260D03*
X011200Y009220D03*
X011200Y009180D03*
X011200Y009140D03*
X011200Y009100D03*
X011200Y009060D03*
X011200Y009020D03*
X011200Y008980D03*
X011200Y008940D03*
X011200Y008900D03*
X011200Y008860D03*
X011200Y008820D03*
X011200Y008780D03*
X011200Y008740D03*
X011200Y008700D03*
X011200Y008660D03*
X011200Y008620D03*
X011200Y008580D03*
X011200Y008540D03*
X011200Y008500D03*
X011200Y008460D03*
X011200Y008420D03*
X011200Y008380D03*
X011200Y008340D03*
X011200Y008300D03*
X011200Y008260D03*
X011200Y008220D03*
X011200Y008180D03*
X011200Y008140D03*
X011200Y008100D03*
D102*
X014960Y008460D03*
X014960Y008500D03*
X014960Y008540D03*
X014960Y008580D03*
X014960Y008620D03*
X014960Y008660D03*
X014960Y008700D03*
X014960Y008740D03*
X014960Y008780D03*
X014960Y008820D03*
X014960Y008860D03*
X014960Y008900D03*
X014960Y008940D03*
X014960Y008980D03*
X014960Y009020D03*
X014960Y009060D03*
X015000Y009180D03*
X015000Y009220D03*
X015000Y009260D03*
X015000Y009300D03*
X015040Y009500D03*
X015040Y009540D03*
X015000Y008300D03*
X015000Y008260D03*
X015000Y008220D03*
X015000Y008180D03*
X016960Y012820D03*
X014440Y015020D03*
X014280Y015420D03*
X014280Y021260D03*
X014440Y021660D03*
X017400Y024420D03*
X020760Y024500D03*
X020800Y024460D03*
X011200Y024940D03*
X004440Y025140D03*
X002120Y020780D03*
X008120Y015420D03*
X021320Y012860D03*
X023320Y009420D03*
X023360Y009180D03*
X023360Y009140D03*
X023360Y009100D03*
X023360Y009060D03*
X023360Y009020D03*
X023360Y008980D03*
X023360Y008940D03*
X023360Y008900D03*
X023360Y008860D03*
X023360Y008820D03*
X023360Y008780D03*
X023360Y008740D03*
X023360Y008700D03*
X023360Y008660D03*
X023360Y008620D03*
X023360Y008580D03*
X023360Y008540D03*
X023360Y008500D03*
X023360Y008460D03*
X023360Y008420D03*
X023360Y008380D03*
X023360Y008340D03*
D103*
X015300Y019100D03*
X013060Y008700D03*
X008860Y008220D03*
X002500Y019100D03*
D104*
X008140Y020340D03*
X010500Y021900D03*
X011900Y021900D03*
X014260Y020380D03*
X008860Y028420D03*
X013020Y008780D03*
X008860Y008260D03*
D105*
X008860Y008300D03*
X002140Y015020D03*
X008860Y028380D03*
X013540Y028380D03*
X015340Y024940D03*
X015340Y024900D03*
X015340Y024860D03*
X015340Y024820D03*
X015340Y024780D03*
X015340Y024740D03*
X015340Y024700D03*
X015340Y024660D03*
X015340Y024620D03*
X015340Y024580D03*
X015300Y023420D03*
X015300Y023380D03*
X014260Y020420D03*
D106*
X014260Y020460D03*
X015260Y023300D03*
X015380Y025220D03*
X015380Y025260D03*
X015380Y025300D03*
X015380Y025340D03*
X015380Y025380D03*
X013540Y028340D03*
X008860Y028340D03*
X014260Y016220D03*
X012940Y008940D03*
X008860Y008340D03*
X002140Y015060D03*
D107*
X002140Y015100D03*
X002140Y021580D03*
X008100Y020500D03*
X008100Y016180D03*
X014260Y016180D03*
X014260Y020500D03*
X015220Y023220D03*
X015420Y025540D03*
X015420Y025580D03*
X015420Y025620D03*
X013540Y028300D03*
X008860Y028300D03*
X012900Y009020D03*
X008860Y008380D03*
D108*
X008860Y008420D03*
X012860Y009060D03*
X012860Y009100D03*
X008100Y016140D03*
X008100Y020540D03*
X008860Y028260D03*
X013540Y028260D03*
X015460Y025740D03*
X015180Y023140D03*
D109*
X015140Y023060D03*
X015500Y025900D03*
X015500Y025940D03*
X008860Y028220D03*
X008100Y020580D03*
X008100Y016100D03*
X012820Y009180D03*
X015100Y013660D03*
X008860Y008460D03*
D110*
X008860Y008540D03*
X012740Y009340D03*
X015060Y013780D03*
X014300Y016020D03*
X015060Y022900D03*
X015580Y026140D03*
X015580Y026180D03*
X013540Y028140D03*
X008860Y028140D03*
X008100Y020660D03*
X008100Y016020D03*
X002140Y015260D03*
D111*
X002140Y015300D03*
X008100Y020700D03*
X014300Y020740D03*
X015020Y022820D03*
X015620Y026260D03*
X008860Y028100D03*
X014300Y015940D03*
X015020Y013860D03*
X012700Y009420D03*
X008860Y008580D03*
D112*
X008860Y008620D03*
X014980Y013940D03*
X014300Y015900D03*
X014300Y020780D03*
X014980Y022740D03*
X015660Y026340D03*
X008860Y028060D03*
X002140Y021340D03*
X021020Y009500D03*
D113*
X021020Y009460D03*
X014940Y014020D03*
X012660Y009540D03*
X008860Y008660D03*
X014940Y022660D03*
X015700Y026420D03*
X008860Y028020D03*
D114*
X008860Y027980D03*
X014900Y022580D03*
X015740Y026500D03*
X019140Y024100D03*
X014900Y014100D03*
X012620Y009620D03*
X008860Y008700D03*
X004460Y011060D03*
X002140Y015420D03*
X021020Y009420D03*
D115*
X021020Y009340D03*
X014860Y014180D03*
X014300Y015780D03*
X014300Y020900D03*
X014860Y022500D03*
X015780Y026580D03*
X013540Y027940D03*
X008860Y027940D03*
X002140Y015460D03*
X008860Y008740D03*
D116*
X013040Y008740D03*
X015080Y013460D03*
X014240Y016340D03*
X014800Y017580D03*
X015200Y019100D03*
X014240Y020340D03*
X011920Y014780D03*
X010480Y014780D03*
X008120Y016340D03*
X004440Y010620D03*
X002120Y014980D03*
X002120Y021700D03*
X004440Y026060D03*
X013520Y028420D03*
D117*
X015320Y024540D03*
X015320Y024500D03*
X015320Y024460D03*
X015320Y024420D03*
X015320Y024380D03*
X015320Y024340D03*
X015320Y024300D03*
X015320Y024260D03*
X015320Y024220D03*
X015320Y024180D03*
X015320Y024140D03*
X015320Y024100D03*
X015320Y024060D03*
X015320Y024020D03*
X015320Y023980D03*
X015320Y023940D03*
X015320Y023900D03*
X015320Y023860D03*
X015320Y023820D03*
X015320Y023780D03*
X015320Y023740D03*
X015320Y023700D03*
X015320Y023660D03*
X015320Y023620D03*
X015320Y023580D03*
X015320Y023540D03*
X015320Y023500D03*
X015320Y023460D03*
X014240Y016300D03*
X015080Y013500D03*
X013000Y008820D03*
X008120Y016300D03*
X008120Y020380D03*
X004440Y026020D03*
X002120Y021660D03*
X004440Y010660D03*
D118*
X004440Y010700D03*
X008120Y016260D03*
X008120Y020420D03*
X004440Y025980D03*
X002120Y021620D03*
X012960Y008900D03*
X012960Y008860D03*
X015080Y013540D03*
X014280Y016260D03*
X015280Y023340D03*
X015360Y024980D03*
X015360Y025020D03*
X015360Y025060D03*
X015360Y025100D03*
X015360Y025140D03*
X015360Y025180D03*
X019120Y024260D03*
D119*
X019140Y023700D03*
X014700Y014500D03*
X011180Y015660D03*
X008860Y008900D03*
X004460Y011260D03*
X008860Y027780D03*
D120*
X008860Y027700D03*
X013540Y027700D03*
X017180Y023700D03*
X017180Y023660D03*
X017180Y023620D03*
X017180Y023580D03*
X017180Y023540D03*
X019140Y023220D03*
X019140Y023180D03*
X019140Y023140D03*
X019140Y023100D03*
X021020Y023820D03*
X021020Y023860D03*
X021020Y023900D03*
X014620Y022020D03*
X014300Y015580D03*
X014620Y014660D03*
X017140Y013060D03*
X021140Y013100D03*
X008860Y008980D03*
X008100Y015580D03*
X002140Y015700D03*
D121*
X002140Y015740D03*
X008100Y015540D03*
X011180Y011860D03*
X008860Y009020D03*
X014580Y014740D03*
X017100Y013020D03*
X021180Y013060D03*
X014580Y021980D03*
X017220Y023900D03*
X017220Y023940D03*
X019100Y026540D03*
X020940Y024180D03*
X020940Y024140D03*
X020940Y024100D03*
X020980Y024020D03*
X013540Y027660D03*
X011180Y024820D03*
X008860Y027660D03*
X008100Y021140D03*
D122*
X008100Y021180D03*
X011180Y024860D03*
X008860Y027620D03*
X013540Y027620D03*
X017260Y024140D03*
X017260Y024100D03*
X017260Y024060D03*
X014540Y021860D03*
X014300Y021180D03*
X014540Y014820D03*
X017060Y012980D03*
X011180Y011820D03*
X008860Y009060D03*
X008100Y015500D03*
X002140Y020900D03*
X020900Y024260D03*
D123*
X020860Y024380D03*
X017340Y024300D03*
X014300Y015460D03*
X014500Y014900D03*
X017020Y012900D03*
X021260Y012940D03*
X011180Y011780D03*
X008860Y009100D03*
X004460Y011460D03*
X008100Y015460D03*
X008100Y021220D03*
X008860Y027580D03*
D124*
X008860Y027540D03*
X008100Y021260D03*
X011180Y015740D03*
X014460Y014980D03*
X016980Y012860D03*
X011180Y011740D03*
X008860Y009140D03*
X004460Y011500D03*
X014460Y021700D03*
X014460Y021740D03*
X017380Y024380D03*
X019100Y026500D03*
D125*
X015480Y025860D03*
X015480Y025820D03*
X015480Y025780D03*
X015160Y023100D03*
X014280Y020580D03*
X014280Y016100D03*
X012840Y009140D03*
X004440Y010820D03*
X002120Y015180D03*
X002120Y021500D03*
X004440Y025860D03*
X013520Y028220D03*
D126*
X013520Y028180D03*
X015520Y026020D03*
X015520Y025980D03*
X015120Y023020D03*
X014280Y020620D03*
X015120Y018380D03*
X015120Y018340D03*
X015120Y018300D03*
X021000Y009580D03*
X012800Y009220D03*
X004440Y010860D03*
X002120Y021460D03*
X004440Y025820D03*
D127*
X004440Y025780D03*
X002120Y021420D03*
X004440Y010900D03*
X012760Y009300D03*
X015080Y013740D03*
X015080Y017620D03*
X015080Y017660D03*
X015080Y017700D03*
X015080Y017740D03*
X015080Y017780D03*
X015080Y018900D03*
X015080Y018940D03*
X015080Y018980D03*
X015080Y019020D03*
X015080Y019060D03*
X014280Y020660D03*
X015080Y022940D03*
X015560Y026100D03*
X019120Y024220D03*
D128*
X019120Y024180D03*
X015640Y026300D03*
X013520Y028100D03*
X015000Y022780D03*
X008080Y020740D03*
X008080Y015940D03*
X004440Y010980D03*
X002120Y015340D03*
X004440Y025700D03*
X015000Y013900D03*
X012680Y009460D03*
D129*
X010700Y009780D03*
X004780Y013300D03*
X011180Y017020D03*
X004780Y023380D03*
X019100Y025140D03*
D130*
X019080Y025180D03*
X011200Y019700D03*
X011200Y016980D03*
X010720Y009820D03*
X004760Y012900D03*
X004760Y012940D03*
X004760Y012980D03*
X004760Y013020D03*
X004760Y013060D03*
X004760Y013100D03*
X004760Y013140D03*
X004760Y013180D03*
X004760Y013220D03*
X004760Y013260D03*
X004760Y023420D03*
X004760Y023460D03*
X004760Y023500D03*
X004760Y023540D03*
X004760Y023580D03*
X004760Y023620D03*
X004760Y023660D03*
X004760Y023700D03*
X004760Y023740D03*
X004760Y023780D03*
D131*
X011180Y026380D03*
X011180Y019740D03*
X011180Y016940D03*
X010740Y009860D03*
X019100Y025220D03*
X019100Y025260D03*
D132*
X019100Y025300D03*
X019100Y025340D03*
X011180Y026340D03*
X010780Y009940D03*
D133*
X010800Y009980D03*
X010840Y010020D03*
X011200Y016820D03*
X011200Y016860D03*
X011200Y019820D03*
X011200Y019860D03*
X011200Y026300D03*
D134*
X011200Y026260D03*
X011200Y019900D03*
X011200Y016780D03*
X010880Y010100D03*
D135*
X010900Y010140D03*
X011180Y016740D03*
X011180Y019940D03*
X019100Y025420D03*
X019100Y025460D03*
D136*
X011200Y026220D03*
X010960Y010220D03*
X010920Y010180D03*
D137*
X011000Y010300D03*
X011200Y016660D03*
X011200Y020020D03*
D138*
X011180Y026180D03*
X019100Y025540D03*
X011020Y010340D03*
D139*
X011040Y010380D03*
X011080Y010420D03*
X011200Y016620D03*
X011200Y020060D03*
X019080Y025580D03*
D140*
X011200Y020100D03*
X011200Y016580D03*
X011120Y010500D03*
D141*
X011140Y010540D03*
X011180Y016540D03*
X011180Y026100D03*
X019100Y025660D03*
D142*
X019120Y025700D03*
X011200Y026060D03*
X011200Y020180D03*
X011200Y020140D03*
X005080Y012860D03*
X011160Y010580D03*
D143*
X011180Y010620D03*
X011180Y016500D03*
X019100Y025740D03*
D144*
X011180Y010700D03*
D145*
X011180Y010740D03*
X011180Y020300D03*
X011180Y025940D03*
X019100Y025860D03*
D146*
X015440Y025700D03*
X015440Y025660D03*
X015200Y023180D03*
X014280Y020540D03*
X014280Y016140D03*
X015080Y013620D03*
X011760Y014740D03*
X010640Y014740D03*
X004440Y010780D03*
X002120Y015140D03*
X002120Y021540D03*
X004440Y025900D03*
D147*
X011180Y025900D03*
X011180Y020340D03*
X011180Y010780D03*
X019100Y025900D03*
D148*
X011200Y025860D03*
X011200Y020380D03*
X011200Y016300D03*
X011200Y010820D03*
D149*
X011200Y011020D03*
X011200Y016140D03*
X005480Y012100D03*
X005480Y012060D03*
X005480Y024620D03*
D150*
X005620Y024340D03*
X005620Y024300D03*
X011180Y011140D03*
X016380Y011580D03*
X021900Y011620D03*
X021900Y011660D03*
X021940Y011580D03*
D151*
X019120Y017460D03*
X019120Y017500D03*
X019120Y017540D03*
X019120Y017580D03*
X019120Y017620D03*
X019120Y017660D03*
X019120Y017700D03*
X019120Y017740D03*
X019120Y017780D03*
X019120Y017820D03*
X019120Y017860D03*
X019120Y017900D03*
X019120Y017940D03*
X019120Y017980D03*
X019120Y018020D03*
X019120Y018060D03*
X019120Y018100D03*
X019120Y018140D03*
X019120Y018180D03*
X019120Y018220D03*
X019120Y018260D03*
X019120Y018300D03*
X019120Y018340D03*
X019120Y018380D03*
X019120Y018420D03*
X019120Y018460D03*
X019120Y018500D03*
X019120Y018540D03*
X019120Y018580D03*
X019120Y018620D03*
X019120Y018660D03*
X019120Y018700D03*
X019120Y018740D03*
X019120Y018780D03*
X019120Y018820D03*
X019120Y018860D03*
X019120Y018900D03*
X019120Y018940D03*
X019120Y018980D03*
X019120Y019020D03*
X019120Y019060D03*
X019120Y019100D03*
X019120Y019140D03*
X019120Y019180D03*
X019120Y019220D03*
X019120Y019260D03*
X019120Y019300D03*
X019120Y019340D03*
X019120Y019380D03*
X019120Y019420D03*
X019120Y019460D03*
X019120Y019500D03*
X019120Y019540D03*
X019120Y019580D03*
X019120Y019620D03*
X019120Y019660D03*
X019120Y019700D03*
X019120Y019740D03*
X019120Y019780D03*
X019120Y019820D03*
X019120Y019860D03*
X019120Y019900D03*
X019120Y019940D03*
X019120Y019980D03*
X019120Y020020D03*
X019120Y020060D03*
X019120Y020100D03*
X019120Y020140D03*
X019120Y020180D03*
X019120Y020220D03*
X019120Y020260D03*
X019120Y020300D03*
X019120Y020340D03*
X019120Y020380D03*
X019120Y020420D03*
X019120Y020460D03*
X019120Y020500D03*
X019120Y020540D03*
X019120Y020580D03*
X019120Y020620D03*
X019120Y020660D03*
X019120Y020700D03*
X019120Y020740D03*
X019120Y020780D03*
X019120Y020820D03*
X019120Y020860D03*
X019120Y020900D03*
X019120Y020940D03*
X019120Y020980D03*
X019120Y021020D03*
X019120Y021060D03*
X019120Y021100D03*
X019120Y021140D03*
X019120Y021180D03*
X019120Y021220D03*
X019120Y021260D03*
X019120Y021300D03*
X019120Y021340D03*
X019120Y021380D03*
X019120Y021420D03*
X019120Y021460D03*
X019120Y021500D03*
X019120Y021540D03*
X019120Y021580D03*
X019120Y021620D03*
X019120Y021660D03*
X019120Y021700D03*
X019120Y021740D03*
X019120Y021780D03*
X019120Y021820D03*
X019120Y021860D03*
X019120Y021900D03*
X019120Y021940D03*
X019120Y021980D03*
X019120Y022020D03*
X019120Y022060D03*
X019120Y022100D03*
X019120Y022140D03*
X019120Y022180D03*
X019120Y022220D03*
X019120Y022260D03*
X019120Y022300D03*
X019120Y022340D03*
X019120Y022380D03*
X019120Y022420D03*
X019120Y022460D03*
X019120Y022500D03*
X019120Y022540D03*
X019120Y022580D03*
X019120Y022620D03*
X019120Y022660D03*
X019120Y022700D03*
X019120Y022740D03*
X019120Y022780D03*
X019120Y022820D03*
X019120Y022860D03*
X019120Y022900D03*
X019120Y022940D03*
X019120Y022980D03*
X019120Y023020D03*
X019120Y023060D03*
X017200Y023740D03*
X017200Y023780D03*
X017200Y023820D03*
X017200Y023860D03*
X014280Y021140D03*
X011200Y020980D03*
X011200Y024780D03*
X004440Y025300D03*
X002120Y020940D03*
X004440Y011380D03*
X011200Y011900D03*
X014280Y015540D03*
X014600Y014700D03*
X021000Y023940D03*
X021000Y023980D03*
X020960Y024060D03*
D152*
X020920Y024220D03*
X017240Y024020D03*
X017240Y023980D03*
X014560Y021940D03*
X014560Y021900D03*
X014280Y015500D03*
X014560Y014780D03*
X011200Y015700D03*
X004440Y011420D03*
X002120Y015780D03*
X004440Y025260D03*
X021200Y013020D03*
D153*
X021880Y011700D03*
X016400Y011620D03*
X016360Y011540D03*
X016320Y011500D03*
X005640Y012380D03*
X005640Y024260D03*
D154*
X010100Y026940D03*
X019100Y025940D03*
X005300Y011740D03*
D155*
X005320Y011780D03*
X011200Y020420D03*
X011200Y025820D03*
X005320Y024900D03*
D156*
X005400Y024740D03*
X011200Y016220D03*
X005400Y011940D03*
X019080Y026020D03*
D157*
X011200Y020500D03*
X011200Y016180D03*
X005440Y011980D03*
X005440Y024660D03*
D158*
X005500Y024580D03*
X005500Y024540D03*
X011180Y025660D03*
X019100Y026100D03*
X005500Y012140D03*
D159*
X002120Y015860D03*
X002120Y020820D03*
X004440Y025180D03*
X011200Y024900D03*
X013520Y027540D03*
X017360Y024340D03*
X014480Y021780D03*
X011200Y020940D03*
X014480Y014940D03*
X021280Y012900D03*
X020840Y024420D03*
D160*
X020880Y024340D03*
X020880Y024300D03*
X017320Y024260D03*
X017320Y024220D03*
X017280Y024180D03*
X014520Y021820D03*
X014280Y021220D03*
X014520Y014860D03*
X017040Y012940D03*
X021240Y012980D03*
X013520Y027580D03*
X004440Y025220D03*
X002120Y020860D03*
X002120Y015820D03*
D161*
X002120Y021020D03*
X004440Y025380D03*
X008080Y021060D03*
X013520Y027740D03*
X015960Y026820D03*
X019080Y026580D03*
X019120Y023660D03*
X019120Y023620D03*
X021080Y023100D03*
X021080Y023060D03*
X021080Y023020D03*
X021080Y022980D03*
X021080Y022940D03*
X021080Y022900D03*
X021080Y022860D03*
X021080Y022820D03*
X021080Y022780D03*
X021080Y022740D03*
X021080Y022700D03*
X021080Y022660D03*
X021080Y022620D03*
X021080Y022580D03*
X021080Y022540D03*
X021080Y022500D03*
X021080Y022460D03*
X021080Y022420D03*
X021080Y022380D03*
X021080Y022340D03*
X021080Y022300D03*
X021080Y022260D03*
X021080Y022220D03*
X021080Y022180D03*
X021080Y022140D03*
X021080Y022100D03*
X021080Y022060D03*
X021080Y022020D03*
X021080Y021980D03*
X021080Y021940D03*
X021080Y021900D03*
X021080Y021860D03*
X021080Y021820D03*
X021080Y021780D03*
X021080Y021740D03*
X021080Y021700D03*
X021080Y021660D03*
X021080Y021620D03*
X021080Y021580D03*
X021080Y021540D03*
X021080Y021500D03*
X021080Y021460D03*
X021080Y021420D03*
X021080Y021380D03*
X021080Y021340D03*
X021080Y021300D03*
X021080Y021260D03*
X021080Y021220D03*
X021080Y021180D03*
X021080Y021140D03*
X021080Y021100D03*
X021080Y021060D03*
X021080Y021020D03*
X021080Y020980D03*
X021080Y020940D03*
X021080Y020900D03*
X021080Y020860D03*
X021080Y020820D03*
X021080Y020780D03*
X021080Y020740D03*
X021080Y020700D03*
X021080Y020660D03*
X021080Y020620D03*
X021080Y020580D03*
X021080Y020540D03*
X021080Y020500D03*
X021080Y020460D03*
X021080Y020420D03*
X021080Y020380D03*
X021080Y020340D03*
X021080Y020300D03*
X021080Y020260D03*
X021080Y020220D03*
X021080Y020180D03*
X021080Y020140D03*
X021080Y020100D03*
X021080Y020060D03*
X021080Y020020D03*
X021080Y019980D03*
X021080Y019940D03*
X021080Y019900D03*
X021080Y019860D03*
X021080Y019820D03*
X021080Y019780D03*
X021080Y019740D03*
X021080Y019700D03*
X021080Y019660D03*
X021080Y019620D03*
X021080Y019580D03*
X021080Y019540D03*
X021080Y019500D03*
X021080Y019460D03*
X021080Y019420D03*
X021080Y019380D03*
X021080Y019340D03*
X021080Y019300D03*
X021080Y019260D03*
X021080Y019220D03*
X021080Y019180D03*
X021080Y019140D03*
X021080Y019100D03*
X021080Y019060D03*
X021080Y019020D03*
X021080Y018980D03*
X021080Y018940D03*
X021080Y018900D03*
X021080Y018860D03*
X021080Y018820D03*
X021080Y018780D03*
X021080Y018740D03*
X021080Y018700D03*
X021080Y018660D03*
X021080Y018620D03*
X021080Y018580D03*
X021080Y018540D03*
X021080Y018500D03*
X021080Y018460D03*
X021080Y018420D03*
X021080Y018380D03*
X021080Y018340D03*
X021080Y018300D03*
X021080Y018260D03*
X021080Y018220D03*
X021080Y018180D03*
X021080Y018140D03*
X021080Y018100D03*
X021080Y018060D03*
X021080Y018020D03*
X021080Y017980D03*
X021080Y017940D03*
X021080Y017900D03*
X021080Y017860D03*
X021080Y017820D03*
X021080Y017780D03*
X021080Y017740D03*
X021080Y017700D03*
X021080Y017660D03*
X021080Y017620D03*
X021080Y017580D03*
X021080Y017540D03*
X021080Y017500D03*
X021080Y017460D03*
X021080Y017420D03*
X021080Y017380D03*
X021080Y017340D03*
X021080Y017300D03*
X021080Y017260D03*
X021080Y017220D03*
X021080Y017180D03*
X021080Y017140D03*
X021080Y017100D03*
X021080Y017060D03*
X021080Y017020D03*
X021080Y016980D03*
X021080Y016940D03*
X021080Y016900D03*
X021080Y016860D03*
X021080Y016820D03*
X021080Y016780D03*
X021080Y016740D03*
X021080Y016700D03*
X021080Y016660D03*
X021080Y016620D03*
X021080Y016580D03*
X021080Y016540D03*
X021080Y016500D03*
X021080Y016460D03*
X021080Y016420D03*
X021080Y016380D03*
X021080Y016340D03*
X021080Y016300D03*
X021080Y016260D03*
X021080Y016220D03*
X021080Y016180D03*
X021080Y016140D03*
X021080Y016100D03*
X021080Y016060D03*
X021080Y016020D03*
X021080Y015980D03*
X021080Y015940D03*
X021080Y015900D03*
X021080Y015860D03*
X021080Y015820D03*
X021080Y015780D03*
X021080Y015740D03*
X021080Y015700D03*
X021080Y015660D03*
X021080Y015620D03*
X021080Y015580D03*
X021080Y015540D03*
X021080Y015500D03*
X021080Y015460D03*
X021080Y015420D03*
X021080Y015380D03*
X021080Y015340D03*
X021080Y015300D03*
X021080Y015260D03*
X021080Y015220D03*
X021080Y015180D03*
X021080Y015140D03*
X021080Y015100D03*
X021080Y015060D03*
X021080Y015020D03*
X021080Y014980D03*
X021080Y014940D03*
X021080Y014900D03*
X021080Y014860D03*
X021080Y014820D03*
X021080Y014780D03*
X021080Y014740D03*
X021080Y014700D03*
X021080Y014660D03*
X021080Y014620D03*
X021080Y014580D03*
X021080Y014540D03*
X021080Y014500D03*
X021080Y014460D03*
X021080Y014420D03*
X021080Y014380D03*
X021080Y014340D03*
X021080Y014300D03*
X021080Y014260D03*
X021080Y014220D03*
X021080Y014180D03*
X021080Y014140D03*
X021080Y014100D03*
X021080Y014060D03*
X021080Y014020D03*
X021080Y013980D03*
X021080Y013940D03*
X021080Y013900D03*
X021080Y013860D03*
X021080Y013820D03*
X021080Y013780D03*
X021080Y013740D03*
X021080Y013700D03*
X021080Y013660D03*
X021080Y013620D03*
X021080Y013580D03*
X021080Y013540D03*
X021080Y013500D03*
X021080Y013460D03*
X021080Y013420D03*
X021080Y013380D03*
X021080Y013340D03*
X021080Y013300D03*
X021080Y013260D03*
X021080Y013220D03*
X014680Y014540D03*
X014320Y021060D03*
X014680Y022140D03*
X014680Y022180D03*
D162*
X019100Y025060D03*
X019100Y025100D03*
X011180Y017100D03*
X011180Y017060D03*
X004820Y013380D03*
X004820Y023300D03*
D163*
X004840Y023260D03*
X011200Y026460D03*
X011200Y019580D03*
X011200Y019540D03*
X011200Y017140D03*
X004840Y013420D03*
D164*
X004860Y013460D03*
X004860Y023220D03*
X019100Y024940D03*
X019100Y024980D03*
X019100Y025020D03*
D165*
X019100Y024900D03*
X019100Y024860D03*
X019100Y024820D03*
X011180Y026540D03*
X011180Y019420D03*
X004900Y023140D03*
X004900Y013540D03*
D166*
X004920Y013580D03*
X011200Y017260D03*
X011200Y017300D03*
X011200Y017340D03*
X011200Y019340D03*
X011200Y019380D03*
X004920Y023100D03*
D167*
X004940Y023060D03*
X011180Y026580D03*
X019100Y024780D03*
X019100Y024740D03*
X011180Y017380D03*
X004940Y013620D03*
D168*
X004980Y013700D03*
X011180Y017460D03*
X011180Y019220D03*
X004980Y022980D03*
D169*
X005000Y022940D03*
X011200Y026620D03*
X011200Y019180D03*
X011200Y019140D03*
X011200Y017580D03*
X011200Y017540D03*
X011200Y017500D03*
X005000Y013740D03*
D170*
X005040Y013820D03*
X011200Y017620D03*
X011200Y017660D03*
X011200Y017700D03*
X011200Y018980D03*
X011200Y019020D03*
X005040Y022860D03*
X011200Y026660D03*
D171*
X005060Y022820D03*
X011180Y018940D03*
X011180Y017780D03*
X011180Y017740D03*
X005060Y013860D03*
D172*
X005100Y013940D03*
X011180Y017980D03*
X011180Y018700D03*
X005100Y022740D03*
D173*
X005120Y022700D03*
X011200Y018660D03*
X011200Y018620D03*
X011200Y018580D03*
X011200Y018540D03*
X011200Y018500D03*
X011200Y018460D03*
X011200Y018420D03*
X011200Y018380D03*
X011200Y018340D03*
X011200Y018300D03*
X011200Y018260D03*
X011200Y018220D03*
X011200Y018180D03*
X011200Y018140D03*
X011200Y018100D03*
X011200Y018060D03*
X011200Y018020D03*
X005120Y013980D03*
X011200Y026740D03*
D174*
X005160Y022620D03*
X005160Y014060D03*
D175*
X005180Y014100D03*
X005180Y022580D03*
X011180Y026820D03*
D176*
X005200Y022540D03*
X005200Y014140D03*
D177*
X005240Y014220D03*
X005240Y022460D03*
X011200Y026860D03*
D178*
X005260Y022420D03*
X005260Y014260D03*
D179*
X005300Y014340D03*
X005300Y022340D03*
D180*
X004440Y025420D03*
X002120Y021060D03*
X002120Y015620D03*
X008080Y015660D03*
X008080Y021020D03*
X013520Y027780D03*
X015920Y026780D03*
X019120Y023820D03*
X019120Y023780D03*
X019120Y023740D03*
X014720Y022220D03*
X014720Y014460D03*
D181*
X011200Y016380D03*
X019080Y025820D03*
D182*
X019080Y025780D03*
X011200Y025980D03*
X011200Y020260D03*
X011200Y016420D03*
D183*
X011200Y016460D03*
X011200Y020220D03*
X011200Y026020D03*
D184*
X004280Y019020D03*
X004280Y018980D03*
X004280Y018940D03*
X004280Y017740D03*
X004280Y017700D03*
X004280Y017660D03*
X004280Y017620D03*
D185*
X004240Y018220D03*
X004240Y018260D03*
X004240Y018300D03*
X004240Y018340D03*
X004240Y018380D03*
X004240Y018420D03*
X004240Y018460D03*
M02*
