G75*
%MOIN*%
%OFA0B0*%
%FSLAX24Y24*%
%IPPOS*%
%LPD*%
%AMOC8*
5,1,8,0,0,1.08239X$1,22.5*
%
%ADD10C,0.0000*%
%ADD11OC8,0.0520*%
%ADD12C,0.0440*%
%ADD13OC8,0.0630*%
%ADD14C,0.0660*%
%ADD15C,0.0520*%
%ADD16C,0.0705*%
%ADD17C,0.0600*%
%ADD18OC8,0.0600*%
%ADD19C,0.0885*%
%ADD20C,0.0100*%
%ADD21C,0.0400*%
%ADD22C,0.0394*%
D10*
X000100Y000100D02*
X000100Y033470D01*
X028092Y033470D01*
X028092Y000100D01*
X000100Y000100D01*
X000864Y001494D02*
X000866Y001544D01*
X000872Y001594D01*
X000882Y001643D01*
X000896Y001691D01*
X000913Y001738D01*
X000934Y001783D01*
X000959Y001827D01*
X000987Y001868D01*
X001019Y001907D01*
X001053Y001944D01*
X001090Y001978D01*
X001130Y002008D01*
X001172Y002035D01*
X001216Y002059D01*
X001262Y002080D01*
X001309Y002096D01*
X001357Y002109D01*
X001407Y002118D01*
X001456Y002123D01*
X001507Y002124D01*
X001557Y002121D01*
X001606Y002114D01*
X001655Y002103D01*
X001703Y002088D01*
X001749Y002070D01*
X001794Y002048D01*
X001837Y002022D01*
X001878Y001993D01*
X001917Y001961D01*
X001953Y001926D01*
X001985Y001888D01*
X002015Y001848D01*
X002042Y001805D01*
X002065Y001761D01*
X002084Y001715D01*
X002100Y001667D01*
X002112Y001618D01*
X002120Y001569D01*
X002124Y001519D01*
X002124Y001469D01*
X002120Y001419D01*
X002112Y001370D01*
X002100Y001321D01*
X002084Y001273D01*
X002065Y001227D01*
X002042Y001183D01*
X002015Y001140D01*
X001985Y001100D01*
X001953Y001062D01*
X001917Y001027D01*
X001878Y000995D01*
X001837Y000966D01*
X001794Y000940D01*
X001749Y000918D01*
X001703Y000900D01*
X001655Y000885D01*
X001606Y000874D01*
X001557Y000867D01*
X001507Y000864D01*
X001456Y000865D01*
X001407Y000870D01*
X001357Y000879D01*
X001309Y000892D01*
X001262Y000908D01*
X001216Y000929D01*
X001172Y000953D01*
X001130Y000980D01*
X001090Y001010D01*
X001053Y001044D01*
X001019Y001081D01*
X000987Y001120D01*
X000959Y001161D01*
X000934Y001205D01*
X000913Y001250D01*
X000896Y001297D01*
X000882Y001345D01*
X000872Y001394D01*
X000866Y001444D01*
X000864Y001494D01*
X002950Y021200D02*
X002952Y021250D01*
X002958Y021300D01*
X002968Y021350D01*
X002981Y021398D01*
X002998Y021446D01*
X003019Y021492D01*
X003043Y021536D01*
X003071Y021578D01*
X003102Y021618D01*
X003136Y021655D01*
X003173Y021690D01*
X003212Y021721D01*
X003253Y021750D01*
X003297Y021775D01*
X003343Y021797D01*
X003390Y021815D01*
X003438Y021829D01*
X003487Y021840D01*
X003537Y021847D01*
X003587Y021850D01*
X003638Y021849D01*
X003688Y021844D01*
X003738Y021835D01*
X003786Y021823D01*
X003834Y021806D01*
X003880Y021786D01*
X003925Y021763D01*
X003968Y021736D01*
X004008Y021706D01*
X004046Y021673D01*
X004081Y021637D01*
X004114Y021598D01*
X004143Y021557D01*
X004169Y021514D01*
X004192Y021469D01*
X004211Y021422D01*
X004226Y021374D01*
X004238Y021325D01*
X004246Y021275D01*
X004250Y021225D01*
X004250Y021175D01*
X004246Y021125D01*
X004238Y021075D01*
X004226Y021026D01*
X004211Y020978D01*
X004192Y020931D01*
X004169Y020886D01*
X004143Y020843D01*
X004114Y020802D01*
X004081Y020763D01*
X004046Y020727D01*
X004008Y020694D01*
X003968Y020664D01*
X003925Y020637D01*
X003880Y020614D01*
X003834Y020594D01*
X003786Y020577D01*
X003738Y020565D01*
X003688Y020556D01*
X003638Y020551D01*
X003587Y020550D01*
X003537Y020553D01*
X003487Y020560D01*
X003438Y020571D01*
X003390Y020585D01*
X003343Y020603D01*
X003297Y020625D01*
X003253Y020650D01*
X003212Y020679D01*
X003173Y020710D01*
X003136Y020745D01*
X003102Y020782D01*
X003071Y020822D01*
X003043Y020864D01*
X003019Y020908D01*
X002998Y020954D01*
X002981Y021002D01*
X002968Y021050D01*
X002958Y021100D01*
X002952Y021150D01*
X002950Y021200D01*
X000970Y032100D02*
X000972Y032150D01*
X000978Y032200D01*
X000988Y032249D01*
X001002Y032297D01*
X001019Y032344D01*
X001040Y032389D01*
X001065Y032433D01*
X001093Y032474D01*
X001125Y032513D01*
X001159Y032550D01*
X001196Y032584D01*
X001236Y032614D01*
X001278Y032641D01*
X001322Y032665D01*
X001368Y032686D01*
X001415Y032702D01*
X001463Y032715D01*
X001513Y032724D01*
X001562Y032729D01*
X001613Y032730D01*
X001663Y032727D01*
X001712Y032720D01*
X001761Y032709D01*
X001809Y032694D01*
X001855Y032676D01*
X001900Y032654D01*
X001943Y032628D01*
X001984Y032599D01*
X002023Y032567D01*
X002059Y032532D01*
X002091Y032494D01*
X002121Y032454D01*
X002148Y032411D01*
X002171Y032367D01*
X002190Y032321D01*
X002206Y032273D01*
X002218Y032224D01*
X002226Y032175D01*
X002230Y032125D01*
X002230Y032075D01*
X002226Y032025D01*
X002218Y031976D01*
X002206Y031927D01*
X002190Y031879D01*
X002171Y031833D01*
X002148Y031789D01*
X002121Y031746D01*
X002091Y031706D01*
X002059Y031668D01*
X002023Y031633D01*
X001984Y031601D01*
X001943Y031572D01*
X001900Y031546D01*
X001855Y031524D01*
X001809Y031506D01*
X001761Y031491D01*
X001712Y031480D01*
X001663Y031473D01*
X001613Y031470D01*
X001562Y031471D01*
X001513Y031476D01*
X001463Y031485D01*
X001415Y031498D01*
X001368Y031514D01*
X001322Y031535D01*
X001278Y031559D01*
X001236Y031586D01*
X001196Y031616D01*
X001159Y031650D01*
X001125Y031687D01*
X001093Y031726D01*
X001065Y031767D01*
X001040Y031811D01*
X001019Y031856D01*
X001002Y031903D01*
X000988Y031951D01*
X000978Y032000D01*
X000972Y032050D01*
X000970Y032100D01*
X014550Y030100D02*
X014552Y030150D01*
X014558Y030200D01*
X014568Y030250D01*
X014581Y030298D01*
X014598Y030346D01*
X014619Y030392D01*
X014643Y030436D01*
X014671Y030478D01*
X014702Y030518D01*
X014736Y030555D01*
X014773Y030590D01*
X014812Y030621D01*
X014853Y030650D01*
X014897Y030675D01*
X014943Y030697D01*
X014990Y030715D01*
X015038Y030729D01*
X015087Y030740D01*
X015137Y030747D01*
X015187Y030750D01*
X015238Y030749D01*
X015288Y030744D01*
X015338Y030735D01*
X015386Y030723D01*
X015434Y030706D01*
X015480Y030686D01*
X015525Y030663D01*
X015568Y030636D01*
X015608Y030606D01*
X015646Y030573D01*
X015681Y030537D01*
X015714Y030498D01*
X015743Y030457D01*
X015769Y030414D01*
X015792Y030369D01*
X015811Y030322D01*
X015826Y030274D01*
X015838Y030225D01*
X015846Y030175D01*
X015850Y030125D01*
X015850Y030075D01*
X015846Y030025D01*
X015838Y029975D01*
X015826Y029926D01*
X015811Y029878D01*
X015792Y029831D01*
X015769Y029786D01*
X015743Y029743D01*
X015714Y029702D01*
X015681Y029663D01*
X015646Y029627D01*
X015608Y029594D01*
X015568Y029564D01*
X015525Y029537D01*
X015480Y029514D01*
X015434Y029494D01*
X015386Y029477D01*
X015338Y029465D01*
X015288Y029456D01*
X015238Y029451D01*
X015187Y029450D01*
X015137Y029453D01*
X015087Y029460D01*
X015038Y029471D01*
X014990Y029485D01*
X014943Y029503D01*
X014897Y029525D01*
X014853Y029550D01*
X014812Y029579D01*
X014773Y029610D01*
X014736Y029645D01*
X014702Y029682D01*
X014671Y029722D01*
X014643Y029764D01*
X014619Y029808D01*
X014598Y029854D01*
X014581Y029902D01*
X014568Y029950D01*
X014558Y030000D01*
X014552Y030050D01*
X014550Y030100D01*
X014550Y023600D02*
X014552Y023650D01*
X014558Y023700D01*
X014568Y023750D01*
X014581Y023798D01*
X014598Y023846D01*
X014619Y023892D01*
X014643Y023936D01*
X014671Y023978D01*
X014702Y024018D01*
X014736Y024055D01*
X014773Y024090D01*
X014812Y024121D01*
X014853Y024150D01*
X014897Y024175D01*
X014943Y024197D01*
X014990Y024215D01*
X015038Y024229D01*
X015087Y024240D01*
X015137Y024247D01*
X015187Y024250D01*
X015238Y024249D01*
X015288Y024244D01*
X015338Y024235D01*
X015386Y024223D01*
X015434Y024206D01*
X015480Y024186D01*
X015525Y024163D01*
X015568Y024136D01*
X015608Y024106D01*
X015646Y024073D01*
X015681Y024037D01*
X015714Y023998D01*
X015743Y023957D01*
X015769Y023914D01*
X015792Y023869D01*
X015811Y023822D01*
X015826Y023774D01*
X015838Y023725D01*
X015846Y023675D01*
X015850Y023625D01*
X015850Y023575D01*
X015846Y023525D01*
X015838Y023475D01*
X015826Y023426D01*
X015811Y023378D01*
X015792Y023331D01*
X015769Y023286D01*
X015743Y023243D01*
X015714Y023202D01*
X015681Y023163D01*
X015646Y023127D01*
X015608Y023094D01*
X015568Y023064D01*
X015525Y023037D01*
X015480Y023014D01*
X015434Y022994D01*
X015386Y022977D01*
X015338Y022965D01*
X015288Y022956D01*
X015238Y022951D01*
X015187Y022950D01*
X015137Y022953D01*
X015087Y022960D01*
X015038Y022971D01*
X014990Y022985D01*
X014943Y023003D01*
X014897Y023025D01*
X014853Y023050D01*
X014812Y023079D01*
X014773Y023110D01*
X014736Y023145D01*
X014702Y023182D01*
X014671Y023222D01*
X014643Y023264D01*
X014619Y023308D01*
X014598Y023354D01*
X014581Y023402D01*
X014568Y023450D01*
X014558Y023500D01*
X014552Y023550D01*
X014550Y023600D01*
X026076Y032100D02*
X026078Y032150D01*
X026084Y032200D01*
X026094Y032249D01*
X026108Y032297D01*
X026125Y032344D01*
X026146Y032389D01*
X026171Y032433D01*
X026199Y032474D01*
X026231Y032513D01*
X026265Y032550D01*
X026302Y032584D01*
X026342Y032614D01*
X026384Y032641D01*
X026428Y032665D01*
X026474Y032686D01*
X026521Y032702D01*
X026569Y032715D01*
X026619Y032724D01*
X026668Y032729D01*
X026719Y032730D01*
X026769Y032727D01*
X026818Y032720D01*
X026867Y032709D01*
X026915Y032694D01*
X026961Y032676D01*
X027006Y032654D01*
X027049Y032628D01*
X027090Y032599D01*
X027129Y032567D01*
X027165Y032532D01*
X027197Y032494D01*
X027227Y032454D01*
X027254Y032411D01*
X027277Y032367D01*
X027296Y032321D01*
X027312Y032273D01*
X027324Y032224D01*
X027332Y032175D01*
X027336Y032125D01*
X027336Y032075D01*
X027332Y032025D01*
X027324Y031976D01*
X027312Y031927D01*
X027296Y031879D01*
X027277Y031833D01*
X027254Y031789D01*
X027227Y031746D01*
X027197Y031706D01*
X027165Y031668D01*
X027129Y031633D01*
X027090Y031601D01*
X027049Y031572D01*
X027006Y031546D01*
X026961Y031524D01*
X026915Y031506D01*
X026867Y031491D01*
X026818Y031480D01*
X026769Y031473D01*
X026719Y031470D01*
X026668Y031471D01*
X026619Y031476D01*
X026569Y031485D01*
X026521Y031498D01*
X026474Y031514D01*
X026428Y031535D01*
X026384Y031559D01*
X026342Y031586D01*
X026302Y031616D01*
X026265Y031650D01*
X026231Y031687D01*
X026199Y031726D01*
X026171Y031767D01*
X026146Y031811D01*
X026125Y031856D01*
X026108Y031903D01*
X026094Y031951D01*
X026084Y032000D01*
X026078Y032050D01*
X026076Y032100D01*
X026076Y001494D02*
X026078Y001544D01*
X026084Y001594D01*
X026094Y001643D01*
X026108Y001691D01*
X026125Y001738D01*
X026146Y001783D01*
X026171Y001827D01*
X026199Y001868D01*
X026231Y001907D01*
X026265Y001944D01*
X026302Y001978D01*
X026342Y002008D01*
X026384Y002035D01*
X026428Y002059D01*
X026474Y002080D01*
X026521Y002096D01*
X026569Y002109D01*
X026619Y002118D01*
X026668Y002123D01*
X026719Y002124D01*
X026769Y002121D01*
X026818Y002114D01*
X026867Y002103D01*
X026915Y002088D01*
X026961Y002070D01*
X027006Y002048D01*
X027049Y002022D01*
X027090Y001993D01*
X027129Y001961D01*
X027165Y001926D01*
X027197Y001888D01*
X027227Y001848D01*
X027254Y001805D01*
X027277Y001761D01*
X027296Y001715D01*
X027312Y001667D01*
X027324Y001618D01*
X027332Y001569D01*
X027336Y001519D01*
X027336Y001469D01*
X027332Y001419D01*
X027324Y001370D01*
X027312Y001321D01*
X027296Y001273D01*
X027277Y001227D01*
X027254Y001183D01*
X027227Y001140D01*
X027197Y001100D01*
X027165Y001062D01*
X027129Y001027D01*
X027090Y000995D01*
X027049Y000966D01*
X027006Y000940D01*
X026961Y000918D01*
X026915Y000900D01*
X026867Y000885D01*
X026818Y000874D01*
X026769Y000867D01*
X026719Y000864D01*
X026668Y000865D01*
X026619Y000870D01*
X026569Y000879D01*
X026521Y000892D01*
X026474Y000908D01*
X026428Y000929D01*
X026384Y000953D01*
X026342Y000980D01*
X026302Y001010D01*
X026265Y001044D01*
X026231Y001081D01*
X026199Y001120D01*
X026171Y001161D01*
X026146Y001205D01*
X026125Y001250D01*
X026108Y001297D01*
X026094Y001345D01*
X026084Y001394D01*
X026078Y001444D01*
X026076Y001494D01*
D11*
X025600Y005313D03*
X026600Y005313D03*
X026600Y008313D03*
X025600Y008313D03*
X025600Y011313D03*
X026600Y011313D03*
X022600Y011100D03*
X022600Y012600D03*
X022600Y014100D03*
X022600Y015600D03*
X022600Y017100D03*
X018600Y017100D03*
X017600Y017100D03*
X017600Y015600D03*
X018600Y015600D03*
X018600Y014100D03*
X017600Y014100D03*
X017600Y012600D03*
X018600Y012600D03*
X018600Y011100D03*
X017600Y011100D03*
X017600Y009100D03*
X016600Y009100D03*
X016600Y007600D03*
X017600Y007600D03*
X017600Y006100D03*
X016600Y006100D03*
X016600Y004600D03*
X016600Y003100D03*
X016600Y001600D03*
X013600Y001600D03*
X013600Y003100D03*
X013600Y004600D03*
X013600Y006100D03*
X013600Y007600D03*
X013600Y009100D03*
X013600Y011100D03*
X013600Y012600D03*
X013600Y014100D03*
X013600Y015600D03*
X013600Y017100D03*
X012100Y011100D03*
X009100Y011100D03*
X020600Y009100D03*
X020600Y007600D03*
X020600Y006100D03*
D12*
X002820Y005100D02*
X002380Y005100D01*
X002380Y007100D02*
X002820Y007100D01*
D13*
X001600Y008600D03*
X001600Y009600D03*
X001600Y003994D03*
X001600Y002994D03*
X011100Y020100D03*
X012100Y020100D03*
X011600Y022600D03*
X011600Y023600D03*
X008100Y023100D03*
X008100Y022100D03*
D14*
X004600Y026770D02*
X004600Y027430D01*
X003600Y027430D02*
X003600Y026770D01*
X002600Y026770D02*
X002600Y027430D01*
X021770Y029100D02*
X022430Y029100D01*
X022430Y030100D02*
X021770Y030100D01*
X021770Y031100D02*
X022430Y031100D01*
X022430Y024600D02*
X021770Y024600D01*
X021770Y023600D02*
X022430Y023600D01*
X022430Y022600D02*
X021770Y022600D01*
D15*
X012120Y025100D02*
X011600Y025100D01*
X011600Y026100D02*
X012120Y026100D01*
X012120Y027100D02*
X011600Y027100D01*
X011600Y029100D02*
X012120Y029100D01*
X012120Y030100D02*
X011600Y030100D01*
X011600Y031100D02*
X012120Y031100D01*
X008600Y031100D02*
X008080Y031100D01*
X008080Y030100D02*
X008600Y030100D01*
X008600Y029100D02*
X008080Y029100D01*
X008080Y027100D02*
X008600Y027100D01*
X008600Y026100D02*
X008080Y026100D01*
X008080Y025100D02*
X008600Y025100D01*
X007360Y014600D02*
X006840Y014600D01*
X006840Y013600D02*
X007360Y013600D01*
X007360Y012600D02*
X006840Y012600D01*
X006840Y011600D02*
X007360Y011600D01*
X007360Y010600D02*
X006840Y010600D01*
X006840Y009600D02*
X007360Y009600D01*
X007360Y008600D02*
X006840Y008600D01*
X006840Y007600D02*
X007360Y007600D01*
X007360Y006600D02*
X006840Y006600D01*
X006840Y005600D02*
X007360Y005600D01*
X007360Y004600D02*
X006840Y004600D01*
X006840Y003600D02*
X007360Y003600D01*
X007360Y002600D02*
X006840Y002600D01*
X006840Y001600D02*
X007360Y001600D01*
X008840Y001600D02*
X009360Y001600D01*
X009360Y002600D02*
X008840Y002600D01*
X008840Y003600D02*
X009360Y003600D01*
X009360Y004600D02*
X008840Y004600D01*
X008840Y005600D02*
X009360Y005600D01*
X009360Y006600D02*
X008840Y006600D01*
X008840Y007600D02*
X009360Y007600D01*
X009360Y008600D02*
X008840Y008600D01*
X011840Y008600D02*
X012360Y008600D01*
X012360Y007600D02*
X011840Y007600D01*
X011840Y006600D02*
X012360Y006600D01*
X012360Y005600D02*
X011840Y005600D01*
X011840Y004600D02*
X012360Y004600D01*
X012360Y003600D02*
X011840Y003600D01*
X011840Y002600D02*
X012360Y002600D01*
X012360Y001600D02*
X011840Y001600D01*
X004360Y001600D02*
X003840Y001600D01*
X003840Y002600D02*
X004360Y002600D01*
X004360Y003600D02*
X003840Y003600D01*
X003840Y004600D02*
X004360Y004600D01*
X004360Y005600D02*
X003840Y005600D01*
X003840Y006600D02*
X004360Y006600D01*
X004360Y007600D02*
X003840Y007600D01*
X003840Y008600D02*
X004360Y008600D01*
X004360Y009600D02*
X003840Y009600D01*
X003840Y010600D02*
X004360Y010600D01*
X004360Y011600D02*
X003840Y011600D01*
X003840Y012600D02*
X004360Y012600D01*
X004360Y013600D02*
X003840Y013600D01*
X003840Y014600D02*
X004360Y014600D01*
D16*
X004116Y030748D02*
X004116Y031453D01*
X006084Y031453D02*
X006084Y030748D01*
X025248Y029297D02*
X025953Y029297D01*
X025953Y027328D02*
X025248Y027328D01*
X025240Y024781D02*
X025945Y024781D01*
X025945Y022813D02*
X025240Y022813D01*
X025240Y020844D02*
X025945Y020844D01*
X025945Y018281D02*
X025240Y018281D01*
X025240Y016313D02*
X025945Y016313D01*
X025945Y014344D02*
X025240Y014344D01*
D17*
X018506Y004100D02*
X017906Y004100D01*
X017906Y003100D02*
X018506Y003100D01*
X010490Y012520D02*
X010490Y013120D01*
X010490Y015080D02*
X010490Y015680D01*
X008710Y015680D02*
X008710Y015080D01*
X008710Y013120D02*
X008710Y012520D01*
X007400Y017100D02*
X006800Y017100D01*
X006800Y018100D02*
X007400Y018100D01*
X001400Y018100D02*
X000800Y018100D01*
X000800Y017100D02*
X001400Y017100D01*
D18*
X001100Y015100D03*
X001100Y014100D03*
X001100Y013100D03*
X002100Y013100D03*
X002100Y014100D03*
X002100Y015100D03*
D19*
X014158Y019600D02*
X015043Y019600D01*
X020158Y019600D02*
X021043Y019600D01*
D20*
X019600Y018600D02*
X019600Y005100D01*
X018600Y004100D01*
X018206Y004100D01*
X018100Y003600D02*
X018100Y003100D01*
X018206Y003100D01*
X018100Y003600D02*
X016600Y003600D01*
X016100Y004100D01*
X016100Y015600D01*
X013100Y018600D01*
X013100Y024100D01*
X008100Y024100D01*
X003100Y019100D01*
X003100Y014600D01*
X004100Y013600D01*
X003600Y013100D02*
X005100Y013100D01*
X005100Y018600D01*
X005600Y019100D01*
X010100Y019100D01*
X010100Y016100D01*
X009600Y015600D01*
X009600Y011100D01*
X010100Y010600D01*
X010100Y007600D01*
X009600Y007100D01*
X008100Y007100D01*
X008100Y006600D01*
X007100Y005600D01*
X006600Y005100D02*
X007600Y005100D01*
X009100Y006600D01*
X009100Y007600D02*
X008100Y008600D01*
X008100Y010600D01*
X007100Y011600D01*
X007600Y012100D02*
X005600Y012100D01*
X004100Y012100D01*
X004100Y011600D01*
X004100Y012600D02*
X005600Y012600D01*
X005600Y018600D01*
X007100Y018100D02*
X006100Y017100D01*
X006100Y014600D01*
X007100Y013600D01*
X007100Y014600D02*
X007100Y017100D01*
X008100Y016600D02*
X008100Y012600D01*
X007600Y012100D01*
X008600Y012600D02*
X008710Y012820D01*
X008600Y013100D01*
X008600Y015100D01*
X008710Y015380D01*
X008100Y016600D02*
X009600Y018100D01*
X011600Y017600D02*
X011600Y009100D01*
X011100Y008600D01*
X011100Y006100D01*
X009600Y004600D01*
X009100Y004600D01*
X009600Y005100D02*
X008100Y005100D01*
X008100Y004600D01*
X009100Y003600D01*
X008100Y003600D02*
X008100Y004100D01*
X005600Y004100D01*
X005100Y004600D01*
X005100Y006600D01*
X004600Y007100D01*
X003600Y007100D01*
X003100Y007600D01*
X003100Y008600D01*
X004100Y009600D01*
X004100Y008600D02*
X005100Y007600D01*
X005100Y007100D01*
X006100Y005100D02*
X006100Y011600D01*
X005600Y012100D01*
X005600Y011600D02*
X005600Y004600D01*
X006100Y004600D01*
X006600Y005100D01*
X007100Y003600D02*
X004600Y001100D01*
X003100Y001100D01*
X003100Y004600D01*
X003600Y005100D01*
X002600Y006100D01*
X002600Y007100D02*
X002100Y007600D01*
X002100Y009100D01*
X001600Y009600D01*
X002100Y010100D02*
X001600Y010600D01*
X001600Y013600D01*
X002100Y014100D01*
X002600Y014100D02*
X003600Y013100D01*
X002600Y014100D02*
X002600Y014600D01*
X001600Y014600D01*
X001100Y014100D01*
X002100Y015100D02*
X002100Y026600D01*
X002600Y027100D01*
X012100Y020100D02*
X012100Y017100D01*
X013600Y015600D01*
X013100Y015600D01*
X012600Y016100D01*
X012100Y016100D01*
X012100Y011100D01*
X012100Y008600D01*
X012100Y007600D01*
X012100Y006600D02*
X012100Y005600D01*
X012100Y004600D01*
X012100Y003600D01*
X012100Y002600D01*
X012100Y001600D01*
X011600Y001100D02*
X013100Y001100D01*
X013100Y004100D01*
X013600Y004600D01*
X013100Y005100D02*
X013100Y015100D01*
X012600Y015600D01*
X014600Y013100D02*
X014600Y001600D01*
X013600Y000600D01*
X009100Y000600D01*
X009100Y001600D01*
X007100Y001600D01*
X007100Y002600D02*
X008100Y002600D01*
X008600Y002100D01*
X011100Y002100D01*
X011100Y001600D01*
X011600Y001100D01*
X015100Y003600D02*
X015100Y011600D01*
X015600Y012100D01*
X014600Y013100D02*
X015600Y014100D01*
X016600Y014600D02*
X017100Y014100D01*
X017100Y010100D01*
X017600Y009600D01*
X017600Y009100D01*
X017100Y009600D02*
X017100Y007100D01*
X017600Y006600D01*
X017600Y006100D01*
X017100Y005600D02*
X019100Y005600D01*
X019100Y019600D01*
X022100Y022600D01*
X025600Y024600D02*
X025592Y024781D01*
X025600Y024600D02*
X026600Y023600D01*
X026600Y020600D01*
X024600Y018600D01*
X024600Y002100D01*
X017600Y002100D01*
X016600Y003100D01*
X016600Y001600D02*
X025100Y001600D01*
X025100Y007100D01*
X026100Y008100D01*
X026100Y010600D01*
X026600Y011100D01*
X026600Y011313D01*
X023100Y010100D02*
X023100Y028100D01*
X022100Y029100D01*
X025592Y018281D02*
X025600Y018100D01*
X027100Y016600D01*
X027100Y005600D01*
X026600Y005100D01*
X026600Y005313D01*
X025600Y005313D02*
X025600Y001100D01*
X016100Y001100D01*
X015600Y001600D01*
X015600Y008600D01*
X016600Y007600D02*
X016600Y007100D01*
X017100Y006600D01*
X017100Y005600D01*
X014100Y006600D02*
X014100Y007100D01*
X014100Y006600D02*
X013600Y006100D01*
X010600Y006100D02*
X009600Y005100D01*
X010600Y006100D02*
X010600Y010100D01*
X011100Y010600D01*
X009600Y010600D02*
X009100Y010100D01*
X009100Y009600D01*
X009100Y008600D01*
X009100Y009600D02*
X008600Y010100D01*
X008600Y010600D02*
X008600Y012600D01*
X001100Y011100D02*
X001100Y005600D01*
X020600Y007600D02*
X023100Y010100D01*
D21*
X017100Y009600D03*
X015600Y008600D03*
X014100Y007100D03*
X013100Y005100D03*
X015100Y003600D03*
X011100Y010600D03*
X009600Y010600D03*
X008600Y010600D03*
X008600Y010100D03*
X005600Y011600D03*
X002600Y008600D03*
X002100Y010100D03*
X001100Y011100D03*
X002600Y006100D03*
X001100Y005600D03*
X005100Y007100D03*
X006100Y005100D03*
X008100Y003600D03*
X015600Y012100D03*
X015600Y014100D03*
X016600Y014600D03*
X019600Y018600D03*
X012600Y015600D03*
X011600Y017600D03*
X009600Y018100D03*
X005600Y018600D03*
D22*
X002100Y013100D02*
X002600Y012600D01*
X002600Y008600D01*
X001600Y008600D02*
X001600Y005100D01*
X002600Y004100D01*
X001600Y003100D01*
X001600Y002994D01*
X010490Y012820D02*
X010600Y013100D01*
X010600Y015100D01*
X010490Y015380D01*
X010600Y015600D01*
X010600Y019600D01*
X011100Y020100D01*
X011600Y020600D01*
X011600Y022600D01*
X013600Y020600D02*
X014600Y019600D01*
X013600Y020600D02*
X013600Y026100D01*
X011600Y026100D01*
X010600Y027100D01*
X010600Y029100D01*
X011600Y030100D01*
X008600Y030100D02*
X007100Y030100D01*
X007100Y026100D01*
X008600Y026100D01*
X007100Y026100D02*
X003600Y026100D01*
X003600Y027100D01*
X006100Y030100D02*
X006100Y031100D01*
X006084Y031100D01*
X006100Y030100D02*
X007100Y030100D01*
X018600Y024600D02*
X018600Y017100D01*
X018600Y015600D01*
X018600Y014100D01*
X018600Y012600D01*
X018600Y011100D01*
X018600Y008600D01*
X017600Y007600D01*
X013600Y007600D02*
X013600Y009100D01*
X013600Y011100D01*
X013600Y012600D01*
X013600Y014100D01*
X018600Y024600D02*
X020600Y024600D01*
X020600Y031100D01*
X022100Y031100D01*
X022100Y030100D02*
X025600Y030100D01*
X025600Y029297D01*
X025600Y027328D02*
X025600Y027100D01*
X024600Y026100D01*
X024600Y021600D01*
X025100Y021100D01*
X025592Y020844D01*
X022100Y024600D02*
X020600Y024600D01*
X025592Y014344D02*
X025600Y014100D01*
X025600Y011313D01*
X025600Y011100D01*
X025600Y008313D01*
X025600Y008100D01*
M02*
